<?xml version="1.0" encoding="UTF-8"?>
<svg id="Camada_2" data-name="Camada 2" xmlns="http://www.w3.org/2000/svg" viewBox="0 0 936.34 283.2">
  <defs>
    <style>
      .cls-1 {
        fill: #fee02d;
      }

      .cls-2 {
        fill: #57c4ee;
      }

      .cls-3 {
        fill: #da5499;
      }

      .cls-4 {
        fill: #652870;
      }
    </style>
  </defs>
  <g id="Camada_de_Informações_da_amostra" data-name="Camada de Informações da amostra">
    <g>
      <path class="cls-4" d="M31.33,99.71v.11s.03-.07.04-.11h-.04ZM130.63,167.29c.05.27.09.53.15.8l.06-.29c-.07-.17-.13-.34-.21-.51Z"/>
      <path class="cls-4" d="M212.46,59.42s.07.03.09.04v-.04h-.09ZM150.81,195.47c1.95.3,3.98.5,6.11.59-2.04-.2-4.08-.39-6.11-.59ZM130.63,167.29c.05.27.09.53.15.8l.06-.29c-.07-.17-.13-.34-.21-.51Z"/>
      <path class="cls-4" d="M288.25,76.54c.21.13.43.22.67.24.4.07.81-.02,1.17-.24h-1.84Z"/>
      <path class="cls-4" d="M514.74,99.48h0l.06-.13-.07.13Z"/>
      <path class="cls-4" d="M514.74,99.48h0l.06-.13-.07.13ZM539.68,185.51c.43,0,.81.05,1.18.13-.36-.09-.75-.13-1.18-.13Z"/>
      <path class="cls-2" d="M718.99,207.57c-1.09.92-2.75,2.3-11.46.2-6.28-1.52-16.2-4.84-32.21-11.42-.17-.07-.33-.14-.5-.21-.63-.25-1.24-.51-1.87-.78-.79-.33-1.57-.65-2.35-.98-1.99-.83-3.95-1.67-5.86-2.49-.88-.38-1.75-.76-2.6-1.13-.31-.13-.62-.26-.92-.39-.68-.3-1.35-.59-2.01-.88-.65-.3-1.31-.58-1.95-.86-.84-.36-1.66-.73-2.46-1.09-.51-.22-1.01-.45-1.5-.66-.36-.16-.72-.32-1.07-.48-.56-.25-1.1-.5-1.64-.73-2.64-1.2-4.93-2.24-6.75-3.08.11.83.23,1.75.36,2.72.07.5.13,1,.2,1.52.12.94.24,1.91.37,2.92.34,2.74.69,5.72,1.02,8.73,2.48,22.98.9,24.99-.13,26.32-.96,1.24-2.15,1.63-3.68,1.25-3.37-.81-8.42-5.29-16.49-12.45-5.64-5.01-14.83-13.16-18.24-14.26-1.23,7.16,4.02,42.81,10.11,74.87.27,1.48-.41,2.93-1.66,3.46-.53.23-1.09.27-1.65.14-.72-.17-1.38-.65-1.83-1.37l-46.39-74.29c-1.53,5.96-3.98,15.34-6.54,24.67-8.94,32.71-10.18,32.98-12.23,33.41-.4.08-.83.08-1.23-.02-.47-.11-.93-.35-1.33-.7-2.1-1.83-2.83-6.54-4.67-45.42-.04-.76-.07-1.52-.11-2.26-.02-.5-.04-.98-.07-1.47-.05-.97-.09-1.94-.14-2.89-.02-.54-.05-1.09-.07-1.61-.05-.89-.08-1.75-.13-2.59-.13-2.65-.26-5.08-.39-7.14-.06-.85-.1-1.65-.16-2.35,0-.17-.02-.33-.04-.49-.04-.47-.07-.89-.1-1.27-.29.08-.61.19-.95.32-.22.08-.47.18-.73.28-.86.36-1.84.8-2.92,1.34-.21.1-.42.21-.63.31-.3.15-.61.31-.92.47-.36.18-.7.36-1.07.55-.5.26-1.01.53-1.52.81-.88.48-1.79.97-2.68,1.49-.24.13-.48.26-.72.4-1.11.62-2.23,1.25-3.3,1.88-.73.42-1.44.83-2.13,1.23-.04.02-.08.05-.12.07-.42.24-.82.48-1.23.71-.43.26-.86.51-1.26.75-4.05,2.37-7.88,4.61-10.79,6.12-2.3,1.2-4.84,2.51-6.76,2.04-.83-.21-1.56-.73-2.1-1.73-.37-.68-.72-1.31-.51-2.7,0-.07.02-.16.04-.25.12-.68.36-1.54.78-2.67.06-.16.12-.33.19-.5.72-1.87,1.89-4.42,3.68-7.94.16-.31.32-.63.5-.96.75-1.45,1.59-3.07,2.55-4.85.81-1.52,1.7-3.16,2.68-4.94.62-1.12,1.23-2.24,1.85-3.34,1.53,1.18,3.26,2.17,5.17,2.99-.88,1.57-1.73,3.11-2.54,4.6-.31.57-.61,1.12-.91,1.67-.36.67-.72,1.33-1.07,1.97-.5.93-.97,1.83-1.44,2.7-.27.51-.53,1.02-.79,1.52-1.23,2.35-2.27,4.44-3.09,6.18,2.91-1.55,6.63-3.74,9.71-5.55,1.31-.77,2.55-1.49,3.73-2.17,3.12-1.81,5.82-3.33,8.15-4.58.51-.28,1.01-.54,1.49-.79,2.22-1.17,4.08-2.06,5.65-2.69.21-.08.41-.17.62-.24.16-.07.32-.12.47-.17,1.09-.4,2.03-.65,2.84-.77.09-.02.18-.03.26-.04.31-.05.6-.06.87-.06.43,0,.81.05,1.18.13.34.08.65.21.95.36.14.07.28.16.41.25.1.07.2.14.28.22.12.1.23.21.34.32.14.14.27.3.39.46.07.11.15.23.22.36.07.14.15.28.22.42.13.29.23.6.3.93.02.07.03.16.05.24.03.16.06.33.08.52.02.1.03.21.05.32.03.22.06.46.08.71.06.49.1,1.04.16,1.65.02.18.04.36.05.56.05.58.09,1.2.14,1.87.03.42.06.86.08,1.32,0,.04,0,.07,0,.1.03.5.07,1.02.09,1.57.08,1.45.18,3.08.27,4.88.02.36.04.72.06,1.09.04.75.07,1.52.11,2.32.04.8.07,1.63.12,2.48.03.51.05,1.03.07,1.57.04.8.07,1.63.12,2.47.02.47.05.94.07,1.42.45,9.65,1.11,23.71,1.86,32.79.23-.73.47-1.51.72-2.31.24-.8.5-1.65.76-2.53.13-.44.26-.88.39-1.34.32-1.05.64-2.13.95-3.26.15-.51.3-1.03.45-1.55.15-.51.3-1.05.45-1.58,1.42-5,2.95-10.53,4.47-16.18.27-1.01.54-2.03.81-3.04.81-3.04,1.62-6.09,2.4-9.08.31-1.2.62-2.39.93-3.56.55-2.13,1.09-4.23,1.61-6.26.2-.76.38-1.51.57-2.24.29-1.16,1.17-1.99,2.26-2.14.33-.06.66-.04.98.04.73.18,1.4.66,1.84,1.38l1.86,2.97,40.18,64.38c-1.13-6.51-2.48-14.49-3.72-22.55-3.29-21.45-4.1-32-3.92-37.43,0-.31.02-.61.04-.89.07-1.12.18-1.98.33-2.67.04-.17.07-.33.11-.48.05-.17.09-.33.14-.48h0c.07-.22.16-.43.24-.6.03-.06.06-.11.07-.16.02-.04.05-.07.07-.11.02-.04.04-.07.07-.11.05-.07.09-.15.14-.22.03-.04.05-.07.07-.1.03-.04.07-.08.09-.12.08-.1.17-.2.25-.29,1.18-1.36,2.7-1.73,4.63-1.26.22.06.43.11.65.19.22.07.45.15.68.24,0,0,.02,0,.03,0,.2.07.4.17.62.26.11.06.23.11.36.17.17.07.33.16.51.25.48.24.98.53,1.51.85.22.13.44.27.66.41.34.22.67.45,1.03.69.25.17.51.35.77.53s.52.37.79.57c.99.73,2.04,1.55,3.15,2.45.23.19.47.38.71.58.96.79,1.96,1.63,3.01,2.53.44.37.88.76,1.34,1.15,1.71,1.48,3.53,3.09,5.45,4.8,4.14,3.68,9.53,8.47,12.38,10.32.09-1.47.07-3.61-.07-6.25,0-.23-.02-.48-.04-.72-.04-.75-.09-1.52-.15-2.35-.03-.34-.05-.67-.07-1.02-.19-2.45-.43-5.14-.72-8.01-.05-.47-.1-.94-.15-1.41-.15-1.4-.31-2.84-.48-4.3-.04-.29-.07-.59-.1-.88-.24-2.1-.51-4.26-.79-6.41-.08-.66-.17-1.34-.26-2-.12-.94-.24-1.88-.37-2.82-.04-.27-.07-.54-.11-.8-.08-.57-.16-1.13-.24-1.69-.11-.83-.23-1.66-.36-2.47-.17-1.13.22-2.24,1.01-2.92.12-.1.25-.2.38-.27.26-.15.54-.26.83-.31.19-.04.38-.05.58-.04.08,0,.16,0,.24.02.08,0,.18.03.26.05.18.05.36.11.53.19,0,0,.04.02.08.04.02,0,.05.03.08.04.2.09.56.27,1.08.51.07.04.16.07.24.11.04.02.07.04.11.06.2.09.42.2.65.3.03.02.06.03.08.04.31.15.65.31,1.03.48,2.42,1.12,6.01,2.77,10.33,4.7,3.98,1.78,8.57,3.8,13.42,5.87,2.49,1.07,5.04,2.14,7.62,3.21.54.22,1.08.44,1.6.65.22.09.42.18.64.26.73.3,1.44.59,2.14.88,4.22,1.7,7.93,3.13,11.21,4.35,2.27.84,4.33,1.58,6.19,2.22.6.21,1.18.4,1.74.59,1.2.39,2.3.75,3.32,1.07.51.16,1,.31,1.47.44.23.07.47.14.69.21s.45.13.66.19c1.09.31,2.05.56,2.91.77,3.1.75,4.85.93,5.85.91-.08-.2-.18-.39-.28-.6-.07-.15-.15-.3-.23-.45-.63-1.18-1.56-2.61-2.77-4.24-.22-.31-.46-.63-.7-.94-1.44-1.91-3.2-4.06-5.22-6.4-.24-.28-.49-.56-.73-.85-.25-.28-.5-.57-.76-.86-.07-.07-.13-.15-.21-.23-.23-.27-.47-.53-.71-.8-.05-.06-.1-.11-.15-.17h7.74c3.38,4,5.58,7.02,7.06,9.32,1.06,1.64,1.73,2.91,2.17,3.91.07.15.12.29.18.42.29.72.45,1.27.54,1.73.07.36.11.65.14.91.23,1.73-.33,3.3-1.53,4.31Z"/>
      <path class="cls-4" d="M662,178.22l.34,1.08h2.13c-.84-.36-1.66-.73-2.47-1.08ZM690.38,173.83l.19.55.06-.3c-.07-.08-.16-.17-.24-.25ZM639.68,174.43c.19-.04.38-.05.58-.04-.2-.02-.39,0-.58.04ZM632.19,176.49l.36-1.75c-.18.55-.3,1.17-.36,1.75ZM662,178.22l.34,1.08h2.13c-.84-.36-1.66-.73-2.47-1.08ZM662,178.22l.34,1.08h2.13c-.84-.36-1.66-.73-2.47-1.08Z"/>
      <path class="cls-4" d="M823.59,107.31l.13.13.14-.71-.27.58ZM724.42,100.05c0,.54-.02,1.08-.06,1.62l.74-1.61h-.68ZM710.4,186.93h-3.23s0,.03-.02.04h3.27s-.02-.03-.03-.04Z"/>
      <path class="cls-4" d="M823.59,107.31l.13.13.14-.71-.27.58ZM825.15,99.44c-.02.15-.04.3-.06.45h.51s-.45-.45-.45-.45ZM893.73,190.07c1.08-.58,2.13-1.21,3.14-1.88v-.94c-1.05.94-2.1,1.88-3.14,2.82Z"/>
      <path class="cls-4" d="M514.74,99.48h0l.06-.13-.07.13Z"/>
      <polygon class="cls-1" points="516.35 76.39 508 96.22 507.75 96.81 490.46 137.84 472.99 179.3 425.07 179.3 427.13 136.81 424.71 136.77 420.21 136.67 420.07 136.52 424.83 121.03 431.39 99.62 424.98 99.53 421.98 99.48 425.05 89.58 429.18 76.25 457.7 76.25 453.73 155.63 478.28 99.62 470.64 99.62 477.98 76.39 516.35 76.39"/>
      <g>
        <g>
          <path class="cls-2" d="M640.26,174.4c-.2,0-.39,0-.58.04.19-.04.38-.06.58-.04Z"/>
          <path class="cls-2" d="M710.43,186.97h-3.27s0-.03.02-.04h3.23s.02.03.03.04Z"/>
        </g>
        <path class="cls-4" d="M639.68,174.43c.19-.04.38-.05.58-.04-.2-.02-.39,0-.58.04ZM690.38,173.83l.19.55.06-.3c-.07-.08-.16-.17-.24-.25ZM662,178.22l.34,1.08h2.13c-.84-.36-1.66-.73-2.47-1.08ZM639.68,174.43c.19-.04.38-.05.58-.04-.2-.02-.39,0-.58.04ZM690.38,173.83l.19.55.06-.3c-.07-.08-.16-.17-.24-.25ZM662,178.22l.34,1.08h2.13c-.84-.36-1.66-.73-2.47-1.08ZM639.68,174.43c.19-.04.38-.05.58-.04-.2-.02-.39,0-.58.04ZM690.38,173.83l.19.55.06-.3c-.07-.08-.16-.17-.24-.25ZM662,178.22l.34,1.08h2.13c-.84-.36-1.66-.73-2.47-1.08ZM690.38,173.83l.19.55.06-.3c-.07-.08-.16-.17-.24-.25ZM690.38,173.83l.19.55.06-.3c-.07-.08-.16-.17-.24-.25ZM690.38,173.83l.19.55.06-.3c-.07-.08-.16-.17-.24-.25ZM662,178.22l.34,1.08h2.13c-.84-.36-1.66-.73-2.47-1.08ZM639.68,174.43c.19-.04.38-.05.58-.04-.2-.02-.39,0-.58.04ZM690.38,173.83l.19.55.06-.3c-.07-.08-.16-.17-.24-.25ZM662,178.22l.34,1.08h2.13c-.84-.36-1.66-.73-2.47-1.08ZM639.68,174.43c.19-.04.38-.05.58-.04-.2-.02-.39,0-.58.04ZM690.38,173.83l.19.55.06-.3c-.07-.08-.16-.17-.24-.25ZM662,178.22l.34,1.08h2.13c-.84-.36-1.66-.73-2.47-1.08ZM639.68,174.43c.19-.04.38-.05.58-.04-.2-.02-.39,0-.58.04ZM632.19,176.49l.36-1.75c-.18.55-.3,1.17-.36,1.75Z"/>
      </g>
      <g>
        <path class="cls-2" d="M290.09,76.54c-.36.22-.77.31-1.17.24-.24-.03-.47-.11-.67-.24h1.84Z"/>
        <path class="cls-4" d="M212.46,59.42s.07.03.09.04v-.04h-.09Z"/>
      </g>
      <g>
        <path class="cls-2" d="M150.81,195.47c1.95.3,3.98.5,6.11.59-2.04-.2-4.08-.39-6.11-.59ZM149.41,195.24s-.03.07-.04.09c.46.05.93.09,1.38.13-.45-.07-.91-.13-1.35-.22ZM130.63,167.29c.05.27.09.53.15.8l.06-.29c-.07-.17-.13-.34-.21-.51Z"/>
        <path class="cls-4" d="M149.41,195.24s-.03.07-.04.09c.46.05.93.09,1.38.13-.45-.07-.91-.13-1.35-.22ZM149.41,195.24s-.03.07-.04.09c.46.05.93.09,1.38.13-.45-.07-.91-.13-1.35-.22Z"/>
      </g>
      <g>
        <path class="cls-3" d="M31.37,99.71s-.03.07-.04.11v-.11h.04Z"/>
        <path class="cls-3" d="M57.35,67.68c-.8.41-1.6.82-2.4,1.23h-18.42c-2.9,0-5.55,1.68-6.77,4.31l-6.77,14.46c-2.92,2.62-5.84,5.23-8.76,7.84l11.57-18.78c-2.33-.75-4.65-1.49-6.98-2.24h0c-3.4-1.09-6.8-2.19-10.21-3.28,4.49-1.15,8.97-2.31,13.47-3.46h0c.32-.08.65-.17.96-.25l-.57-.4-12.47-8.81,18.2,3.43c1.03-6.08,2.07-12.16,3.1-18.24,1.74,5.36,3.49,10.72,5.22,16.07,4.41-2.95,8.8-5.89,13.21-8.85-1.21,2.96-2.41,5.9-3.62,8.85-.91,2.22-1.81,4.43-2.71,6.65,4.65.49,9.3.97,13.95,1.47Z"/>
      </g>
      <path class="cls-4" d="M893.73,190.07c1.08-.58,2.13-1.21,3.14-1.88v-.94c-1.05.94-2.1,1.88-3.14,2.82Z"/>
      <g>
        <path class="cls-1" d="M777.81,245.68l-4.49-15.17c3.29,3.37,6.58,6.74,9.88,10.11,1.96-5.71,3.92-11.41,5.87-17.12-.1,5.82-.19,11.65-.28,17.47,5.13-4.49,10.26-8.99,15.4-13.48l-10.45,16.54c5.06,1.69,10.12,3.38,15.19,5.07-4.28,1.05-8.55,2.1-12.84,3.14l11.47,8.3-16.11-3.23c-.97,5.38-1.95,10.76-2.93,16.15-1.49-4.77-2.98-9.54-4.47-14.31-3.93,2.57-7.86,5.14-11.8,7.72,1.93-4.56,3.85-9.12,5.77-13.69-4.12-.48-8.24-.96-12.35-1.44,4.05-2.02,8.1-4.05,12.15-6.07Z"/>
        <path class="cls-4" d="M812.56,249.25c.14-1.88-.86-3.56-2.44-4.1l-7.39-2.47-3.11-1.03,7.44-11.78c.33-.48.56-1.04.68-1.65.44-2.14-.65-4.19-2.47-4.71-.09-.03-.18-.06-.26-.07-.06-.02-.12-.03-.17-.04-.62-.09-1.22,0-1.78.22-.33.14-.65.34-.94.58-.04.03-.07.07-.11.09l-9.44,8.25v-.45s.15-8.75.15-8.75c.04-1.95-1.15-3.57-2.82-3.92-.04,0-.08,0-.12-.02-1.73-.29-3.47.87-4.13,2.76l-2.93,8.56-.94,2.73-1-1.02-4.93-5.05c-.49-.51-1.08-.82-1.7-.94-.93-.19-1.93.03-2.79.67-1.42,1.09-2.05,3.09-1.53,4.86l3.42,11.53-1.65.83-7.3,3.64c-1.53.78-2.48,2.58-2.29,4.42.17,1.73,1.3,3.08,2.81,3.39.08.02.18.04.27.04l6.06.71,1.39.16-.72,1.71-2.88,6.84c-.69,1.65-.39,3.55.75,4.72.49.5,1.09.81,1.71.94.84.18,1.75,0,2.55-.52l4.09-2.67,3.92-2.57,3.07,9.84c.42,1.33,1.43,2.26,2.64,2.51.34.07.7.09,1.07.04,1.64-.21,3.01-1.63,3.35-3.46l2.18-11.98,12.46,2.5c1.7.34,3.45-.74,4.16-2.59.71-1.84.18-3.92-1.25-4.97l-4.09-2.96,3.97-.96c1.65-.41,2.9-2.01,3.04-3.89ZM796.08,252.25l11.47,8.31-16.11-3.23c-.97,5.38-1.96,10.77-2.94,16.15-1.49-4.77-2.97-9.54-4.46-14.31-3.93,2.57-7.87,5.14-11.8,7.73,1.92-4.56,3.84-9.13,5.77-13.69-4.13-.48-8.24-.95-12.36-1.44,4.05-2.02,8.09-4.05,12.15-6.07l-4.49-15.17c3.28,3.38,6.58,6.73,9.87,10.11,1.96-5.72,3.92-11.41,5.87-17.12-.09,5.83-.19,11.65-.28,17.47,5.14-4.49,10.26-8.99,15.4-13.48l-10.45,16.54c5.06,1.69,10.12,3.38,15.18,5.07-4.27,1.05-8.55,2.1-12.83,3.14Z"/>
      </g>
      <g>
        <path class="cls-2" d="M825.6,99.9h-.51c.02-.16.04-.31.06-.46l.45.46Z"/>
        <g>
          <path class="cls-4" d="M823.59,107.31l.13.13.14-.71-.27.58ZM825.15,99.44c-.02.15-.04.3-.06.45h.51s-.45-.45-.45-.45Z"/>
          <path class="cls-4" d="M936.3,169.86c-.28-2.57-1.97-4.55-4.2-4.98-.14-.03-.28-.05-.41-.06l-8.98-.94-2.08-.22,1.04-2.53,4.15-10.19c1-2.43.51-5.26-1.19-6.97-.73-.73-1.62-1.19-2.55-1.38-1.22-.23-2.53,0-3.69.77l8.02-40.18c3.1-15.63-1.6-25.42-6.09-30.89-6.86-8.35-17.69-12.59-32.19-12.59h-59.83c-.21,0-.42,0-.63,0l2.76-3.07,9.87-10.99c.63-.69,1.25-1.39,1.89-2.1.63-.69,1.25-1.39,1.88-2.1,2.05-2.27,2.27-5.65.54-8.18-1.26-1.85-3.33-2.89-5.47-2.89-.79,0-1.58.14-2.35.43l-2.03.77-2.01.77c-3.26,1.23-6.53,2.47-9.79,3.7.51-3.59,1.02-7.18,1.53-10.79l.04-.27c.29-2.04.58-4.07.87-6.09l1.62-11.35c.44-3.13-1.38-6.15-4.37-7.19-.72-.25-1.47-.37-2.2-.37-2.29,0-4.48,1.19-5.71,3.26l-6.92,11.67c-.05.07-.09.16-.14.23-.64,1.07-1.26,2.12-1.89,3.18-.64,1.08-1.27,2.15-1.91,3.23l-2.62,4.42-2.47,4.16c-.06.08-.1.16-.15.24-.19.32-.37.64-.57.95l-4.39-3.63c-.07-.06-.12-.1-.19-.15l-7.98-6.59-8.16-6.74c-1.23-1.01-2.72-1.52-4.23-1.52-1.36,0-2.72.41-3.88,1.25-2.44,1.77-3.39,4.96-2.3,7.77l1.04,2.65,1.02,2.63c.03.07.06.14.08.22l2.92,7.48c3.26,8.37,6.52,16.76,9.79,25.13h-55.38c-6.33,0-12.1,3.55-14.99,9.14-7.07-6.04-16.68-9.44-27.95-9.44h-59.83c-2.03,0-4.01.36-5.85,1.05-1.95-.78-4.05-1.19-6.2-1.19h-86.14c-1.66,0-3.27.24-4.81.7h0c-1.39-.36-2.83-.56-4.3-.56h-38.37c-3.71,0-7.21,1.22-10.05,3.33-2.92-2.24-6.51-3.47-10.23-3.47h-28.52c-3.93,0-7.61,1.36-10.53,3.7-2.95-2.29-6.59-3.56-10.35-3.56h-60.28c-2.12,0-4.18.4-6.08,1.14-1.8-.65-3.71-.99-5.68-.99h-27.88c2.52-4.2,3.26-6.87,1.64-10.02-1.1-2.11-3.05-3.49-5.34-3.82-2.56-.36-4.86.61-6.73,1.38-2.03.84-4.71,2.12-7.09,3.25l-.06.03c-1.54.73-3.41,1.62-5.26,2.45.02-.98.05-1.95.07-2.79l.02-.83.02-.81c.28-10.17.36-15.5.29-19.03-.08-4.69-.34-7.93-2.9-10.2-1.02-.91-2.31-1.51-3.69-1.7-.69-.1-1.39-.09-2.09.02-4,.63-5.57,3.42-8.43,10.14-1.19,2.76-2.68,6.46-4.56,11.31-.46,1.2-.91,2.36-1.33,3.47l-8.83-14.78-1.27-2.12h0l-9.49-15.88c-1.08-1.81-2.9-3.01-4.99-3.31-1.09-.15-2.21-.04-3.25.32-3.11,1.06-5.05,4.21-4.59,7.49.73,5.66,1.39,11.54,1.91,16.96l.33,3.45c.34,3.76.58,7.2.74,10.14-.07-.07-.15-.13-.22-.2l-.76-.67c-.38-.35-.76-.67-1.1-.98-5.98-5.33-8.99-8.03-12.59-8.53-2.4-.35-4.66.43-6.37,2.18-2.1,2.11-2.79,4.87-2.87,11.31,0,2.13.04,4.51.13,7.07,0,.11,0,.22.02.35-1.67-.75-3.36-1.5-5.04-2.23-1.8-.79-3.81-1.64-5.95-2.54-11.3-4.72-19.02-7.33-23.58-7.98-4.08-.58-6.12.36-7.58,1.35-2.27,1.52-3.55,4.09-3.4,6.87,0,.34.05.63.07.87v.1s.03.11.03.11c.27,1.69,1.04,3.84,3.69,7.52h-14.43c-2.17,0-4.27.42-6.22,1.19-1.84-.69-3.82-1.05-5.84-1.05h-27.05c-5.85,0-11.27,3.03-14.34,8.02l-15.71,25.51-3.84-19.89c-1.52-7.91-8.47-13.64-16.53-13.64h-13.44l2.89-7.08c.76-1.85.38-4-.92-5.3-.55-.56-1.23-.91-1.94-1.05-.95-.19-1.97.02-2.87.62l-4.56,3.07-4.4,2.95-3.58-11.05c-.5-1.51-1.65-2.53-3-2.81-.38-.07-.8-.08-1.21-.03-1.84.26-3.38,1.88-3.73,3.95l-2.3,13.54-14.08-2.66c-1.93-.36-3.89.88-4.66,2.97-.78,2.09-.16,4.42,1.48,5.58l4.64,3.27-4.45,1.14c-1.85.49-3.25,2.3-3.39,4.42-.13,2.12,1.03,4.01,2.81,4.58l8.36,2.69,1.16.37-6.43,13.72c-2.42,5.17-2.06,11.22.97,16.06.24.39.51.77.78,1.13l-9.16,19.98c-2.36,5.15-1.96,11.15,1.05,15.96.55.89,1.19,1.71,1.88,2.47L.33,175.99c-.99,4.95.28,10.07,3.48,13.98,3.2,3.9,7.98,6.16,13.02,6.16h27.64c3.06,0,5.95-.82,8.46-2.27,2.5,1.45,5.4,2.27,8.45,2.27h12.5c3.53,0,6.9-1.1,9.7-3.08,2.82,1.98,6.19,3.08,9.7,3.08h.44c-2.26.94-3.81,3.14-3.87,5.67-.08,2.89,1.81,5.47,4.59,6.27l7.51,2.14c3.67,1.04,7.32,2.09,10.99,3.13l-.05.07c-.07.08-.12.18-.18.26l-11.73,18.01c-1.71,2.62-1.25,6.09,1.08,8.18.92.82,2.01,1.33,3.14,1.52,1.77.31,3.64-.13,5.11-1.34l5.15-4.23,4.94-4.05c.07-.05.13-.1.19-.15,1.8-1.47,3.58-2.94,5.37-4.4l.48,12.29c.02.3.03.62.04.94.02.3.03.6.04.89.11,3,2.31,5.51,5.25,6.02.07,0,.13.02.2.03,3.04.43,5.96-1.38,6.91-4.29l4.33-13.2,1.38-4.19c.61.51,1.21,1.04,1.81,1.55,3,2.57,6.01,5.14,9,7.71.89.77,1.95,1.24,3.04,1.43,1.63.28,3.34-.07,4.76-1.08,2.37-1.69,3.28-4.77,2.23-7.48l-6.94-17.71,4.84-2.24,10.27-4.74c2.59-1.2,4.07-3.99,3.59-6.81,0-.07-.03-.14-.05-.22h36.4c.21,0,.42,0,.63,0h39.62c.1,0,.22,0,.32,0h27.64c6.68,0,12.59-3.93,15.28-9.78.32.69.69,1.37,1.1,2.01,3.1,4.85,8.45,7.77,14.19,7.77h95.25c3.21,0,6.2-.89,8.76-2.45,2.61,1.59,5.63,2.45,8.75,2.45h47.92c6.77,0,12.89-4.06,15.52-10.3l5.65-13.4c1.36,4.83,3.57,8.47,5.74,11.1.62.76,1.27,1.48,1.96,2.17-9.76,18.05-10.16,21.46-7.72,25.92,1.58,2.86,3.86,3.94,5.52,4.33,3.85.94,7.51-.95,10.44-2.48,3.05-1.58,6.92-3.84,11.02-6.25,3.15-1.84,8.4-4.92,12.74-7.22.23,4.2.47,9.33.71,14.34.95,20.43,1.59,30.77,2.24,36.92.7,6.4,1.51,9.87,4.23,12.24,1.04.91,2.26,1.55,3.57,1.87,1.2.29,2.4.31,3.6.05,3.86-.83,5.56-3.4,7.32-7.82,1.88-4.71,4.62-13.76,8.9-29.37,1.2-4.39,2.38-8.77,3.45-12.82l39.86,63.84c1.18,1.89,2.99,3.21,5.09,3.72,1.69.4,3.42.25,5-.43,3.55-1.53,5.5-5.38,4.75-9.33-5.17-27.24-8.62-50.84-9.78-63.61,3.46,2.88,7.19,6.19,9.18,7.96,9.09,8.07,14.12,12.52,18.76,13.64,3.55.86,6.88-.28,9.1-3.14,2.37-3.04,3.74-6.79,1.22-30.16-.23-2.23-.5-4.45-.75-6.56.15.07.31.13.46.21h0c3.11,1.38,6.59,2.93,10.29,4.53,3.91,1.69,8.05,3.45,12.23,5.16,14.66,6.03,25.44,9.85,32.97,11.66,9.41,2.27,13.14,1.19,16.11-1.28,2.58-2.16,3.85-5.56,3.4-9.08-.04-.26-.1-.74-.22-1.33-.27-1.26-.79-2.82-1.92-4.94h42.02c15.38,0,27.8-4.9,36.28-13.94.3.42.61.81.92,1.19,6.87,8.36,17.7,12.6,32.19,12.6h32.49c2.6,0,5.12-.14,7.55-.42l-5.1,8.29c-.47.71-.8,1.54-.98,2.45-.62,3.17,1.05,6.19,3.74,6.94.13.04.26.07.38.09.08.02.18.04.26.05.9.12,1.8-.02,2.62-.36.48-.22.95-.51,1.39-.87.06-.05.11-.1.16-.15l13.83-12.38v.68l-.06,12.94c-.02,2.88,1.76,5.28,4.25,5.76.06,0,.12.02.18.03,2.57.39,5.13-1.36,6.06-4.16l4.19-12.72,1.35-4.05,1.49,1.49,7.39,7.4c.73.73,1.62,1.2,2.53,1.37,1.38.26,2.86-.08,4.11-1.05,2.1-1.64,2.99-4.61,2.19-7.22l-5.26-17.02,2.43-1.25,10.73-5.52c2.26-1.17,3.64-3.86,3.32-6.58ZM212.55,59.42v.04s-.07-.03-.09-.04h.09ZM170.51,48.24c.54-.37,1.29-.88,3.94-.51,3.33.47,9.64,2.34,22.3,7.62,2,.84,3.98,1.68,5.89,2.53,1.21.52,2.38,1.04,3.5,1.53,1.86.82,3.6,1.61,5.14,2.31,1.62.74,3.02,1.38,4.13,1.9-.07-1.18-.18-2.63-.26-4.21-.04-.67-.07-1.37-.11-2.08-.05-.83-.09-1.69-.12-2.54-.11-2.78-.14-5.01-.12-6.8.07-6.4.82-7.18,1.38-7.74.56-.58,1.19-.8,1.95-.69,2.04.29,5,2.93,9.89,7.3.57.51,1.19,1.07,1.85,1.65,3.11,2.76,7.01,6.06,8.69,6.62.28-1.06.37-3.28.31-6.31-.1-4.57-.55-11.01-1.23-18.07h0c-.52-5.54-1.2-11.47-1.94-17.18-.11-.82.37-1.62,1.16-1.88.27-.09.55-.12.82-.08.51.07.97.37,1.25.84l10.76,18h0l13.85,23.19.5.82c.25-.69.54-1.48.86-2.34,1.17-3.12,2.68-7.15,4.24-11.15,1.92-4.96,3.37-8.54,4.49-11.15,2.9-6.8,3.56-6.9,4.47-7.05.19-.03.36-.03.54,0,.37.05.71.21.99.46.68.6,1.07,1.69,1.15,6.41.07,3.63-.03,9.41-.29,18.79,0,.54-.03,1.09-.04,1.64-.1,3.59-.19,7.09-.21,9.34v.32c0,.34,0,.65.02.92.69-.15,1.66-.48,2.78-.92.17-.07.35-.13.52-.21,2.95-1.2,6.8-3.02,9.53-4.31,2.58-1.23,5.01-2.38,6.88-3.15,1.37-.57,2.84-1.19,3.98-1.03.61.08,1.11.39,1.46,1.05.46.89.8,1.58-3.17,7.65-.08.14-.18.28-.27.42-.97,1.48-2.2,3.26-3.71,5.43-.84,1.2-1.69,2.39-2.51,3.51h-4.33c2.36-3.22,4.59-6.38,6.42-9.06h0c.07-.09.13-.2.2-.29,1.09-1.62,2.02-3.05,2.73-4.21-1.85.8-4.23,1.93-6.18,2.85-1.01.49-1.97.94-2.86,1.36-.05.02-.09.05-.14.07h-.02c-7.29,3.4-10.67,4.68-12.62,4.41-.34-.05-.64-.15-.91-.29-.64-.34-1.08-.94-1.19-1.67-.06-.47-.1-1.3-.11-2.52v-.44c0-2.1.07-5.2.2-9.34,0-.52.03-1.07.04-1.62.15-5.34.36-13.12.31-18.16-2.03,4.66-5.01,12.31-7.81,19.73-1.21,3.2-2.39,6.36-3.42,9.22-.08.22-.21.43-.37.6-.28.3-.67.51-1.1.54-.14,0-.27,0-.4,0-.39-.06-.76-.24-1.03-.53-.08-.08-.17-.19-.23-.3l-.03-.05-1.27-2.14-4.23-7.07-11.72-19.61-5.53-9.24c.32,2.76.66,6,.99,9.35.1,1.06.2,2.12.3,3.19.62,6.82.89,11.66.94,15.11.1,7.6-.83,8.46-1.48,9.05-.09.08-.19.16-.26.22-.62.44-1.32.59-2.13.48-.56-.07-1.17-.28-1.84-.61h0c-2.66-1.27-6.22-4.37-10.96-8.61-.42-.37-.86-.76-1.3-1.16-2.11-1.87-4.45-3.91-5.83-4.8-.15,1.01-.24,2.61-.25,4.59-.02,2.6.07,5.88.24,9.34.03.65.07,1.3.11,1.95.12,2.31.29,4.66.48,6.91.05.63-.24,1.23-.75,1.59-.37.25-.81.36-1.24.29-.17-.02-.35-.07-.51-.15-.05-.03-2.97-1.4-7.31-3.38-2.51-1.13-5.48-2.46-8.65-3.84-1.09-.48-2.21-.95-3.34-1.43-.43-.19-.86-.36-1.3-.55-13.73-5.77-19.57-7.31-22.02-7.65-.4-.06-.71-.08-.95-.09.65,1.68,2.87,4.65,6.04,8.3,2.42,2.81,5.41,6.01,8.69,9.35h-4.86c-3.75-3.91-6.45-6.96-8.4-9.35-4.18-5.12-4.94-7.26-5.11-8.33-.03-.21-.05-.36-.05-.51-.07-.95.35-1.82,1.13-2.35ZM14.23,95.52l11.57-18.78c-2.33-.75-4.65-1.49-6.98-2.24h0c-3.4-1.09-6.8-2.19-10.21-3.28,4.49-1.15,8.97-2.31,13.47-3.46h0c.32-.08.65-.17.96-.25l-.57-.4-12.47-8.81,18.2,3.43c1.03-6.08,2.07-12.16,3.1-18.24,1.74,5.36,3.49,10.72,5.22,16.07,4.41-2.95,8.8-5.89,13.21-8.85-1.21,2.96-2.41,5.9-3.62,8.85-.91,2.22-1.81,4.43-2.71,6.65,4.65.49,9.3.97,13.95,1.47-.8.41-1.6.82-2.4,1.23h-18.42c-2.9,0-5.55,1.68-6.77,4.31l-6.77,14.46c-2.92,2.62-5.84,5.23-8.76,7.84ZM93.27,179.3l8.53-42.49-27.93,42.49h-12.5l-9.7-36.16-7.2,36.16h-27.64l8.53-42.49-7.05-.14,15.08-32.93,1.82-3.98-3.84-.06s-.03.07-.04.11v-.11l-4.13-.07-1.55-.03,1.57-3.35,4.16-8.9v-.02l5.14-10.96h27.49l12.06,62.34,38.36-62.34h27.05l-2.86,14.31-2.44,12.22h0s-4.87,24.37-4.87,24.37v.02s-2.56,12.78-2.56,12.78l-3.97,19.86-2.52,12.58-1.36,6.77h-27.64ZM150.39,206.89l9.13,23.26c-6.01-5.14-12-10.28-18.01-15.42-2.89,8.79-5.78,17.59-8.67,26.38-.02-.62-.05-1.23-.07-1.84-.34-8.34-.66-16.68-.99-25.02-2.96,2.42-5.91,4.85-8.87,7.27-2.11,1.73-4.23,3.47-6.34,5.2h0c-3.43,2.81-6.86,5.62-10.29,8.43l11.82-18.13v-.02s0,0,0,0h0s4.81-7.39,4.81-7.39c-.06-.02-.11-.04-.17-.05-.55-.16-1.09-.32-1.64-.47-.54-.16-1.09-.31-1.63-.46-7.77-2.23-15.55-4.44-23.33-6.66,7.32-1.66,14.65-3.32,21.97-4.98l-1.4-.86-15.26-9.35-3.95-2.42,14.31,2.42,9.23,1.56,4.65.8c.23-1.6.48-3.2.71-4.8.11-.79.23-1.58.35-2.37.87-5.9,1.74-11.8,2.61-17.7.06.12.1.23.15.36.36.89.73,1.77,1.09,2.66.07.17.14.34.21.51,1.22,2.96,2.43,5.9,3.64,8.86.03.07.05.12.07.19.39.97.8,1.95,1.19,2.91.5,1.22,1,2.43,1.5,3.65.39.94.78,1.89,1.17,2.83,1.5-.91,2.99-1.81,4.49-2.73,2.93,1.39,6.34,2.35,10.22,2.85-1.23,2.97-2.47,5.92-3.7,8.89.44.09.9.16,1.35.22,0,0,.03,0,.05,0,2.03.2,4.07.39,6.11.59h.06c4.65.45,9.31.9,13.96,1.35-6.85,3.16-13.69,6.32-20.54,9.49ZM229.4,99.77h-52.04l-1.47,7.39-3.53,17.74,3.53-7.71.44-.96h32.49l-9.7,20.44h-29.11l-1.91,9.4c-.97,4.88,1.62,9.23,7.79,9.66.34.03.67.04,1.03.04h46.89l-10.29,23.53h-53.36c-.22,0-.45,0-.66,0-1.17,0-2.3-.06-3.38-.14-1.76-.14-3.4-.37-4.91-.7-1.48-.32-2.82-.73-4.06-1.23-1.2-.49-2.28-1.07-3.26-1.73-1.77-1.2-3.16-2.68-4.15-4.46-2.15-3.76-2.59-8.78-1.34-15.1l3.83-19.11-5.15-.22-1.76-.07,3.15-6.88,13.76-30.03-7.74-.11-1.67-.03,2.97-6.43,7.76-16.8h86.14l-7.5,17.15-2.79,6.37ZM297.61,99.92l-15.87,79.38h-27.64l8.53-42.49-6.91-.14,16.19-35.35.71-1.55-.29.15h-23.38l-1.23-.02-8.32-.13,2.98-6.37,7.89-16.86h85.99l-10.73,23.38h-27.93ZM408.23,86.97l-.16,21.99-.07,9.49-.22,29.58-.22,31.27h-95.25l11.76-25.43-3.97-.15,24.69-54.09h-7.64l10.87-23.23h60.28l-.07,10.58ZM619.72,99.73l-6.92-.11,10.87-23.23h59.83c9.9,0,16.47,3.62,20.22,9.09,8.11,11.82,2.98,32.3-10.37,43.45-4.29,3.6-9.45,6.23-15.28,7.29l4.71,14.41h0l3.55,10.84h0s4.04,12.36,4.04,12.36c.08.08.17.17.24.25l-.06.3,1.61,4.92h-29.84l-.34-1.08-18.19-58.31-11.25,54.81v.03s-.36,1.75-.36,1.75l-.04.19-.54,2.62h-27.63l.13-.65,6.26-31.2,2.13-10.64h-.15l-6.9-.14,16.9-36.9-2.63-.04ZM525.48,76.25h86.14l-10.29,23.52h-52.05l-5,25.13,3.97-8.67h32.49l-9.7,20.44h-29.1l-1.92,9.4c-1.03,5.14,1.92,9.7,8.82,9.7h46.89l-7.78,17.8-2.51,5.72h-53.36c-2.68,0-5.14-.18-7.33-.54-1.96-.33-3.74-.79-5.32-1.39-2.03-.79-3.74-1.81-5.14-3.07-1.48-1.33-2.61-2.93-3.38-4.79-1.49-3.55-1.67-8.08-.59-13.58l3.82-19.11-4.89-.21-2.01-.08,16.9-36.9-9.4-.14h0l.07-.13.03-.08,10.64-23.01ZM490.46,137.84l-17.47,41.46h-47.92l2.06-42.49-2.41-.05-4.5-.09-.14-.15,4.75-15.49,6.57-21.41-6.42-.09-2.99-.05,3.07-9.9,4.13-13.33h28.52l-3.98,79.38,24.55-56.01h-7.64l7.34-23.23h38.37l-8.35,19.82-.25.6-17.29,41.03ZM718.99,207.57c-1.09.92-2.75,2.3-11.46.2-6.28-1.52-16.2-4.84-32.21-11.42-.17-.07-.33-.14-.5-.21-.63-.25-1.24-.51-1.87-.78-.79-.33-1.57-.65-2.35-.98-1.99-.83-3.95-1.67-5.86-2.49-.88-.38-1.75-.76-2.6-1.13-.31-.13-.62-.26-.92-.39-.68-.3-1.35-.59-2.01-.88-.65-.3-1.31-.58-1.95-.86-.84-.36-1.66-.73-2.46-1.09-.51-.22-1.01-.45-1.5-.66-.36-.16-.72-.32-1.07-.48-.56-.25-1.1-.5-1.64-.73-2.64-1.2-4.93-2.24-6.75-3.08.11.83.23,1.75.36,2.72.07.5.13,1,.2,1.52.12.94.24,1.91.37,2.92.34,2.74.69,5.72,1.02,8.73,2.48,22.98.9,24.99-.13,26.32-.96,1.24-2.15,1.63-3.68,1.25-3.37-.81-8.42-5.29-16.49-12.45-5.64-5.01-14.83-13.16-18.24-14.26-1.23,7.16,4.02,42.81,10.11,74.87.27,1.48-.41,2.93-1.66,3.46-.53.23-1.09.27-1.65.14-.72-.17-1.38-.65-1.83-1.37l-46.39-74.29c-1.53,5.96-3.98,15.34-6.54,24.67-8.94,32.71-10.18,32.98-12.23,33.41-.4.08-.83.08-1.23-.02-.47-.11-.93-.35-1.33-.7-2.1-1.83-2.83-6.54-4.67-45.42-.04-.76-.07-1.52-.11-2.26-.02-.5-.04-.98-.07-1.47-.05-.97-.09-1.94-.14-2.89-.02-.54-.05-1.09-.07-1.61-.05-.89-.08-1.75-.13-2.59-.13-2.65-.26-5.08-.39-7.14-.06-.85-.1-1.65-.16-2.35,0-.17-.02-.33-.04-.49-.04-.47-.07-.89-.1-1.27-.29.08-.61.19-.95.32-.22.08-.47.18-.73.28-.86.36-1.84.8-2.92,1.34-.21.1-.42.21-.63.31-.3.15-.61.31-.92.47-.36.18-.7.36-1.07.55-.5.26-1.01.53-1.52.81-.88.48-1.79.97-2.68,1.49-.24.13-.48.26-.72.4-1.11.62-2.23,1.25-3.3,1.88-.73.42-1.44.83-2.13,1.23-.04.02-.08.05-.12.07-.42.24-.82.48-1.23.71-.43.26-.86.51-1.26.75-4.05,2.37-7.88,4.61-10.79,6.12-2.3,1.2-4.84,2.51-6.76,2.04-.83-.21-1.56-.73-2.1-1.73-.37-.68-.72-1.31-.51-2.7,0-.07.02-.16.04-.25.12-.68.36-1.54.78-2.67.06-.16.11-.32.19-.5.72-1.87,1.89-4.42,3.68-7.94.16-.31.32-.63.5-.96.75-1.45,1.59-3.07,2.55-4.85.81-1.52,1.7-3.16,2.68-4.94.62-1.12,1.23-2.24,1.85-3.34,1.53,1.18,3.26,2.17,5.17,2.99-.88,1.57-1.73,3.11-2.54,4.6-.31.57-.61,1.12-.91,1.67-.36.67-.72,1.33-1.07,1.97-.5.93-.97,1.83-1.44,2.7-.27.51-.53,1.02-.79,1.52-1.23,2.35-2.27,4.44-3.09,6.18,2.91-1.55,6.63-3.74,9.71-5.55,1.31-.77,2.55-1.49,3.73-2.17,3.12-1.81,5.82-3.33,8.15-4.58.51-.28,1.01-.54,1.49-.79,2.22-1.17,4.08-2.06,5.65-2.69.21-.08.41-.17.62-.24.16-.07.32-.12.47-.17,1.09-.4,2.03-.65,2.84-.77.09-.02.18-.03.26-.04.31-.05.6-.06.87-.06.43,0,.82.04,1.18.13.34.08.65.21.95.36.14.07.28.16.41.25.1.07.2.14.28.22.12.1.23.21.34.32.14.14.27.3.39.46.07.11.15.23.22.36.08.13.15.28.22.42.13.29.23.6.3.93.02.07.03.16.05.24.03.16.06.33.08.52.02.1.03.21.05.32.03.22.06.46.08.71.06.49.1,1.04.16,1.65.02.18.04.36.05.56.05.58.09,1.2.14,1.87.03.42.06.86.08,1.32,0,.04,0,.07,0,.1.03.5.07,1.02.09,1.57.08,1.45.18,3.08.27,4.88.02.36.04.72.06,1.09.04.75.07,1.52.11,2.32.05.8.08,1.63.12,2.48.03.51.05,1.03.07,1.57.05.8.08,1.62.12,2.47.02.47.05.94.07,1.42.45,9.65,1.11,23.71,1.86,32.79.23-.73.47-1.51.72-2.31.24-.8.5-1.65.76-2.53.13-.44.26-.88.39-1.34.32-1.05.64-2.13.95-3.26.15-.51.3-1.03.45-1.55.15-.51.3-1.05.45-1.58,1.42-5,2.95-10.53,4.47-16.18.27-1.01.54-2.03.81-3.04.81-3.04,1.62-6.09,2.4-9.08.31-1.2.62-2.39.93-3.56.55-2.13,1.09-4.23,1.61-6.26.2-.76.38-1.51.57-2.24.29-1.16,1.17-1.99,2.26-2.14.33-.06.66-.04.98.04.73.18,1.4.66,1.84,1.38l1.86,2.97,40.18,64.38c-1.13-6.51-2.48-14.49-3.72-22.55-3.29-21.45-4.1-32-3.92-37.43,0-.31.02-.61.04-.89.07-1.12.18-1.98.33-2.67.04-.17.07-.33.11-.48.05-.17.09-.33.14-.48h0c.07-.22.16-.43.24-.6.03-.06.06-.11.07-.16.02-.04.05-.07.07-.11.02-.04.04-.07.07-.11.05-.07.09-.15.14-.22.03-.04.05-.07.07-.1.03-.04.07-.08.09-.12.08-.1.17-.2.25-.29,1.18-1.36,2.7-1.73,4.63-1.26.22.06.43.11.65.19.22.07.45.15.68.24,0,0,.02,0,.03,0,.2.07.4.17.62.26.11.06.23.11.36.17.17.07.33.16.51.25.48.24.98.53,1.51.85.22.13.44.27.66.41.34.22.67.45,1.03.69.25.17.51.35.77.53s.52.37.79.57c.99.73,2.04,1.55,3.15,2.45.23.18.47.37.71.58.96.79,1.96,1.63,3.01,2.53.44.37.88.76,1.34,1.15,1.71,1.48,3.53,3.09,5.45,4.8,4.14,3.68,9.53,8.47,12.38,10.32.09-1.47.07-3.61-.07-6.25,0-.23-.02-.48-.04-.72-.04-.75-.09-1.52-.15-2.35-.03-.34-.05-.67-.07-1.02-.19-2.45-.43-5.14-.72-8.01-.05-.47-.1-.94-.15-1.41-.15-1.4-.31-2.84-.48-4.3-.04-.29-.07-.59-.1-.88-.24-2.1-.51-4.26-.79-6.41-.08-.66-.17-1.34-.26-2-.12-.94-.24-1.88-.37-2.82-.04-.27-.07-.54-.11-.8-.08-.57-.16-1.13-.24-1.69-.11-.83-.23-1.66-.36-2.47-.17-1.13.22-2.24,1.01-2.92.12-.1.25-.2.38-.27.26-.15.54-.26.83-.31.19-.04.38-.06.58-.04.08,0,.16,0,.24.02.08,0,.18.03.26.05.18.05.36.11.53.19,0,0,.04.02.08.04.02,0,.05.03.08.04.2.09.56.27,1.08.51.07.04.16.07.24.11.04.02.07.04.11.06.2.09.42.2.65.3.03.02.06.03.08.04.31.15.65.31,1.03.48,2.42,1.12,6.01,2.77,10.33,4.7,3.98,1.78,8.57,3.8,13.42,5.87,2.49,1.07,5.04,2.14,7.62,3.21.54.22,1.08.44,1.6.65.22.09.42.18.64.26.73.3,1.44.59,2.14.88,4.22,1.7,7.93,3.13,11.21,4.35,2.27.84,4.33,1.58,6.19,2.22.6.21,1.18.4,1.74.59,1.2.39,2.3.75,3.32,1.07.51.16,1,.31,1.47.44.23.07.47.14.69.21s.45.13.66.19c1.09.31,2.05.56,2.91.77,3.1.75,4.85.93,5.85.91-.08-.2-.18-.39-.28-.6-.07-.15-.15-.3-.23-.45-.63-1.18-1.56-2.61-2.77-4.24-.22-.31-.46-.63-.7-.94-1.44-1.91-3.2-4.06-5.22-6.4-.24-.28-.49-.56-.73-.85-.25-.28-.5-.57-.76-.86-.07-.07-.13-.15-.21-.23-.23-.27-.47-.53-.71-.8-.05-.06-.1-.11-.15-.17h4.46s0-.03.02-.04h3.23s.02.03.03.04c3.38,4,5.58,7.02,7.06,9.32,1.06,1.64,1.73,2.91,2.17,3.91.07.15.12.29.18.42.29.72.45,1.27.54,1.73.07.36.11.65.14.91.23,1.73-.33,3.3-1.53,4.31ZM776.92,102.83c-1.19-1.35-3.01-2.3-5.76-2.54-.48-.06-.98-.07-1.52-.07l-19.26-.15-5,25.14,3.82-8.68h58.95l-6.17,13.68-5.14,25.87c-.27,1.32-.6,2.59-.98,3.8-4.05,13.05-14.04,19.58-30.19,19.58h-58.94l.77-3.84.45-2.24h0s5.84-29.34,5.84-29.34h27.49l-2.36,11.76h19.41c7.93,0,11.76-6.31,13.52-11.9l1.48-7.2-.15.29h-64.97l16.16-35.28h0c.04-.55.06-1.09.06-1.63l-8.87-.13,6.78-14.48,4.1-8.75h59.83c3.85,0,7.21.37,10.07,1.12,1.28.33,2.47.74,3.55,1.23.36.16.72.34,1.06.51,2.22,1.17,3.96,2.69,5.21,4.57.37.54.7,1.12.99,1.73.86,1.81,1.37,3.9,1.51,6.26.15,2.37-.07,5.01-.65,7.94l-2.35,11.91h-26.9c.36-3.11.28-6.74-1.83-9.14ZM786.25,69.21h-.59l3.19-9.31.04-.12c-4.56-11.71-9.13-23.43-13.68-35.15h0c-.68-1.76-1.38-3.53-2.06-5.29,5.43,4.5,10.88,9,16.31,13.49h0c3.45,2.86,6.91,5.72,10.37,8.57,1.51-2.54,3.01-5.08,4.52-7.62h0c1.74-2.95,3.49-5.88,5.23-8.83,1.26-2.13,2.53-4.27,3.79-6.4h0c2.36-3.98,4.71-7.94,7.06-11.92l-1.61,11.34c-.3,2.03-.59,4.06-.87,6.09-1.06,7.39-2.11,14.77-3.16,22.16,6.76-2.55,13.53-5.11,20.29-7.66,1.35-.51,2.7-1.02,4.05-1.53-1.26,1.4-2.53,2.81-3.78,4.2-6.58,7.31-13.13,14.62-19.71,21.94l.6,1.63,3.4,9.26h0s.67,1.84.67,1.84l-5.01,10.7c-.8-3.1-2.17-5.83-4.12-8.2-.49-.6-1.01-1.17-1.57-1.7-5.12-4.97-12.96-7.47-23.39-7.47ZM867.54,179.3h-32.49c-14.98,0-22.42-5.61-22.44-16.85,0-2,.22-4.17.69-6.53l3.82-19.11-.15.15-6.9-.15,13.52-29.5.27-.58v-.02l1.21-2.62,1.48-3.23.43-.94-1.38-.02h-.51s-4.23-.07-4.23-.07l-3.44-.06,1.09-2.34,1.5-3.2,3.97-8.47h0s.5-1.07.5-1.07h0s1.48-3.16,1.48-3.16l1.97-4.22.36-.78h59.83c17.64,0,24.84,7.79,21.76,23.38l-7.61,38.2-2.24,11.19-1.32,6.61c-2.53,12.82-10.06,20.36-22.46,22.64-2.68.5-5.57.74-8.71.74ZM913.04,180.1l6.9,22.38c-4.93-4.94-9.86-9.86-14.79-14.8-2.81,8.48-5.6,16.96-8.41,25.44.05-8.32.08-16.62.12-24.94-1.01.67-2.07,1.3-3.14,1.88,0,0,0,0-.02,0-6.46,5.8-12.94,11.6-19.41,17.39l8.04-13.03,7.17-11.63c-.44-.14-.89-.28-1.33-.43,9.01-4.55,15.05-12.54,17.58-23.59,3.68-2.46,7.35-4.93,11.04-7.4,1.38-.93,2.76-1.85,4.13-2.78-2.77,6.79-5.55,13.57-8.31,20.36,6.1.64,12.21,1.27,18.32,1.93-5.96,3.07-11.92,6.13-17.88,9.2Z"/>
          <path class="cls-2" d="M302.24,59.71c-.08.14-.18.28-.27.42-.97,1.48-2.2,3.26-3.71,5.43-.84,1.2-1.69,2.39-2.51,3.51h-4.33c2.36-3.22,4.59-6.38,6.42-9.06h0c.07-.09.13-.2.2-.29,1.09-1.62,2.02-3.05,2.73-4.21-1.85.8-4.23,1.93-6.18,2.85-1.01.49-1.97.94-2.86,1.36-.05.02-.09.05-.14.07h-.02c-7.29,3.4-10.67,4.68-12.62,4.41-.34-.05-.64-.15-.91-.29-.64-.34-1.08-.94-1.19-1.67-.06-.47-.1-1.3-.11-2.52v-.44c0-2.1.07-5.2.2-9.34,0-.52.03-1.07.04-1.62.15-5.34.36-13.12.31-18.16-2.03,4.66-5.01,12.31-7.81,19.73-1.21,3.2-2.39,6.36-3.42,9.22-.08.22-.21.43-.37.6-.28.3-.67.51-1.1.54-.14,0-.27,0-.4,0-.39-.06-.76-.24-1.03-.53-.08-.08-.17-.19-.23-.3l-.03-.05-1.27-2.14-4.23-7.07-11.72-19.61-5.53-9.24c.32,2.76.66,6,.99,9.35.1,1.06.2,2.12.3,3.19.62,6.82.89,11.66.94,15.11.1,7.6-.83,8.46-1.48,9.05-.09.08-.19.16-.26.22-.62.44-1.32.59-2.13.48-.56-.07-1.17-.28-1.84-.61h0c-2.66-1.27-6.22-4.37-10.96-8.61-.42-.37-.86-.76-1.3-1.16-2.11-1.87-4.45-3.91-5.83-4.8-.15,1.01-.24,2.61-.25,4.59-.02,2.6.07,5.88.24,9.34.03.65.07,1.3.11,1.95.12,2.31.29,4.66.48,6.91.05.63-.24,1.23-.75,1.59-.37.25-.81.36-1.24.29-.17-.02-.35-.07-.51-.15-.05-.03-2.97-1.4-7.31-3.38-2.51-1.13-5.48-2.46-8.65-3.84-1.09-.48-2.21-.95-3.34-1.43-.43-.19-.86-.36-1.3-.55-13.73-5.77-19.57-7.31-22.02-7.65-.4-.06-.71-.08-.95-.09.65,1.68,2.87,4.65,6.04,8.3,2.42,2.81,5.41,6.01,8.69,9.35h-4.86c-3.75-3.91-6.45-6.96-8.4-9.35-4.18-5.12-4.94-7.26-5.11-8.33-.03-.21-.05-.36-.05-.51-.07-.95.35-1.82,1.13-2.35.54-.37,1.29-.88,3.94-.51,3.33.47,9.64,2.34,22.3,7.62,2,.84,3.98,1.68,5.89,2.53,1.21.52,2.38,1.04,3.5,1.53,1.86.82,3.6,1.61,5.14,2.31,1.62.74,3.02,1.38,4.13,1.9-.07-1.18-.18-2.63-.26-4.21-.04-.67-.07-1.37-.11-2.08-.05-.83-.09-1.69-.12-2.54-.11-2.78-.14-5.01-.12-6.8.07-6.4.82-7.18,1.38-7.74.56-.58,1.19-.8,1.95-.69,2.04.29,5,2.93,9.89,7.3.57.51,1.19,1.07,1.85,1.65,3.11,2.76,7.01,6.06,8.69,6.62.28-1.06.37-3.28.31-6.31-.1-4.57-.55-11.01-1.23-18.07h0c-.52-5.54-1.2-11.47-1.94-17.18-.11-.82.37-1.62,1.16-1.88.27-.09.55-.12.82-.08.51.07.97.37,1.25.84l10.76,18h0l13.85,23.19.5.82c.25-.69.54-1.48.86-2.34,1.17-3.12,2.68-7.15,4.24-11.15,1.92-4.96,3.37-8.54,4.49-11.15,2.9-6.8,3.56-6.9,4.47-7.05.19-.03.36-.03.54,0,.37.05.71.21.99.46.68.6,1.07,1.69,1.15,6.41.07,3.63-.03,9.41-.29,18.79,0,.54-.03,1.09-.04,1.64-.1,3.59-.19,7.09-.21,9.34v.32c0,.34,0,.65.02.92.69-.15,1.66-.48,2.78-.92.17-.07.35-.13.52-.21,2.95-1.2,6.8-3.02,9.53-4.31,2.58-1.23,5.01-2.38,6.88-3.15,1.37-.57,2.84-1.19,3.98-1.03.61.08,1.11.39,1.46,1.05.46.89.8,1.58-3.17,7.65Z"/>
          <path class="cls-2" d="M835.37,41.22c-6.58,7.31-13.13,14.62-19.71,21.94l.6,1.63,3.4,9.26h0s.67,1.84.67,1.84l-5.01,10.7c-.8-3.1-2.17-5.83-4.12-8.2-.49-.6-1.01-1.17-1.57-1.7-5.12-4.97-12.96-7.47-23.39-7.47h-.59l3.19-9.31.04-.12c-4.56-11.71-9.13-23.43-13.68-35.15h0c-.68-1.76-1.38-3.53-2.06-5.29,5.43,4.5,10.88,9,16.31,13.49h0c3.45,2.86,6.91,5.72,10.37,8.57,1.51-2.54,3.01-5.08,4.52-7.62h0c1.74-2.95,3.49-5.88,5.23-8.83,1.26-2.13,2.53-4.27,3.79-6.4h0c2.36-3.98,4.71-7.94,7.06-11.92l-1.61,11.34c-.3,2.03-.59,4.06-.87,6.09-1.06,7.39-2.11,14.77-3.16,22.16,6.76-2.55,13.53-5.11,20.29-7.66,1.35-.51,2.7-1.02,4.05-1.53-1.26,1.4-2.53,2.81-3.78,4.2Z"/>
          <path class="cls-3" d="M913.04,180.1l6.9,22.38c-4.93-4.94-9.86-9.86-14.79-14.8-2.81,8.48-5.6,16.96-8.41,25.44.05-8.32.08-16.62.12-24.94v-.94c-1.05.94-2.1,1.88-3.14,2.82,0,0,0,0-.02,0-6.46,5.8-12.94,11.6-19.41,17.39l8.04-13.03,7.17-11.63c-.44-.14-.89-.28-1.33-.43,9.01-4.55,15.05-12.54,17.58-23.59,3.68-2.46,7.35-4.93,11.04-7.4,1.38-.93,2.76-1.85,4.13-2.78-2.77,6.79-5.55,13.57-8.31,20.36,6.1.64,12.21,1.27,18.32,1.93-5.96,3.07-11.92,6.13-17.88,9.2Z"/>
        </g>
      </g>
      <g>
        <path class="cls-1" d="M120.53,28.36c1.35,3.56,2.69,7.11,4.03,10.67-3.82-3.43-7.64-6.87-11.46-10.3l-18.67,6.87,13.84-13.61c-3.23-3.49-6.46-6.98-9.68-10.47l15.98,5.47c5.91-2.31,11.82-4.61,17.73-6.91-3.23,3.9-6.44,7.8-9.67,11.7,5.08,3.01,10.17,6.03,15.25,9.04-5.79-.83-11.57-1.65-17.36-2.47Z"/>
        <path class="cls-4" d="M139.38,28.33l-5.09-3.01-7.24-4.3,2.68-3.23,4.81-5.82c.43-.51.69-1.17.69-1.88,0-1.55-1.21-2.82-2.73-2.91-.06,0-.12,0-.18,0-.11,0-.22,0-.34.03-.28.03-.54.1-.78.2l-8.81,3.43-7.87,3.07-14.99-5.13c-.31-.11-.63-.17-.94-.17-.96,0-1.89.49-2.43,1.33-.73,1.11-.61,2.58.29,3.55l4.85,5.24,2.93,3.17-11.83,11.63c-.97.96-1.15,2.47-.42,3.63.55.87,1.49,1.36,2.46,1.36.34,0,.67-.07,1-.19l17.02-6.26,4.42,3.98,5.73,5.15c.54.49,1.24.74,1.94.74.57,0,1.15-.17,1.65-.51,1.1-.76,1.55-2.17,1.08-3.42l-2.29-6.08,6.24.9,6.25.89c.14.02.28.03.41.03,1.23,0,2.33-.77,2.74-1.95.46-1.3-.07-2.76-1.25-3.46ZM120.53,28.36c1.35,3.55,2.69,7.11,4.03,10.67-3.82-3.43-7.63-6.88-11.46-10.3l-18.66,6.87,13.84-13.61c-3.23-3.49-6.46-6.98-9.68-10.47l15.98,5.47c5.92-2.31,11.82-4.61,17.74-6.9-3.23,3.89-6.44,7.79-9.67,11.7,5.08,3.01,10.17,6.02,15.25,9.04-5.79-.82-11.57-1.65-17.36-2.47Z"/>
      </g>
      <path class="cls-4" d="M825.15,99.44c-.02.15-.04.3-.06.45h.51s-.45-.45-.45-.45ZM823.59,107.31l.13.13.14-.71-.27.58Z"/>
      <path class="cls-4" d="M724.42,100.05c0,.54-.02,1.08-.06,1.62l.74-1.61h-.68Z"/>
      <path class="cls-4" d="M662,178.22l.34,1.08h2.13c-.84-.36-1.66-.73-2.47-1.08ZM662,178.22l.34,1.08h2.13c-.84-.36-1.66-.73-2.47-1.08ZM632.19,176.49l.36-1.75c-.18.55-.3,1.17-.36,1.75ZM639.68,174.43c.19-.04.38-.05.58-.04-.2-.02-.39,0-.58.04ZM690.38,173.83l.19.55.06-.3c-.07-.08-.16-.17-.24-.25ZM662,178.22l.34,1.08h2.13c-.84-.36-1.66-.73-2.47-1.08Z"/>
      <path class="cls-4" d="M130.63,167.29c.05.27.09.53.15.8l.06-.29c-.07-.17-.13-.34-.21-.51ZM31.33,99.71v.11s.03-.07.04-.11h-.04Z"/>
      <path class="cls-4" d="M130.63,167.29c.05.27.09.53.15.8l.06-.29c-.07-.17-.13-.34-.21-.51Z"/>
      <path class="cls-2" d="M150.39,206.89l9.13,23.26c-6.01-5.14-12-10.28-18.01-15.42-2.89,8.79-5.78,17.59-8.67,26.38-.02-.62-.05-1.23-.07-1.84-.34-8.34-.66-16.68-.99-25.02-2.96,2.42-5.91,4.85-8.87,7.27-2.11,1.73-4.23,3.47-6.34,5.2h0c-3.43,2.81-6.86,5.62-10.29,8.43l11.82-18.13v-.02s0,0,0,0h0s4.81-7.39,4.81-7.39c-.06-.02-.11-.04-.17-.05-.55-.16-1.09-.32-1.64-.47-.54-.16-1.09-.31-1.63-.46-7.77-2.23-15.55-4.44-23.33-6.66,7.32-1.66,14.65-3.32,21.97-4.98l-1.4-.86-15.26-9.35-3.95-2.42,14.31,2.42,9.23,1.56,4.65.8c.23-1.6.48-3.2.71-4.8.11-.79.23-1.58.35-2.37.87-5.9,1.74-11.8,2.61-17.7.06.12.1.23.15.36.36.89.73,1.77,1.09,2.66.05.27.09.53.15.8l.06-.29c1.22,2.96,2.43,5.9,3.64,8.86.03.07.05.12.07.19.39.97.8,1.95,1.19,2.91.5,1.22,1,2.43,1.5,3.65.39.94.78,1.89,1.17,2.83,1.5-.91,2.99-1.81,4.49-2.73,2.93,1.39,6.34,2.35,10.22,2.85-1.23,2.97-2.47,5.92-3.7,8.89,0,.03-.03.07-.04.09.46.05.93.09,1.38.13,0,0,.03,0,.05,0,1.95.3,3.98.5,6.11.59h.06c4.65.45,9.31.9,13.96,1.35-6.85,3.16-13.69,6.32-20.54,9.49Z"/>
      <path class="cls-4" d="M288.25,76.54c.21.13.43.22.67.24.4.07.81-.02,1.17-.24h-1.84Z"/>
      <path class="cls-4" d="M539.68,185.51c.43,0,.81.05,1.18.13-.36-.09-.75-.13-1.18-.13ZM514.74,99.48h0l.06-.13-.07.13Z"/>
      <path class="cls-1" d="M348.03,76.39l-10.87,23.23h7.64l-24.69,54.09,3.97.15-11.76,25.43h95.25l.22-31.27.22-29.58.07-9.49.16-21.99.07-10.58h-60.28ZM368.32,156.95l-47.33,19.85,32.93-21.47,21.76-54.82-7.35,56.44Z"/>
      <polygon class="cls-4" points="375.67 100.51 368.32 156.95 320.99 176.8 353.91 155.33 375.67 100.51"/>
      <path class="cls-1" d="M825.15,99.44c-.02.15-.04.3-.06.45h.51s-.45-.45-.45-.45ZM823.59,107.31l.13.13.14-.71-.27.58Z"/>
      <path class="cls-1" d="M888.12,76.54h-59.83l-.36.78-1.97,4.22-1.48,3.15h0s-.5,1.07-.5,1.07h0s-3.97,8.47-3.97,8.47l-1.5,3.2-1.09,2.34,3.44.06,4.23.07c.02-.15.04-.3.06-.45l.45.46,1.38.02-.43.94-1.48,3.23-1.21,2.62v.02l-.14.71-.13-.13-13.52,29.5,6.9.15.15-.15-3.82,19.11c-.47,2.36-.7,4.53-.69,6.53.02,11.23,7.46,16.85,22.44,16.85h32.49c3.13,0,6.03-.24,8.71-.74,12.4-2.27,19.92-9.82,22.46-22.64l1.32-6.61,2.24-11.19,7.61-38.2c3.09-15.58-4.12-23.38-21.76-23.38ZM880.34,110.06l-7.2,35.87c-.47,2.59-1.56,4.88-3.36,6.61-1.4,1.36-3.24,2.37-5.53,2.92-1.26.3-2.66.46-4.2.46h-8.53c-6.9,0-9.84-4.56-8.81-9.7l9.4-46.3,19.11.14c7.94,0,10.29,4.42,9.12,10Z"/>
      <path class="cls-4" d="M880.34,110.06l-7.2,35.87c-.47,2.59-1.56,4.88-3.36,6.61-1.4,1.36-3.24,2.37-5.53,2.92-1.26.3-2.66.46-4.2.46h-8.53c-6.9,0-9.84-4.56-8.81-9.7l9.4-46.3,19.11.14c7.94,0,10.29,4.42,9.12,10Z"/>
      <path class="cls-1" d="M749.21,116.52h58.95l-6.17,13.68-5.14,25.87c-.27,1.32-.6,2.59-.98,3.8-4.05,13.05-14.04,19.58-30.19,19.58h-58.94l.77-3.84.45-2.24h0s5.84-29.34,5.84-29.34h27.49l-2.36,11.76h19.41c7.93,0,11.76-6.31,13.52-11.9l1.48-7.2-.15.29h-64.97l16.16-35.28h0s.74-1.62.74-1.62h-.68s-8.87-.14-8.87-.14l6.78-14.48,4.1-8.75h59.83c3.85,0,7.21.37,10.07,1.12,1.28.33,2.47.74,3.55,1.23.36.16.72.34,1.06.51,2.22,1.17,3.96,2.69,5.21,4.57.37.54.7,1.12.99,1.73.86,1.81,1.37,3.9,1.51,6.26.15,2.37-.07,5.01-.65,7.94l-2.35,11.91h-26.9c.36-3.11.28-6.74-1.83-9.14-1.19-1.35-3.01-2.3-5.76-2.54-.48-.06-.98-.07-1.52-.07l-19.26-.15-5,25.14,3.82-8.68Z"/>
      <path class="cls-1" d="M662,178.22l.34,1.08h2.13c-.84-.36-1.66-.73-2.47-1.08ZM632.19,176.49l.36-1.75c-.18.55-.3,1.17-.36,1.75Z"/>
      <path class="cls-1" d="M703.72,85.49c-3.75-5.47-10.33-9.09-20.22-9.09h-59.83l-10.87,23.23,6.92.11,2.63.04-16.9,36.9,6.9.14h.15l-2.13,10.64-6.26,31.2-.13.65h27.63l.54-2.62.04-.19c.06-.58.18-1.2.36-1.75v-.03s11.26-54.81,11.26-54.81l18.19,58.31c.8.35,1.63.71,2.47,1.08h27.71l-1.61-4.92-.19-.55-4.04-12.35h0s-3.55-10.85-3.55-10.85h0l-4.71-14.41c5.84-1.06,10.99-3.69,15.28-7.29,13.36-11.15,18.48-31.63,10.37-43.45ZM674.82,116.23h-30.87l3.24-16.46h.15l19.25.15c12.21,0,9.41,9.99,8.23,16.31Z"/>
      <path class="cls-4" d="M674.82,116.23h-30.87l3.24-16.46h.15l19.25.15c12.21,0,9.41,9.99,8.23,16.31Z"/>
      <polygon class="cls-1" points="141.49 76.39 138.63 90.71 136.19 102.92 136.19 102.93 131.31 127.29 131.3 127.31 128.75 140.09 124.79 159.94 122.27 172.53 120.91 179.3 93.27 179.3 101.8 136.81 73.87 179.3 61.37 179.3 51.67 143.14 44.47 179.3 16.83 179.3 25.36 136.81 18.31 136.67 33.39 103.75 35.21 99.77 31.37 99.71 31.33 99.71 27.2 99.65 25.65 99.62 27.22 96.27 31.38 87.38 31.38 87.36 36.53 76.39 64.02 76.39 76.08 138.73 114.44 76.39 141.49 76.39"/>
      <path class="cls-1" d="M239.69,76.25l-7.5,17.15-2.79,6.37h-52.04l-1.47,7.39-3.53,17.74,3.53-7.71.44-.96h32.49l-9.7,20.44h-29.11l-1.91,9.4c-.97,4.88,1.62,9.23,7.79,9.66.34.03.67.04,1.03.04h46.89l-10.29,23.53h-53.36c-.22,0-.45,0-.66,0-1.17,0-2.3-.06-3.38-.14-1.76-.14-3.4-.37-4.91-.7-1.48-.32-2.82-.73-4.06-1.23-1.2-.49-2.28-1.07-3.26-1.73-1.77-1.2-3.16-2.68-4.15-4.46-2.15-3.76-2.59-8.78-1.34-15.1l3.83-19.11-5.15-.22-1.76-.07,3.15-6.88,13.76-30.03-7.74-.11-1.67-.03,2.97-6.43,7.76-16.8h86.14Z"/>
      <path class="cls-1" d="M288.25,76.54c.21.13.43.22.67.24.4.07.81-.02,1.17-.24h-1.84Z"/>
      <path class="cls-1" d="M336.27,76.54l-10.73,23.38h-27.93l-15.87,79.38h-27.64l8.53-42.49-6.91-.14,16.19-35.35.71-1.55-.29.15h-23.38l-1.23-.02-8.32-.13,2.98-6.37,7.89-16.86h37.97c.21.13.43.22.67.24.4.07.81-.02,1.17-.24h46.18Z"/>
      <path class="cls-1" d="M514.74,99.48h0l.06-.13-.07.13Z"/>
      <path class="cls-1" d="M549.28,99.77l-5,25.13,3.97-8.67h32.49l-9.7,20.44h-29.1l-1.92,9.4c-1.03,5.14,1.92,9.7,8.82,9.7h46.89l-7.78,17.8-2.51,5.72h-53.36c-2.68,0-5.14-.18-7.33-.54-1.96-.33-3.74-.79-5.32-1.39-2.03-.79-3.74-1.81-5.14-3.07-1.48-1.33-2.61-2.93-3.38-4.79-1.49-3.55-1.67-8.08-.59-13.58l3.82-19.11-4.89-.21-2.01-.08,16.9-36.9-9.4-.14.06-.13.03-.08,10.64-23.01h86.14l-10.29,23.52h-52.05Z"/>
      <path class="cls-4" d="M710.43,186.97h-3.27s0-.03.02-.04h3.23s.02.03.03.04Z"/>
    </g>
  </g>
</svg>