<?xml version="1.0" encoding="UTF-8"?>
<svg id="Layer_2" data-name="Layer 2" xmlns="http://www.w3.org/2000/svg" viewBox="0 0 541.88 326.37">
  <defs>
    <style>
      .cls-1 {
        fill: #d37d00;
      }

      .cls-2 {
        fill: #ddd;
      }

      .cls-3 {
        fill: #f4bd21;
      }

      .cls-4 {
        fill: #ffd11a;
      }
    </style>
  </defs>
  <g id="Layer_1-2" data-name="Layer 1">
    <g>
      <rect class="cls-4" width="541.88" height="326.06" rx="2.6" ry="2.6"/>
      <g>
        <g id="Clouds">
          <path class="cls-3" d="M208.87,139.43c-3.87-5.02-17.09-8.83-20.37-1.44-1.94-2.38-6.47-5.86-10.04-4-3.36,1.75-2.31,5.81.76,7.29.02-.02-1.06,1.21-1.26,1.37.28.3.81.92.92,1.29-2.31-.14-4.01,1.27-3.64,3.64,3.1-13.26-37.54-22.62-36.47-.39-1.93-.67-4.77-.81-5.07,1.86-5.79-1-10.44-5.08-16.52-2.72-6.31,2.45-7.66,8.06-2.93,12.96-2.77-1.53-6.3.84-6.83,3.61-5.41-5.19-16.64-7.27-22.6-.91-6.68,7.12-2.27,16.53,5.49,19.86-3.04-.17-9.73-.36-9.14,4.05-10.41-1.53-25.45.66-28.03,12.98-1.62,7.75,6.01,17.97,14.59,17.01-4.35,2.23-11.03,10.68-3.12,12.34-11.8,7.09-2.62,22.83,8.19,24.53-7.8,2.12-19.74,15.34-12.37,22.93-1.89.89-4.11,1.37-5.92,2.55-1.64,1.08-2.65,3.22-4.13,4.04-3.05,1.69-11.48.74-11.81,5.98,3.07,1.97,8.84.29,12.66.55-4.17,5.71,14.83,2.8,17.55,2.67,7.91-.37,15.68.21,23.37-.95,10.34-1.55,19.69-4.19,29.13-9.08,13.91-7.2,29.84-11.28,45.07-14.65,16.19-3.58,31.76-6.07,46.19-14.95,13.27-8.16,26.41-17.86,33.17-32.26,2.41-5.13,3.02-10.02,3.77-15.62.87-6.45,2.94-12.85,3.13-19.38l-43.77-45.15Z"/>
          <path class="cls-3" d="M354.01,74.78c-1.81-7.82,26.3-9.14,18.48-1.48,4.33-.37,9.68-2.46,14.23-1.29,4.7,1.21,6.59,6.31,3.55,10.53-.16.18-.17.17-.02-.02,2.17-1.07,4.04.8,3.56,2.89,4.69-.82,7.31,2.35,6.66,6.8-.26.07-.52.14-.77.22,7.67-4.32,18.96-8.83,28.6-6.01,8.99,2.63,16.98,14.8,6.38,20.05,4.51-.35,9.25,4.36,3.68,7.14,3.29,1.17,6.29,6.17,1.74,7.24,6.76-.8,16.84,7.39,15.74,14.74-1.03,6.93-10.68,9.8-16.46,9.68,4.26.21,9.6,2.64,7.36,7.96-2.21,5.23-12.22,6.93-16.71,6.78l-76.02-85.23Z"/>
          <path class="cls-3" d="M434.62,156.93c4.33-3.44,13.44-2.92,12.51,4.54,4.93.06,9.35,5.39,7.35,10.11,7.11.47,13.98,1.49,18.38,7.93,3.2,4.67,4.47,13.16.16,17.53,2.64-.32,3.86,1.87,2.78,4.16,10.25-.15,18.56,12.33,11.97,21.08,6.96-.63,8.93,6.42,9.58,11.53,6.86-.24,12.87,3.9,13.76,10.67,1.1,8.33-6.1,7.29-11.81,8.83,1.17,3.09-.94,4.76-3.38,5.93-1.05.5-2.92.09-4.04.54-1,.4-2.46,1.93-3.47,2.55-4.3,2.62-9.32,4.28-14.12,4.81,1.4.88,3.3,1.73,3.58,3.49-10.32,6.61-27.37,7.12-39.57,7.01l-3.69-120.71Z"/>
          <path class="cls-3" d="M330.59,67.79c1.05-3.5,5.36-8.14-.55-12.21-4.28-2.94-11.6-1.01-12.14,4.9-7.45-12.76-28.12-4.37-19.36,4.5-7.21,1.95-17.07.65-16.06,12.58-7.1.39-19.37.48-20.48,9.9-10.07-3.81-16.07-11.53-28.82-9.79-8.26,1.13-23.62,14.81-14.19,23.15-7.79-.3-22.2,2.62-17.64,13.44-18.69.86-13.32,24.2,4.06,24.77-5.19,2.18-5.51,9.7.19,10.47-9.28.74-22.32,3.06-19.55,16.23,2.18,10.34,18.89,15.91,28.07,17.13,22.1,2.94,48.83-9.63,70.03-14.84,30.75-7.55,58.22-39.2,57.01-72.01l-10.59-28.23Z"/>
        </g>
        <path class="cls-3" d="M428,198.37c4.7-1.09,13.27-2.56,18.28,1.61,6.3-8.63,16.2,2.3,23.42.75-.26-3.23-2.82-6.52-5.3-8.66-3.29-2.84-6.61-.91-9.24-2.42-5.22-2.99-5.4-14.26-14.71-9.2-3.78-4.54-12.88-6.56-18.58-6.05-10.99.97-10.71,6.94-8.6,15.97l14.74,7.99Z"/>
        <path class="cls-3" d="M116.53,218.65c-4.36-8.8-21.77-10.73-27.01-1.77-3.51-3.66-8.69-1.15-11.69,2.14-1.4-2.09-3.63-3.13-6.06-2.93,1.78-4.84,10.96-6.42,15.8-6.13-.28-5.82,2.92-13.04,8.22-15.13,5.73-2.26,14.79,0,14.59,7.66,1.29-10.73,24.64-10.67,31.36-6.42,10.61,6.72,9.46,20.87-1.86,26.26l-23.34-3.69Z"/>
        <path class="cls-3" d="M466.39,137.52s-.99.2-2.19-.79c-2.57-2.12-6.38-2.73-9.56-.56.01-2.75-1.42-5.1-3.83-6.46-1.1-.62-2.92-1.33-4.12-1.39-1.71-.07-3.53,1.78-4.74,1.76-1.8-.03-4.54-5.19-7.02-6.26-2.66-1.14-6.68-1.7-9.3-.55-.08-2.16-.86-5.09-3.6-3.36.71-4.89-1.54-6.81-6.04-8.55-3.88-1.5-7.73-1.59-11.03,1.13-.16.13-.31.26-.46.4l51.64,57.9,5.27,1.2c4.23-.62,9.42-2.33,10.86-5.75,1.99-4.72-2.75-6.88-6.53-7.06,5.12.11,13.69-2.44,14.6-8.59.97-6.52-7.97-13.79-13.97-13.08Z"/>
        <path class="cls-3" d="M215.3,163.6c-2.72,1.33-10.8-2.6-10.16-9.59.5-5.45,5.47-5.78,6.91-5.53-3.29-2.99-3.71-10.17,5.38-7.74,1-9.53,10.96-16.28,19.6-10.83,4.87,3.07,7.56,8.87,8.63,14.37,1.19,6.12-4.82,13.9-11.14,15.06-.83.15-1.89.15-2.73.05l-16.49,4.22Z"/>
        <path class="cls-3" d="M62.47,252.43c-2.96-2.12-7.51-2.86-10.44-.56-3.99-3.91-10.65-5.89-15.96-3.61-6.87,2.96-6.83,8.43-.01,10.29,5.75,1.58,13,.49,18.57.49,3.96,0,16.01-4.59,6.62-6.01l1.23-.61Z"/>
        <path class="cls-3" d="M131.77,140.56c-1.11-18.85,27.69-19.08,38.22-11.24,1.44-3.04,4.71-3.03,7.88-2.92-.21-4.14,3.5-5.4,6.63-6.67-11.13-4.63-19.35-18.72-3.56-22.84-.44-5.63,1.92-9.22,7.99-8.59.61-9.69,10.24-14.47,19.54-13.39-6.22-7-20.63-12.27-22.61.52-6.05-1.74-12.17-1.5-17.74,1.46-3.98,2.12-10.87,8.1-4.5,12.15-7.95-.72-15.14-5.51-23.6-2.97-7.98,2.39-10.87,10.23-8.06,18.07-5.95-3.96-14.84-8.81-20.5-1.78-5.26,6.54-4.44,15.91,2.58,20.3-13.37,1.33-20.22,27.04-4.47,28.44-2.27-2.58-2.1-9.22-.27-11.41,3.6-4.32,15.07-6.45,22.48.86Z"/>
        <path class="cls-3" d="M488.28,241.51c8.38-3.02-4.37-13.22-11.04-11.26.67-5.68-1.96-8.06-7.37-8.02.38-10.88-20.74-21.37-23.58-7.97-2.58-2.27-6.26-3.83-10.05-4.26l2.02,65.98c4.39.24,8.51.55,12.62,1.4,9.67-.57,19.92-2.23,27-6.76-.28-1.76-2.18-2.61-3.58-3.49,4.8-.54,9.82-2.19,14.12-4.81,1.01-.61,2.47-2.15,3.47-2.55,1.12-.45,2.99-.04,4.04-.54,2.22-1.06,4.16-2.54,3.63-5.11-2.87,1.1-7.68,2.5-10.05.54-4.77,4.04-13.65,5.77-19.76,4.55-2.51-.5-5.45-2.01-5.57-4.78-.09-2.17.7-3.64,2.53-4.57-8.71-1.2-15.3-7.52-16.18-16.09,1.41,2.72,2.04,5.25,4.89,7.15,2.82,1.87,6.69,3.44,9.99,4.26,3.49.86,10.51,1.85,13.81-.14-3.47,2.29-1.86,5.45,1.81,6.34,1.94.47,4.08.15,6.01-.09,1.63-.2,3.65-.79,5.23-.68-2.7.99,1.99,2.15,2.76,2.24,1.81.2,3.59.1,5.41.16v.02c3.69-.8,7.75-.88,9.66-3.26-6.52-1.69-18.93-.98-21.83-8.27Z"/>
        <path class="cls-3" d="M72.96,251.85c-5.63-1.32-8.84-8.35-7.73-13.82.44-2.17,2.43-5.33,4.13-6.78,3.53-3.02,4.72-1.52,8.32.67-.77-4.35,4.94-4.63,7.72-3.52,3.39-3.75,4.62-8.59,10.57-9.75,3.93-.76,12.58.67,12.46,5.87l8.1-5.88c-4.36-8.8-21.77-10.73-27.01-1.77-3.51-3.66-8.69-1.15-11.69,2.14-1.4-2.09-3.49-3.42-5.93-3.29-.79.04-3.06.12-4.17.16-4.88.2-11.5,10.75-3.11,12.34-11.8,7.09-2.62,22.83,8.19,24.53-.88-.52.14-.91.14-.91Z"/>
        <path class="cls-2" d="M137.18,216.78s6.45-9.28,16.77-7.08c10.33,2.2,11.35,8.38,11.35,8.38l-28.13-1.3Z"/>
        <path class="cls-3" d="M229.79,163.27v-.02c-.22-1.06-.51-2.1-.84-3.11l-.03-.03-1.48-1.52-.4-.4v-.02l-.43-.44-9.67-9.97c-2.1-.57-4.08-.71-5.94-.51-2.19.25-4.21,1.02-6.05,2.13-.11.06-.24.13-.35.21-1.03.67-2.02,1.43-2.92,2.3-3.02,2.84-5.3,6.67-6.76,10.5-.97-.56-2.08-.98-3.27-1.3-1.59-.44-3.33-.65-5.08-.65-.25,0-.49,0-.75.02-.3.02-.59.03-.89.06h-.02c-2.13.16-4.19.67-5.95,1.54-.21.1-.41.19-.6.3-4.56,2.52-5.21,5.29-5.59,8.51-.21,1.89-.33,3.92-1.08,6.18-.02.08-.05.16-.08.24-.02.06-.03.11-.05.17t-.02.03s0-.02-.02-.02c-.02-.03-.05-.08-.08-.11-.03-.06-.06-.11-.1-.16-.68-1.02-1.35-1.81-2.05-2.4-1.67-1.35-3.56-1.52-6.51-.71-3.16.87-9.58,2.91-9.73,6.91-4.26-2.52-10.88,2.45-10.61,7.23-3.81-2.05-5.7,1.02-6.53,5.84-1.11,6.56-.25,16.34.37,20.83-8.35-3.16-16.86-2.68-22.25.49h-.02c-3.37,2-5.49,5.03-5.59,8.91v.06s-.02.03-.02.05c0-.68-.16-1.32-.44-1.89-.05-.1-.1-.19-.14-.27-.05-.1-.11-.17-.17-.27,0,0-.02,0-.02-.02-.13-.19-.29-.38-.44-.56-.33-.37-.75-.68-1.19-.98-.22-.14-.44-.27-.68-.4-.43-.22-.89-.43-1.37-.59-.21-.08-.41-.16-.64-.22-.27-.08-.56-.16-.84-.24-.22-.06-.44-.11-.67-.16h-.02c-.06-.02-.13-.02-.17-.03-.11-.03-.22-.05-.33-.06-.27-.05-.54-.08-.79-.11-.35-.05-.7-.08-1.03-.11h-.05c-.21-.02-.41-.03-.6-.03-1.08-.05-2.06.02-2.86.17-1.49.29-2.68.81-3.68,1.48-.49.35-.95.73-1.37,1.13-.21.21-.41.41-.6.64s-.38.44-.57.67c-.37.44-.71.92-1.06,1.41-.17.24-.33.49-.51.73-.17.25-.33.51-.51.75-.05.06-.1.13-.14.19-.65.94-1.33,1.87-2.13,2.76-.97-.4-2.3-.62-3.6-.54-.13,0-.25.02-.38.03-.03,0-.08,0-.11.02-.21.02-.41.05-.62.1-.17.03-.35.08-.51.11-.16.06-.32.11-.48.17-.14.06-.3.13-.44.21-.14.08-.27.16-.4.25-.13.08-.25.17-.37.29-.1.08-.17.17-.25.27-.14.19-.27.4-.38.64-.05.11-.08.24-.11.37-.05.13-.06.27-.08.4-.08.35-.06.75.02,1.19v.02c-.14-.08-.27-.16-.38-.24-.13-.08-.24-.16-.37-.24-.49-.3-.92-.59-1.33-.84-.21-.13-.41-.25-.6-.35-.4-.22-.75-.4-1.11-.51-.16-.06-.3-.1-.46-.13-.02,0-.05-.02-.08-.02-.17-.03-.35-.05-.52-.05-.24,0-.49.03-.75.1-.27.06-.54.16-.81.3-.29.13-.57.3-.89.52-.32.21-.65.48-1,.78-.08.08-.16.14-.24.22-.05.05-.08.08-.11.11-.05.03-.1.08-.13.13-.29.27-.56.59-.83.92-.22.25-.43.54-.64.84-.21.29-.41.59-.6.91-.19.3-.37.62-.54.94-.16.32-.32.64-.46.95-.29.62-.49,1.22-.6,1.76-.21,1.02-.27,2.08-.17,3.18.03.32.06.64.11.95.05.32.1.62.17.94.06.3.14.59.22.87,0,.03.02.05.02.08.08.24.16.49.24.73.02.05.03.11.06.16.11.3.22.59.35.86.03.08.06.14.1.21.11.24.24.46.35.68.16.29.32.56.49.83.16.24.32.48.48.7.05.06.08.11.14.16.16.22.33.43.52.64.21.24.43.46.65.67.22.21.46.41.71.6.21.16.43.32.65.46.06.05.11.08.17.11.24.14.48.27.73.4.03.02.06.03.1.05.52.25,1.06.44,1.64.57v.02l-.19.64c.35.11.11.14-.05.17h-.02s-.08.02-.08.03.02.02.05.02c.03.02.08.02.14.03-7.8,2.11-19.74,15.34-12.37,22.93-1.89.89-4.11,1.37-5.92,2.56-1.64,1.06-2.65,3.22-4.11,4.03-3.06,1.7-11.48.73-11.81,5.97,3.06,1.97,8.84.3,12.66.56-.21.29-.35.54-.44.78-.14.35-.17.67-.11.95.05.17.14.35.27.49.06.08.14.16.22.22.16.14.37.25.6.37.11.05.22.1.35.13.02.02.05.03.08.03.11.05.24.08.37.11.14.05.3.08.46.11.16.03.33.06.51.1.27.05.56.08.84.11.29.03.56.05.86.08.02-.02.05,0,.06,0,.32.02.64.03.97.03.87.02,1.78.02,2.72-.02.54-.03,1.08-.05,1.6-.08.05,0,.1,0,.14-.02.3-.02.6-.03.89-.06.38-.03.76-.06,1.14-.1,1.13-.08,2.18-.19,3.11-.29.16-.02.32-.03.48-.05.14-.02.3-.03.44-.05.08,0,.16-.02.24-.03.21-.02.4-.05.57-.06.52-.05.92-.08,1.19-.1,7.91-.38,15.67.21,23.37-.95,1.59-.24,3.16-.51,4.7-.79.06-.02.14-.03.21-.05.33-.06.67-.13,1-.19.64-.13,1.29-.27,1.92-.41,5.53-2.13,10.94-4.45,16.36-6.81,6.08-2.65,12.93-4.05,15.9-10.73,3.02-6.73-.25-14.4-.73-20.99.27-.11.56-.13.84-.05,1.32-1.48,5.61-2.68,9.62-3.68,1.97-.49,3.86-.92,5.3-1.3.6-.16,1.13-.32,1.54-.46.32-.11.62-.21.94-.32.78-.25,1.56-.49,2.33-.73h.03c7.46-2.19,15.24-3.35,22.61-6.07,5.27-1.94,10.67-4.26,15.96-6.99,5.99-3.08,11.83-6.69,17.1-10.85,11.34-8.88,20.13-20.28,22.53-34.47v-.02c.05-.27.1-.54.13-.83.02-.06.02-.13.03-.19.1-.65.17-1.3.24-1.97.08-.7.14-1.41.17-2.14.03-.48.05-.95.06-1.43.13-4.73.03-10.45-1.19-15.77Z"/>
        <path class="cls-3" d="M229.79,163.27v-.02c-.22-1.06-.51-2.1-.84-3.11l-.03-.03-1.48-1.52c-.38-.03-.75-.05-1.13-.05h-.22c-4.51.03-8.35,2.14-11.42,5.24-.65.65-1.24,1.33-1.83,2.06v.02c-.3.38-.6.78-.87,1.18-.84,1.19-1.57,2.45-2.22,3.73-.02.03-.03.06-.03.08-.02.02-.02.03-.03.05-.03.08-.06.14-.1.21-.43.87-.81,1.76-1.14,2.65-4.48-2.52-11.8-2.68-16.58-.05-.11.06-.22.13-.33.19-.03.02-.06.03-.08.05h-.02s-.1.06-.13.08c-6.69,4.02-4.03,8.64-6.26,14.82-1.64-2.52-3.11-3.75-5.29-3.86h-.03c-.84-.06-1.78.06-2.86.33-.17.03-.37.1-.56.14-.4.11-.86.24-1.33.38-3.37,1.03-8.27,3.02-8.42,6.53-1.08-.65-2.33-.79-3.56-.59-3.64.59-7.26,4.26-7.05,7.81-4.59-2.48-6.38,2.49-6.91,8.99.02.02.02.05,0,.08-.02.27-.03.54-.05.83-.02.25-.03.48-.05.73v.06c-.1,2.32-.06,4.75.03,7.05.06,1.35.16,2.67.25,3.87v.02c.13,1.4.25,2.65.38,3.73.02.03.02.06.02.1.02.11.03.21.03.3.02.03.02.05.02.06.03.3.08.59.11.86-.27-.11-.56-.21-.83-.29-.03-.03-.06-.03-.1-.03-.08-.05-.16-.08-.24-.1-.05-.02-.08-.03-.13-.05-.67-.22-1.33-.41-1.98-.59h-.02c-12.51-3.35-24.41,1.21-24.58,10.56,0-5.11-8.56-6.53-12.47-5.76-5.95,1.16-7.18,5.99-10.58,9.75-2.76-1.13-8.48-.84-7.72,3.51-3.59-2.19-4.78-3.68-8.3-.67-1.7,1.45-3.7,4.61-4.14,6.78-1.11,5.48,2.1,12.51,7.73,13.82l-.19.67c.62.17-.57.14.05.25-7.8,2.11-19.74,15.34-12.37,22.93-1.89.89-4.11,1.37-5.91,2.54-.84.56-1.51,1.37-2.16,2.16.16-.02.32-.03.48-.05.14-.02.3-.03.44-.05.08,0,.16-.02.24-.03.21-.02.4-.05.57-.06.52-.05.92-.08,1.19-.1,7.91-.38,15.67.21,23.37-.95,1.59-.24,3.16-.51,4.7-.79.06-.02.14-.03.21-.05.33-.06.67-.13,1-.19.64-.13,1.29-.27,1.92-.41,5.53-2.13,10.94-4.45,16.36-6.81,6.08-2.65,12.93-4.05,15.9-10.73,3.02-6.73-.25-14.4-.73-20.99.27-.11.56-.13.84-.05,1.32-1.48,5.61-2.68,9.62-3.68,1.97-.49,3.86-.92,5.3-1.3.6-.16,1.13-.32,1.54-.46.32-.11.62-.21.94-.32.78-.25,1.56-.49,2.33-.73h.03c7.46-2.19,15.24-3.35,22.61-6.07,5.27-1.94,10.67-4.26,15.96-6.99,5.99-3.08,11.83-6.69,17.1-10.85,11.34-8.88,20.13-20.28,22.53-34.47v-.02c.05-.27.1-.54.13-.83.02-.06.02-.13.03-.19.1-.65.17-1.3.24-1.97.08-.7.14-1.41.17-2.14.03-.48.05-.95.06-1.43.13-4.73.03-10.45-1.19-15.77Z"/>
        <path class="cls-4" d="M478.34,199.33c-.9,1.3-3.56,1.48-5.42-.41,0,0-2.42.78-8.06-1.68-5.64-2.46-8.31-1.88-8.31-1.88,0,0,2.35,4.28,11.35,5.37,8.99,1.09,9.7,2.91,10.44,4.09.74,1.18,1.56,5.63,1.56,5.63,0,0,11.35-5.83,11.14.9-.21,6.73,3.85-2.44,3.85-2.44l-7.99-11.36s-7.48.22-8.55,1.78Z"/>
        <path class="cls-3" d="M442.72,146.3c2.14-2.12,5.42-2.86,7.53-.56,2.88-3.91,7.68-5.89,11.51-3.61,4.95,2.96,4.92,8.43.01,10.29-4.15,1.58-9.37.49-13.39.49-2.86,0-11.54-4.59-4.77-6.01l-.89-.61Z"/>
        <path class="cls-3" d="M248.66,151.92c-9.58-2.65-16.56,5.11-19.54,12.98-3.96-2.24-10.47-2.39-14.71-.04-6.54,3.63-4.01,7.81-6.04,13.43-2.1-3.24-3.93-4.07-7.76-3.01-.15.04-.31.09-.47.13-1.08,7.47-.75,15.34-.27,19.1,1.64,12.81,5.98,26.73,15.98,35.6,21.75-8.95,44.59-25.18,45.25-50.44.13-5.02-.02-11.36-1.8-16.77l-10.65-10.98Z"/>
        <g id="birds">
          <path class="cls-1" d="M116.45,76.06s9.18-13.09,18.21-3.94c0,0,4.67-5.11,10.71-5.42,6.04-.31,14.98,4.33,14.98,4.33,0,0-11.24-2.14-15.44-.64-4.2,1.51-12.18,2.02-3.94,4.49,7.09,2.12-10.97-2.31-10.97-2.31,0,0-4.01-3.37-13.55,3.49Z"/>
          <path class="cls-1" d="M153.45,92.94s6.11-9.57,12.46-3.46c0,0,3.13-3.78,7.28-4.22,4.15-.44,10.37,2.49,10.37,2.49,0,0-7.76-1.09-10.63.13-2.86,1.22-8.48,2.54-2.64,3.31,5.84.77-7.58-1.21-7.58-1.21,0,0-2.81-2.22-9.26,2.97Z"/>
          <path class="cls-1" d="M151.44,110.05s2.84-5.48,7.88-.55c0,0,.02-3.81,3.1-5.15,2.45-1.06,5.45-1.06,5.45-1.06,0,0-3.74,2.08-4.91,3.13-1.41,1.27-4.83,3.89-.15,4.39,4.68.5-6.08-.83-6.08-.83,0,0-.07-4.39-5.31.07Z"/>
        </g>
        <polygon class="cls-1" points="334.84 62.31 278.69 97.69 299.04 120.67 301.49 165.91 334.74 161.54 334.84 62.31"/>
        <polygon class="cls-1" points="191.54 167.04 216.35 172.22 216.35 193.16 190.29 205.72 191.54 167.04"/>
        <path class="cls-1" d="M205.06,178.1s-2.38.67-2.38,3.37v8.32l4.75,1.36v-8.32c0-2.7-2.38-4.73-2.38-4.73Z"/>
        <polygon class="cls-1" points="225.99 158.71 235.99 143.01 235.56 154.01 225.99 158.71"/>
        <polygon class="cls-1" points="300.01 116.77 290.02 121.94 290.48 103.24 300.01 97.69 300.01 116.77"/>
        <polygon class="cls-1" points="300.01 116.77 290.02 121.94 290.86 104.75 300.01 99.91 300.01 116.77"/>
        <polygon class="cls-1" points="224.46 188.89 225.99 158.71 235.56 154.01 234.41 183.34 224.46 188.89"/>
        <polygon class="cls-1" points="277.25 99.21 301.48 112.11 303.4 167.04 278.51 171.01 277.25 99.21"/>
        <path class="cls-1" d="M139.07,278.58l4.44-48.17s4.88-5.08,16.11-12.6l4.81-36.84,27.11-13.93-.35,33.17c12.83-6.04,24.22-10.97,43.22-16.86l2.46-62.67,40.39-21.46,1.25,71.8c13.48-2.91,30.84-7.23,46.7-9.46v44.28l-15.06,36.03s-67.12,4.41-171.07,36.73Z"/>
        <path class="cls-1" d="M139.07,278.58l4.44-48.17s4.88-5.08,16.11-12.6l4.81-36.84,27.11-13.93-.35,33.17c12.83-6.04,24.22-10.97,43.22-16.86l2.46-62.67,40.39-21.46,1.25,71.8c13.48-2.91,30.84-7.23,46.7-9.46v44.28l-15.06,36.03s-67.12,4.41-171.07,36.73Z"/>
        <g>
          <path class="cls-1" d="M197.81,197.14c-.82.37-1.63.74-2.45,1.12v10.79c.82-.37,1.63-.73,2.45-1.08v-10.83Z"/>
          <path class="cls-1" d="M206.29,193.4c-.82.35-1.64.7-2.45,1.05v10.96c.81-.33,1.63-.65,2.45-.98v-11.03Z"/>
          <path class="cls-1" d="M215.66,189.72c-.83.31-1.65.62-2.45.93v11.24c.81-.29,1.62-.58,2.45-.87v-11.3Z"/>
          <path class="cls-1" d="M226.56,185.86c-.83.28-1.65.55-2.45.83v11.46c.81-.26,1.62-.53,2.45-.8v-11.49Z"/>
          <path class="cls-1" d="M285.98,169.35v11.5c1.08-.22,2.17-.43,3.27-.65v-11.58c-1.11.25-2.19.49-3.27.74Z"/>
          <path class="cls-1" d="M300.42,166.14v11.96c1.08-.2,2.18-.39,3.27-.58v-12.08c-1.1.23-2.19.46-3.27.7Z"/>
          <path class="cls-1" d="M314.87,163.23v12.42c1.09-.17,2.18-.34,3.27-.51v-12.49c-1.09.19-2.18.38-3.27.58Z"/>
        </g>
        <polygon class="cls-1" points="163.9 180.97 179.78 162.9 191.72 157.36 191.54 167.04 163.9 180.97"/>
        <polygon class="cls-1" points="177.08 166.07 190.29 137.71 191.72 157.36 177.08 166.07"/>
        <polygon class="cls-1" points="191.54 167.04 216.91 172.22 205.06 159.77 196.62 140.05 190.29 137.71 191.72 157.36 191.54 167.04"/>
        <polygon class="cls-1" points="235.99 121.35 251 94.38 271.08 81.73 277.69 99.21 235.99 121.35"/>
        <g>
          <polygon class="cls-1" points="191.24 138.06 190.32 138.17 190.1 138.17 190.43 121.84 190.95 121.7 191.24 138.06"/>
          <polygon class="cls-1" points="196.91 140.73 195.82 139.75 196.16 123.81 196.67 123.81 196.91 140.73"/>
        </g>
        <polygon class="cls-1" points="251 94.38 267.01 48.3 271.08 81.73 251 94.38"/>
        <polygon class="cls-1" points="277.69 99.21 301.95 112.11 282.96 88.09 267.01 48.3 271.08 81.73 277.69 99.21"/>
        <path class="cls-1" d="M442.96,144.5l-18.14-37.96-7.63-36.79-5.45,37.61-6.81,22.62,2.61,10.7s8.33-3.22,17.47-2.44c7.44.64,14.22,1.5,17.96,6.25Z"/>
        <polygon class="cls-1" points="411.74 107.35 415.81 106.12 415.81 116.85 411 109.82 411.74 107.35"/>
        <polygon class="cls-1" points="143 230.41 161.53 203.16 159.62 217.81 143 230.41"/>
        <path class="cls-1" d="M442.95,145.19c0-3.99-10.58-7.2-20.97-7.2s-18.81,3.24-18.81,7.23v21.67l30.9,18.41,5.48,59.26h12.26l-8.88-99.37Z"/>
        <polygon class="cls-1" points="365.91 67.81 334.84 62.37 334.84 106.17 403.27 115.24 365.91 67.81"/>
        <path class="cls-1" d="M414.66,112.61l-.06.24-1,.67v-2.02c-1.27-1.2-2.87-2.35-4.75-3.41h0s-1.52,1.46-1.52,1.46v-2.27c-2.12-1.07-4.54-2.04-7.21-2.91v.07s-2.69,2.24-2.69,2.24v-3.13c-3.15-.88-6.58-1.63-10.25-2.21l-3.74,2.32v-2.84c-4.8-.59-9.92-.91-15.24-.91s-10.61.33-15.47.94v2.82l-3.69-2.29c-3.69.59-7.14,1.35-10.3,2.24v3.07l-2.69-2.24c-2.68.88-5.1,1.87-7.21,2.95v2.16l-1.54-1.32c-1.89,1.09-3.48,2.25-4.72,3.48v1.81l-1-.67v-.05c-1.41,1.71-2.17,3.52-2.17,5.4,0,10.11,21.85,18.3,48.8,18.3s48.8-8.19,48.8-18.3c0-1.95-.82-3.84-2.33-5.6Z"/>
        <polygon class="cls-1" points="346.78 107.5 356.77 112.67 356.32 95.25 346.78 87.15 346.78 107.5"/>
        <path class="cls-1" d="M380.89,100.54c-1.17-.12-2.36-.22-3.57-.31h0s-.1,0-.15-.01c-.64-.04-1.28-.08-1.93-.12-.11,0-.22-.01-.33-.02-.65-.03-1.31-.06-1.98-.09-.1,0-.2,0-.29,0-.68-.02-1.37-.04-2.06-.05-.07,0-.13,0-.2,0-.73-.01-1.46-.02-2.19-.02-5.41,0-10.61.33-15.47.94v2.82l-3.69-2.29c-1.47.24-2.91.5-4.3.78l.05,24.29c-3.52.39-6.88,1.54-9.95,2.43v64.58c.69-.01,2.05.14,2.31.89,1.03,2.88-2.28,3.75-2.44,3.76l-4.31,51.59c18.97-2.6,36.03-3.38,50.49-3.23V100.54Z"/>
        <polygon class="cls-1" points="427.5 242.16 439.56 244.56 435.59 186.05 403.17 166.89 403.17 195.29 427.5 242.16"/>
        <polygon class="cls-1" points="268.1 51.38 265.92 51.35 267.18 18.28 267.86 18.29 268.1 51.38"/>
        <path class="cls-1" d="M278.51,171.01l6.81-6.28s27.53-6.54,41.43-8.54l-1.86,5.4s-29.65,5.68-46.38,9.42Z"/>
        <path class="cls-1" d="M315.32,229.05v-3.43c0-.25-.2-.45-.45-.45s-.45.2-.45.45v3.43c-.67.11-1.18.69-1.18,1.39,0,.78.63,1.41,1.41,1.41h.45c.78,0,1.41-.63,1.41-1.41,0-.7-.51-1.28-1.18-1.39Z"/>
        <polygon class="cls-1" points="331.93 64.03 331.93 57.43 334.84 54.52 334.84 62.37 331.93 64.03"/>
        <polygon class="cls-1" points="324.4 143.22 313.11 147.23 313.55 127.68 324.4 122.98 324.4 143.22"/>
        <polygon class="cls-1" points="324.4 143.22 314.96 146.57 315.07 128.75 324.25 124.84 324.4 143.22"/>
        <path class="cls-1" d="M319.4,140.63v-22.42l25.35-6.67v16.06l-9.92,7.53v58.35s2.16-.13,2.71.35c.78.68.84,2.11.4,2.72-.52.71-3.11,1.56-3.11,1.56l-4.44,51.62s-21.83,3.49-25.38,4.71l19.45-48.42s-2.58-2.53.42-5.99l-.74-56.48-4.74-2.89Z"/>
        <path class="cls-1" d="M412.35,205.31c.44-1.02,1.13-2.91-.13-4.28v-53.42c3.06-2.11,4.77-4.48,4.77-6.98v-22.42c0-3.74-3-7.22-8.14-10.12l.03.14-1.54,1.33v-2.27c-2.11-1.06-4.52-2.03-7.18-2.9l-2.72,2.3v-3.13c-3.15-.88-6.59-1.63-10.26-2.21l-3.73,2.32v-2.84c-1.99-.24-4.03-.44-6.12-.59l-.03,24.53c-2.75-.15-5.26-.3-8.24-.28v64.42s.02,0,.03,0c1.32,0,2.21,1.31,2.21,1.98s-.72,2.55-1.88,2.55l5.93,52.56c39.62.33,56.04,5.53,56.04,5.53,0,0-14.73-35.93-19.03-46.2Z"/>
        <path class="cls-1" d="M326,203.52h0s0-.01,0-.01c4.36-5.97,21.79-10.09,42.62-10.09s37.81,4.01,42.43,9.86h0c.05.07.52.82,1.28,2.02.48-.75.7-1.51.64-2.27-.02-.33-.1-.65-.23-.97-.88-2.08-3.8-3.99-8.22-5.6-8.36-2.96-21.97-6.16-37.28-5.75-31.24.83-40.79,8.88-43.45,14.36.17.31.39.62.65.93.92-1.5,1.49-2.43,1.53-2.48Z"/>
        <path class="cls-1" d="M368.2,124.48c-26.95,0-48.8,7.23-48.8,16.16,0,2.5,1.71,4.87,4.77,6.98v-2.39c0-8.55,19.71-15.47,44.02-15.47s44.02,6.93,44.02,15.47v2.39c3.06-2.11,4.77-4.48,4.77-6.98,0-8.92-21.85-16.16-48.8-16.16Z"/>
        <path class="cls-1" d="M377.48,124.77c22.51,1.44,39.52,7.99,39.52,15.86,0,2.5-1.71,4.87-4.77,6.98v-2.39c0-8.45-19.25-15.31-43.17-15.47-.28,0,8.42-4.98,8.42-4.98Z"/>
        <polygon class="cls-1" points="337.92 64.03 337.92 57.43 334.84 54.52 334.84 62.37 337.92 64.03"/>
        <g>
          <path class="cls-1" d="M375.34,100.11c.54.03,1.08.06,1.61.1-.53-.04-1.07-.07-1.61-.1Z"/>
          <path class="cls-1" d="M370.34,99.93c-.43,0-.86-.01-1.29-.01h0c.43,0,.86,0,1.29.01Z"/>
          <path class="cls-1" d="M370.89,99.94c.56.01,1.12.03,1.67.04-.55-.02-1.11-.03-1.67-.04Z"/>
          <path class="cls-1" d="M373.17,100.01c.53.02,1.05.04,1.57.07-.52-.03-1.05-.05-1.57-.07Z"/>
        </g>
        <path class="cls-1" d="M451.82,244.56l-8.88-99.37c0-3.21-6.85-5.92-14.94-6.85l2.64,44.91,3.44,2.05,5.48,59.26h12.26Z"/>
        <path class="cls-1" d="M97.12,326.37c.08-.1.16-.21.24-.32,2.19-2.76,4.29-5.57,6.16-8.32,10.62-15.53,35.55-39.14,35.55-39.14l32.17-9.48.54-.16c1.51-.41,3-.83,4.48-1.22,1.08-.3,2.16-.59,3.24-.89.38-.11.78-.22,1.16-.3,1.94-.52,3.86-1.03,5.75-1.52,1.29-.35,2.57-.68,3.87-1.02,1.7-.43,3.37-.86,5.03-1.27h.02s.02-.02.02-.02c1.59-.4,3.14-.79,4.7-1.18,5.26-1.3,10.34-2.51,15.26-3.65,4.43-1.02,8.72-1.97,12.86-2.87,1.05-.22,2.08-.44,3.11-.67,11.23-2.38,21.41-4.34,30.44-5.92,4.61-.79,8.91-1.51,12.89-2.14h.02c2.48-.38,4.84-.75,7.08-1.08,2.57-.37,5-.71,7.24-1.02.19-.02.38-.05.57-.08,1.48-.19,2.87-.37,4.21-.54.51-.05.98-.11,1.46-.17,1.43-.17,2.76-.33,4-.48.08,0,.17-.02.27-.03.71-.08,1.4-.14,2.05-.22.37-.03.73-.08,1.06-.11,1.03-.11,1.95-.21,2.76-.29h.02c1.25-.11,2.27-.21,3.03-.27.08,0,.14-.02.22-.02.29-.02.54-.05.75-.06h.05c.33-.03.54-.05.65-.05l-5.05,12.56c.81-.17,1.62-.35,2.41-.52.13-.03.29-.1.44-.19h.03c1.51-.83,4.13-3.76,5.34-4,2.7-.56,3.64,2.27,6.26,1.81,1.52-.27,3.05-.54,4.54-.79,1.75-.29,3.48-.57,5.18-.83.13-.03.25-.05.38-.06.14-.02.29-.05.43-.06.11-.02.21-.03.32-.05.02,0,.05,0,.06-.02.13-.02.27-.03.4-.05,1.91-.29,3.78-.56,5.62-.79,2.84-.38,5.61-.71,8.34-1,10.16-1.1,19.56-1.65,28.12-1.84.84-.02,1.67-.03,2.49-.03h.02c.14-.02.3-.02.44-.02h.29c1.45-.02,2.86-.03,4.24-.02.17,0,.35,0,.52.02.49-.02.97,0,1.45,0h.46c.84.02,1.7.03,2.52.05,6.76.14,12.86.51,18.23.98.14.02.29.02.41.03.7.08,1.4.14,2.08.21,1.16.13,2.29.24,3.37.37.32.03.62.06.92.11.29.02.56.05.83.1,1.16.14,2.27.29,3.33.43.4.06.79.13,1.18.17.13.02.25.03.38.06.13.02.24.03.37.05,1.05.16,2.03.32,2.95.46,1.25.21,2.4.41,3.45.62.21.03.4.06.57.1.08.02.16.03.24.05.16.03.32.06.48.1.1.02.17.03.27.05.03,0,.06.02.1.02.14.03.27.06.4.08.4.08.76.16,1.11.24t.02,0c.51.11.98.21,1.43.3.24.06.49.11.71.16.17.03.33.08.49.11.03.02.05.02.08.03h.02c.51.13.94.22,1.3.32.17.05.35.1.49.13.03.02.06.02.1.02.03.02.06.03.08.03.11.03.22.06.3.08.06.02.13.03.17.05.05.02.08.02.11.03.08.02.11.03.11.03l-.16-.4c-.03-.06-.06-.14-.1-.24l-.19-.43s-.03-.1-.05-.14c-.08-.19-.17-.4-.27-.64l-.22-.56c-.21-.46-.43-1-.67-1.6l-.21-.51-.54-1.29c-.08-.21-.17-.43-.25-.65l-.02-.02-1.21-2.89h.03l9.75,1.94,2.27.46h12.26c.37.25.73.52,1.08.81.37.27.71.57,1.05.89.16.14.3.29.46.44.24.24.49.48.71.73.3.32.6.65.87,1,.17.19.33.38.48.57.19.24.38.49.57.75.4.54.78,1.08,1.14,1.67.24.33.44.68.65,1.03.35.56.67,1.11.98,1.7.25.44.49.89.71,1.35.27.51.52,1.02.78,1.56.25.49.49,1.02.73,1.52.51,1.1,1.02,2.24,1.51,3.41.33.79.68,1.59,1.03,2.41.24.57.49,1.14.73,1.73.35.81.67,1.62,1,2.4.06.17.14.37.22.54.1.21.17.4.27.6.68,1.6,1.4,3.22,2.14,4.86,0,.02.02.02.02.02.41.89.84,1.79,1.29,2.68.24.51.49,1,.76,1.51.62,1.21,1.29,2.41,1.98,3.62.33.6.7,1.21,1.08,1.81.37.59.75,1.19,1.14,1.78,1.25,1.89,2.62,3.75,4.16,5.54.02.03.03.05.03.05,1.3,1.56,2.73,3.06,4.29,4.53,7.57,7.07,15.16,18.72,21.45,29.98.06.11.13.22.17.32H97.12Z"/>
        <g>
          <path class="cls-1" d="M340.86,103.05c.23-.06.47-.12.71-.18-.24.06-.47.12-.71.18Z"/>
          <path class="cls-1" d="M339.72,103.35c.19-.05.37-.1.56-.15-.19.05-.37.1-.56.15Z"/>
          <path class="cls-1" d="M342.37,102.68c.23-.05.46-.11.69-.16-.23.05-.46.11-.69.16Z"/>
          <path class="cls-1" d="M343.63,102.4c.24-.05.49-.11.73-.16-.24.05-.49.1-.73.16Z"/>
          <path class="cls-1" d="M335.15,104.75c-.1.04-.21.07-.31.11h0c.1-.04.21-.07.31-.11Z"/>
          <path class="cls-1" d="M338.22,103.77c.31-.09.62-.18.93-.27-.31.09-.62.18-.93.27Z"/>
          <path class="cls-1" d="M336.05,104.45c.17-.06.34-.11.52-.17-.18.06-.35.11-.52.17Z"/>
        </g>
        <path class="cls-1" d="M191.54,167.04l-27.11,13.93-4.81,36.84c-11.22,7.52-16.11,12.6-16.11,12.6l-4.44,48.17c18.39-5.72,34.38-10.26,51.21-14.58l1.25-96.97Z"/>
        <path class="cls-1" d="M312.39,34.83c-2.01.4-3.69.67-5.09.82l-.12-.03c1.16-3.49,2.23-8.01,1.58-11.61,0-.03-1.27-8.31-2.51-10.07-.32-.6-.73-1.19-1.24-1.76-9.83-10.9-37.16,6.11-37.16,6.11l.09,12.97c24.48-14.51,35.01-15.25,38.96-11.17h0c-1.38,6.41-7.58,12.73-5.23,14.91l3.33,6.07,1.48-3.51c-.8,2.11-1.48,3.51-1.48,3.51,16.34-6.54,34.98-5.28,34.98-5.28,0,0-1.72-6.17-27.61-.97Z"/>
        <path class="cls-1" d="M368.2,111.52c.77,0,1.53,0,2.3.02v-15.52h-4.59v15.52c.76-.01,1.53-.02,2.3-.02Z"/>
        <path class="cls-1" d="M321.57,112.85v11.56c.3-.37.64-.73,1-1.09v-9.8l-1-.67Z"/>
        <path class="cls-1" d="M327.29,119.84c.49-.28,1.01-.56,1.54-.84v-9.45l-1.54-1.33v11.61Z"/>
        <path class="cls-1" d="M336.01,104.38v11.68c.88-.29,1.79-.57,2.73-.83v-8.54l-2.69-2.24-.04-.06Z"/>
        <path class="cls-1" d="M348.92,101.27v11.73c1.24-.2,2.51-.38,3.81-.54v-8.79s-3.81-2.4-3.81-2.4Z"/>
        <path class="cls-1" d="M414.6,112.85v11.56c-.3-.37-.64-.73-1-1.09v-9.8l1-.67Z"/>
        <path class="cls-1" d="M408.88,119.83c-.49-.28-1.01-.56-1.54-.84v-9.45l1.54-1.33v11.61Z"/>
        <path class="cls-1" d="M400.16,104.38v11.68c-.88-.29-1.79-.57-2.73-.83v-8.54l2.69-2.24.04-.06Z"/>
        <path class="cls-1" d="M387.26,101.3v11.7c-1.25-.2-2.52-.38-3.82-.55v-8.79l3.82-2.37Z"/>
        <path class="cls-1" d="M191.11,200.26l5.47-5.29s15.09-7.65,37.97-15.83l-.14,4.19s-32.75,11.84-43.3,16.92Z"/>
        <path class="cls-1" d="M191.11,200.26l5.47-5.29s6.38-3.23,17.12-7.74l6.14,1.48c-10.15,3.81-22.87,8.72-28.73,11.55Z"/>
        <path class="cls-1" d="M245.48,123.97s-2.38,2.72-2.38,5.42v8.32l4.75-2.06v-9c0-2.7-2.38-2.68-2.38-2.68Z"/>
        <path class="cls-1" d="M246.17,125.48s-1.64,2.05-1.64,4.46-.04,7.24-.04,7.24l3.37-1.3v-8.02c0-2.4-1.69-2.38-1.69-2.38Z"/>
        <path class="cls-1" d="M267.01,114.48s-2.38,2.72-2.38,5.42v8.32l4.75-2.25v-8.82c0-2.7-2.38-2.68-2.38-2.68Z"/>
        <path class="cls-1" d="M245.48,154.01s-2.38,2.22-2.38,4.92v8.68l4.75-1.46v-8.95c0-2.7-2.38-3.19-2.38-3.19Z"/>
        <path class="cls-1" d="M267.01,148.04s-2.38,2.22-2.38,4.92v8.04l4.75-1.46v-8.32c0-2.7-2.38-3.19-2.38-3.19Z"/>
        <path class="cls-1" d="M177.51,180.95s-2.39,2.31-2.54,5.01c-.15,2.73-.58,8.35-.58,8.35l5.12-1.93s.18-5.63.27-8.33c.09-2.7-2.27-3.1-2.27-3.1Z"/>
        <polygon class="cls-1" points="195.35 198.36 197.81 206.52 197.81 197.33 195.35 198.36"/>
        <polygon class="cls-1" points="203.84 194.87 206.29 201.89 206.29 193.9 203.84 194.87"/>
        <polygon class="cls-1" points="213.2 191.23 215.66 199.84 215.66 190.29 213.2 191.23"/>
        <polygon class="cls-1" points="224.11 187.12 226.56 196.09 226.56 186.22 224.11 187.12"/>
        <polygon class="cls-1" points="285.98 169.39 289.25 179.06 289.25 168.7 285.98 169.39"/>
        <polygon class="cls-1" points="300.42 166.41 303.69 176.74 303.69 165.75 300.42 166.41"/>
        <polygon class="cls-1" points="314.87 163.54 318.14 174.73 318.14 162.9 314.87 163.54"/>
        <path class="cls-1" d="M347.59,138.31s-3.23,2.52-3.23,6.42v12.02l6.47-1.14v-12.02c0-3.9-3.23-5.28-3.23-5.28Z"/>
        <path class="cls-1" d="M349.21,140.97s-1.62.59-1.62,4.5v10.72l3.23-.57v-12.02l-1.62-2.63Z"/>
        <path class="cls-1" d="M245.48,203.66s-2.38,1.94-2.38,4.64v8.32l4.75-1.18v-8.32c0-2.7-2.38-3.46-2.38-3.46Z"/>
        <path class="cls-1" d="M267.01,198.53s-2.38,1.94-2.38,4.64v8.32l4.75-1.18v-8.32c0-2.7-2.38-3.46-2.38-3.46Z"/>
        <path class="cls-1" d="M291.18,116.06s-2.38.31-2.38,3.01v8.32l4.75,2.08v-8.32c0-2.7-2.38-5.09-2.38-5.09Z"/>
        <path class="cls-1" d="M291.18,148.48s-2.38.63-2.38,3.33v8.32l4.75,1.44v-8.32c0-2.7-2.38-4.77-2.38-4.77Z"/>
        <polygon class="cls-1" points="323.39 103.21 313.39 108.38 313.85 89.68 323.39 84.14 323.39 103.21"/>
        <polygon class="cls-1" points="323.39 103.21 315.46 107.31 315.71 90.91 323.39 86.68 323.39 103.21"/>
        <path class="cls-1" d="M396.42,164.67s-2.38.85-2.38,4.87v12.39l4.75,2.32v-12.38c0-4.02-2.38-7.19-2.38-7.19Z"/>
        <path class="cls-1" d="M150.77,232.99s-2.57,1.99-2.81,4.68c-.25,2.69-.79,9.46-.79,9.46l4.87-1.84s.57-6.22.82-8.91c.25-2.69-2.08-3.39-2.08-3.39Z"/>
        <path class="cls-1" d="M151.74,234.31s-1.13.99-1.38,3.68c-.25,2.69-.7,8.19-.7,8.19l2.35-.89s.37-6.25.82-8.91c.36-2.13-1.1-2.07-1.1-2.07Z"/>
        <polygon class="cls-1" points="412.22 167.61 424.79 175.87 430.64 183.25 412.22 172.28 412.22 167.61"/>
        <path class="cls-1" d="M440.66,152.06s-.8.35-.59,3.04c.21,2.69.64,8.3.64,8.3l1.76,1.27s-.38-4.87-.59-7.57c-.21-2.69-1.22-5.04-1.22-5.04Z"/>
        <path class="cls-1" d="M413,203.04c-.02-.33-.1-.65-.23-.97-.88-2.08-3.8-3.99-8.22-5.6-7.62-2.7-19.61-5.6-33.28-5.78,0,.03.46,2.39-1.86,2.74,0,0,0,0,0,0,20.23.1,37.09,4.08,41.65,9.86h0c.05.07.52.82,1.28,2.02.48-.75.7-1.51.64-2.27Z"/>
        <path class="cls-1" d="M334.84,193.47s15.31-5.29,34.22-4.57c0,0,1.48-.49,2.22,1.78,0,0-20.11-.01-33.12,4.21,0,0,.12-2-3.31-1.43Z"/>
        <path class="cls-1" d="M418.16,74.39l-1.07-.97,2.61,31.44,8.31,33.48.4.23c6.07.67,11.84,1.91,15,5.93l-18.58-37.96-6.67-32.14Z"/>
        <polygon class="cls-1" points="418.19 74.32 416.54 74.39 415.81 45.25 416.32 45.23 418.19 74.32"/>
        <polygon class="cls-1" points="235.99 121.35 236.84 121.35 277.28 100.49 301.48 112.3 301.95 112.11 277.69 99.21 235.99 121.35"/>
        <polygon class="cls-1" points="416.32 45.23 417.08 68.75 416.39 68.71 417.04 70.13 417.16 74.39 418.19 74.32 416.32 45.23"/>
        <polygon class="cls-1" points="163.9 180.97 164.43 180.97 191.54 167.63 216.35 172.4 216.91 172.22 191.54 167.04 163.9 180.97"/>
        <path class="cls-1" d="M443.4,144.5s0,.33-.45.7c0,0-1.65-4.35-9.81-5.54-11.77-1.72-16.05-.82-16.05-.82v-.59s6.78-1.14,15.78.98c8.99,2.12,10.54,5.28,10.54,5.28Z"/>
        <path class="cls-1" d="M174.01,257.02l.07-3.43c0-.25-.19-.46-.44-.46-.25,0-.46.19-.46.44l-.07,3.43c-.67.09-1.2.66-1.21,1.36-.02.78.6,1.42,1.38,1.44h.45c.78.03,1.42-.59,1.44-1.37.02-.7-.48-1.29-1.15-1.41Z"/>
        <path class="cls-1" d="M150.42,265.76l.24-3.42c.02-.25-.17-.47-.42-.48-.25-.02-.47.17-.48.42l-.24,3.42c-.67.06-1.23.6-1.28,1.3-.05.78.53,1.45,1.31,1.5l.45.03c.78.05,1.45-.53,1.5-1.31.05-.7-.42-1.31-1.08-1.46Z"/>
        <path class="cls-1" d="M202.42,250.25v-3.43c0-.25-.2-.45-.45-.45s-.45.2-.45.45v3.43c-.67.11-1.18.69-1.18,1.39,0,.78.63,1.41,1.41,1.41h.45c.78,0,1.41-.63,1.41-1.41,0-.7-.51-1.28-1.18-1.39Z"/>
        <path class="cls-1" d="M224.56,244.33v-3.43c0-.25-.2-.45-.45-.45s-.45.2-.45.45v3.43c-.67.11-1.18.69-1.18,1.39,0,.78.63,1.41,1.41,1.41h.45c.78,0,1.41-.63,1.41-1.41,0-.7-.51-1.28-1.18-1.39Z"/>
        <path class="cls-1" d="M245.93,239.46v-3.43c0-.25-.2-.45-.45-.45s-.45.2-.45.45v3.43c-.67.11-1.18.69-1.18,1.39,0,.78.63,1.41,1.41,1.41h.45c.78,0,1.41-.63,1.41-1.41,0-.7-.51-1.28-1.18-1.39Z"/>
        <path class="cls-1" d="M269.1,235.26v-3.43c0-.25-.2-.45-.45-.45s-.45.2-.45.45v3.43c-.67.11-1.18.69-1.18,1.39,0,.78.63,1.41,1.41,1.41h.45c.78,0,1.41-.63,1.41-1.41,0-.7-.51-1.28-1.18-1.39Z"/>
        <ellipse class="cls-1" cx="417.08" cy="65.48" rx="4.22" ry="3.27"/>
        <path class="cls-1" d="M419.98,65.15c-.24,1.81-1.49,1.83-3.15,2.01-2.32.26-3.96.13-3.96-1.67s1.89-3.27,4.22-3.27,3.13,1.14,2.9,2.93Z"/>
        <path class="cls-1" d="M290.78,232.39v-3.43c0-.25-.2-.45-.45-.45s-.45.2-.45.45v3.43c-.67.11-1.18.69-1.18,1.39,0,.78.63,1.41,1.41,1.41h.45c.78,0,1.41-.63,1.41-1.41,0-.7-.51-1.28-1.18-1.39Z"/>
        <path class="cls-1" d="M448.69,235.19l-.15-3.43c-.01-.25-.09-.45-.17-.45-.08,0-.14.21-.13.46l.15,3.43c-.22.12-.36.7-.33,1.4.03.78.27,1.4.53,1.39h.15c.26-.02.44-.66.41-1.43-.03-.7-.23-1.27-.45-1.37Z"/>
        <path class="cls-1" d="M433.12,231.83v-3.43c0-.25-.17-.45-.37-.45s-.37.2-.37.45v3.43c-.54.11-.96.69-.96,1.39,0,.78.51,1.41,1.14,1.41h.37c.63,0,1.14-.63,1.14-1.41,0-.7-.41-1.28-.96-1.39Z"/>
        <path class="cls-1" d="M267.7,115.5s-1.64,2.05-1.64,4.46-.04,7.61-.04,7.61l3.37-1.67v-8.02c0-2.4-1.69-2.38-1.69-2.38Z"/>
        <path class="cls-1" d="M246.17,155.72s-1.64,2.05-1.64,4.46-.03,7.01-.03,7.01l3.36-1.06v-8.02c0-2.4-1.69-2.38-1.69-2.38Z"/>
        <path class="cls-1" d="M267.7,149.15s-1.64,2.05-1.64,4.46v6.96l3.33-1.01v-8.02c0-2.4-1.69-2.38-1.69-2.38Z"/>
        <path class="cls-1" d="M178.57,181.92s-1.79,2.05-1.79,4.46-.24,7.12-.24,7.12l3.25-1.18v-8.02c0-2.4-1.21-2.38-1.21-2.38Z"/>
        <path class="cls-1" d="M246.17,204.79s-1.64,2.05-1.64,4.46-.03,7.01-.03,7.01l3.37-.82s0-5.86,0-8.26-1.69-2.39-1.69-2.39Z"/>
        <path class="cls-1" d="M267.7,199.61s-1.64,2.05-1.64,4.46-.03,7.01-.03,7.01l3.37-.82s0-5.86,0-8.26-1.69-2.38-1.69-2.38Z"/>
        <path class="cls-1" d="M139.07,278.59s-.03,17.86-12.29,30.41c-6.18,6.32-14.39,12.02-20.18,17.05-.11.11-.24.21-.35.32h-9.13c.08-.1.16-.21.24-.32,2.19-2.76,4.29-5.57,6.16-8.32,10.62-15.53,35.55-39.14,35.55-39.14Z"/>
        <path class="cls-1" d="M195.33,262.73c-.83,1.1-29.38,38.55-33.81,51.99-2.57,7.78-7,8.99-10.07,11.34-.14.1-.29.21-.41.32h-12.31c.06-.1.14-.21.22-.32.03-.05.08-.11.11-.16,10.07-13.89,14.42-10.91,20.69-25.9,6.16-14.72,34.59-36.52,35.55-37.27h.02Z"/>
        <path class="cls-1" d="M229.25,291.58c-.48.81-10.73,18.63-18.07,34.47-.06.1-.11.21-.16.32h-9.8c.1-.11.17-.21.25-.32,3.21-4.05,8.34-10.45,14.7-18.69,7.07-9.18,12.64-15.32,13.07-15.78Z"/>
        <path class="cls-1" d="M505.33,326.37h-84.08c-.03-.11-.06-.22-.11-.32-2.33-6.1-4.07-10.61-4.48-11.69-1.64-4.19-9.4-14.62-22.61-22.82-13.1-8.11-13.16-15.66-13.16-15.8l-12.47-14.69s-4.08,2.3-10.89-4.65c-6.11-6.22-18.21-7.35-20.66-7.53h-.03c-.27-.02-.41-.02-.41-.02,2.84-.38,5.61-.71,8.34-1,3.73-.41,5.73-3.03,9.26-3.3,3.35-.25,8.24,1.84,11.4,1.7,2.56-.11,5.05-.21,7.46-.24.83-.03,1.65-.05,2.46-.05,1.13-.02,2.21,0,3.31,0,.57,0,1.15-.01,1.71,0h.52c.64,0,1.27,0,1.91.02,1.24,0,2.45.03,3.64.06h.16c6.26.16,11.93.51,16.96.97.14.02.29.02.41.03.41.03.81.08,1.21.11.29.03.57.06.86.08.24.03.48.06.71.08.91.1,1.79.19,2.67.3.3.03.6.06.89.1s.57.06.86.11c1.16.14,2.27.29,3.33.43.4.06.79.13,1.18.17.13.02.25.03.37.05.13.02.25.03.38.06.03,0,.05.02.08,0,1.02.16,1.97.3,2.87.46,1.46.24,2.81.48,4.02.71.08.02.16.03.24.05.16.03.32.06.48.1.1.02.17.03.27.05.03,0,.06.02.1.02.14.03.27.06.4.08.4.08.76.16,1.11.24t.02,0c.35.06.68.14,1,.21.14.03.29.06.43.1.24.06.49.11.71.16.21.05.4.1.57.14h.02c.51.13.94.22,1.3.32.17.05.35.1.49.13.03.02.06.02.1.02.03.02.06.03.08.03.11.03.22.06.3.08.06.02.13.03.17.05.05.02.08.02.11.03.08.02.11.03.11.03l-.16-.4c-.03-.06-.06-.14-.1-.24l-.19-.43s-.03-.1-.05-.14c-.08-.19-.17-.4-.27-.64l-.22-.56c-.21-.46-.43-1-.67-1.6l-.21-.51-.54-1.29c-.08-.21-.17-.43-.25-.65l-.02-.02-1.21-2.89h.03l9.75,1.94,2.27.46h12.26l.86.62c.08.06.16.13.22.19.37.27.71.57,1.05.89.16.14.3.29.46.44.24.24.49.48.71.73.3.32.6.65.87,1,.17.19.33.38.48.57.19.24.38.49.57.75.4.54.78,1.08,1.14,1.67.24.33.44.68.65,1.03.35.56.67,1.11.98,1.7.25.44.49.89.71,1.35.27.51.52,1.02.78,1.56.25.49.49,1.02.73,1.52.51,1.1,1.02,2.24,1.51,3.41.33.79.68,1.59,1.03,2.41.24.57.49,1.14.73,1.73.35.81.67,1.62,1,2.4.03.06.06.13.1.21.03.11.08.22.13.33.05.08.08.17.13.25.03.11.08.24.14.35.68,1.6,1.4,3.22,2.14,4.86h.02v.02c.41.89.84,1.79,1.29,2.68.25.51.51,1,.76,1.51.62,1.21,1.29,2.41,1.98,3.62.35.6.7,1.21,1.08,1.81.37.59.75,1.19,1.14,1.78,1.25,1.89,2.62,3.75,4.16,5.54-.02.02,0,.03.02.05h.02c1.3,1.56,2.73,3.06,4.29,4.53,7.57,7.07,15.16,18.72,21.45,29.98.06.11.13.22.17.32Z"/>
        <path class="cls-1" d="M274.63,246.27s-7.76-5.37-15.66,5.23c-7.9,10.61-6.66,17.15-15.87,22.87,0,0,7.97-2.3,12.33-9.19,4.36-6.89,10.33-16.23,19.2-18.92Z"/>
        <path class="cls-1" d="M436.4,305.73c-6.81-13.62-7.35-26.44-7.35-31.35,0-4.49-44.89-24.52-52.58-27.92-.6-.25-.97-.43-1.08-.48h-.02s-.03-.02-.03-.02h.78c1.45-.02,2.86-.03,4.24-.02h.52c.49.02.97.02,1.45.02h.46c.84.02,1.7.03,2.52.05.37,0,.75.02,1.11.02h.16c3.37,0,4.3-2.95,7.37-2.76,3.14.19,8.46,3.62,11.21,3.87.29.03.57.06.86.08.02,0,.02.02.02.02.24.02.46.03.7.06.91.1,1.79.19,2.67.3.3.03.6.06.89.1t.03.02c.29.02.56.05.83.1,1.16.14,2.27.29,3.33.43.4.06.79.13,1.18.17.13.02.25.03.37.05.02,0,.02.02.02.02.13.02.24.03.37.05.03,0,.05.02.08,0,1.41.14,2.81-1.54,4.03-1.33,1.44.25,2.67,2.46,3.84,2.7.03,0,.06.02.1.02.14.03.27.06.4.08.14.03.29.06.43.08.24.05.46.1.68.16t.02,0c.25.05.51.1.75.14.08.03.17.05.25.06.14.03.29.06.43.1.24.06.49.11.71.16.17.03.33.08.49.11.03.02.06.02.1.03.08.02.16.03.24.05.22.06.44.11.65.16.14.03.29.08.41.11.17.05.35.1.49.13.06.02.13.03.17.05.11.03.22.06.3.08.06.02.13.03.17.05.05.02.08.02.11.03.08.02.11.03.11.03l.11.14.3.43c.86,1.19,3.05,4.24,5.99,8.43v.02c.24.33.48.68.71,1.03l1.41,2.02c2.73,3.92,5.89,8.54,9.18,13.47.08.13.17.27.27.41,9.92,14.96,20.77,32.51,23.3,41.35.65,2.29,1.43,4.73,2.25,7.24.03.1.08.21.11.32h-33.49c0-.11.02-.22.02-.32.37-7.51-.75-11.54-5.14-20.33Z"/>
        <path class="cls-1" d="M310.06,241.86l-5.05,12.56-.02.02c-.38.98-12.56,32.3-12.67,40.91-.03,3.59-4.02,16.59-8.7,30.71-.03.1-.06.21-.11.32h-21.5c.03-.11.05-.21.08-.32,2.13-9.64,3.97-17.72,3.97-17.72,0,0,6.29-9.4,14.47-14.72,8.18-5.3-4.91-13.48,0-22.88,4.91-9.42,12.35-16.31,12.35-16.31l17.18-12.56Z"/>
        <path class="cls-1" d="M279.92,326.37c.03-.11.06-.21.1-.32,3.05-10.56,5.61-20.53,6.48-26.33,2.51-16.67,18.02-44.41,18.5-45.29l.02-.02s.3,24.87-7.11,40.95c-7.4,16.07,9.32,14.7,8.77,27.49-.05,1.03-.03,2.1.02,3.19.02.11.02.21.02.32h-26.77Z"/>
        <path class="cls-1" d="M406.58,326.37h-6.11c-.03-.11-.06-.21-.08-.32-3.29-12.83-3.97-24.42-3.97-24.42l10.04,24.42.13.32Z"/>
        <path class="cls-1" d="M439.91,263.58l39.5,27.97s-9.61-14.82-13.1-23.02c-3.48-8.2-6.71-18.91-14.49-23.97,0,0-10.34-.27-24.32-2.4l3.88,9.35,8.53,12.07Z"/>
        <path class="cls-1" d="M278.51,171.01l30.41-6.29-5.22-4.13s-16.52,3.5-18.37,4.14c0,0-6.7,5.86-6.81,6.28Z"/>
        <path class="cls-1" d="M143,230.41h.51s5.02-4.14,7.01-5.64c1.99-1.5,8.9-6.34,8.9-6.34l.19-.63s-11.01,7.37-16.62,12.6Z"/>
        <path class="cls-1" d="M308.94,27.34c-.08-3.84-1.32-6.16-1.82-6.95-.13-.2-.2-.3-.2-.3-1.38,6.4-7.58,12.73-5.23,14.91l3.33,6.07,2.17-5.45c.82-2.47,1.59-5.47,1.75-8.28Z"/>
        <path class="cls-1" d="M357.46,326.05c-.02.11-.02.21-.02.32h-13.13c.02-.13.03-.24.03-.32.02-.13.02-.19.02-.19l6.46-15.58-7.19-14.69s10.15,6.42,13.15,19.98c.7,3.18.86,6.8.68,10.48Z"/>
        <path class="cls-1" d="M336.43,248.86s-3.77-3.72-9.68,0c-5.9,3.72-5.09,4.68-5.9,7.61s-8.45,13.28-8.45,13.28l-2.33,11.99s14.9-26.57,20.34-27.32l1.62-2.91,4.41-2.65Z"/>
        <path class="cls-1" d="M366.63,246.37s1.91-.19,7.36,10.09,6.9,19.28,6.9,19.28c0,0,1.72-6.44,0-13.03-1.72-6.59-5.54-9.59-5.54-9.59l-1.2-3.42-7.51-3.34Z"/>
        <path class="cls-1" d="M205.48,301.64s7.04-5.69,10.18-6.04c3.14-.35,4.76-4.03,8.45-8.12,3.69-4.09,1.64-15.13,1.64-15.13,0,0,.4-6.16.82-7.17.42-1.01-6.71,10.55-6.71,10.55,0,0,2.68,3.54,0,7.64s-9.63,6.15-9.63,6.15v2.02l-4.42,4.05-.31,6.04Z"/>
      </g>
    </g>
  </g>
</svg>