<?xml version="1.0" encoding="UTF-8"?>
<svg id="Layer_2" data-name="Layer 2" xmlns="http://www.w3.org/2000/svg" viewBox="0 0 542.06 326.37">
  <defs>
    <style>
      .cls-1, .cls-2 {
        fill: #ee2b8c;
      }

      .cls-2 {
        stroke: #aa005d;
        stroke-linejoin: round;
      }

      .cls-3 {
        fill: #aa005d;
      }
    </style>
  </defs>
  <g id="Layer_1-2" data-name="Layer 1">
    <g>
      <g>
        <path class="cls-1" d="M541.88,4.13v317.79c0,2.29-1.86,4.13-4.13,4.13H4.13c-1.02,0-1.94-.37-2.67-.97-.89-.76-1.46-1.89-1.46-3.16V4.13C0,1.84,1.84,0,4.13,0h533.62c2.27,0,4.13,1.84,4.13,4.13Z"/>
        <g>
          <g>
            <polygon class="cls-3" points="124.3 326.37 32.16 326.37 32.17 326.05 34.82 235.6 34.82 235.54 121.02 235.54 124.29 326.05 124.3 326.37"/>
            <polygon class="cls-3" points="36.14 235.54 32.71 326.05 32.7 326.37 1.44 326.37 1.46 325.08 1.76 237.38 34.82 235.6 36.14 235.54"/>
            <circle class="cls-1" cx="80.37" cy="279.03" r="29.08" transform="translate(-173.76 138.56) rotate(-45)"/>
            <path class="cls-3" d="M53.42,279.03c0,3.97.86,7.75,2.41,11.15,4.23,9.33,13.63,15.81,24.55,15.81,3.15,0,6.16-.54,8.97-1.53,10.47-3.69,17.98-13.68,17.98-25.43,0-14.88-12.06-26.95-26.95-26.95s-26.96,12.06-26.96,26.95Z"/>
            <path class="cls-1" d="M56.39,289.93c4.4,8.89,13.57,15.01,24.16,15.01,2.98,0,5.84-.48,8.51-1.38l-3.71-11.68s-5.96.39-9.56-1.84c-3.61-2.23-5.47-5.81-5.47-5.81,0,0-6.54,2.48-13.94,5.71Z"/>
            <circle class="cls-1" cx="82.03" cy="278.7" r="11.34" transform="translate(-170.07 134.31) rotate(-43.8)"/>
            <circle class="cls-3" cx="84.12" cy="275.9" r="5.52" transform="translate(-43.01 16.99) rotate(-9.2)"/>
            <path class="cls-1" d="M103.14,326.37h-46.22c.08-.11.16-.22.25-.32,5.32-6.76,13.58-11.12,22.85-11.12s17.55,4.35,22.87,11.12c.1.1.17.21.25.32Z"/>
            <path class="cls-3" d="M100.39,326.37h-40.73c.08-.11.17-.22.27-.32,4.94-5.51,12.12-8.99,20.1-8.99s15.15,3.48,20.09,8.99c.1.1.19.21.27.32Z"/>
            <path class="cls-1" d="M116.74,312.08c.06.69,1.09.64,1.08-.06l-1.26-68.76c-.02-.56-.47-1.01-1.04-1.02l-46.12-.55c-1.35-.02-1.45,1.97-.11,2.1l40.93,3.8c.51.05.91.46.95.97l5.56,63.52Z"/>
            <polygon class="cls-1" points="27.18 246.02 26.4 265.41 7.79 264.36 8.58 246.28 27.18 246.02"/>
          </g>
          <g>
            <circle class="cls-3" cx="19.57" cy="30.76" r="6.79" transform="translate(-10.28 9.83) rotate(-22.5)"/>
            <path class="cls-3" d="M503.23,288.71c0,2.11-1.71,3.82-3.82,3.82s-3.82-1.71-3.82-3.82,1.71-3.82,3.82-3.82,3.82,1.71,3.82,3.82Z"/>
            <circle class="cls-3" cx="164.41" cy="280.51" r="6.79" transform="translate(-146.28 376.36) rotate(-76.77)"/>
            <path class="cls-3" d="M511.51,47.1c0,1.64-1.33,2.97-2.97,2.97s-2.97-1.33-2.97-2.97,1.33-2.97,2.97-2.97,2.97,1.33,2.97,2.97Z"/>
            <path class="cls-3" d="M295.35,16.34c0,1.41-1.14,2.55-2.55,2.55s-2.55-1.14-2.55-2.55,1.14-2.55,2.55-2.55,2.55,1.14,2.55,2.55Z"/>
            <path class="cls-3" d="M43.02,204.56c0,2.58-2.09,4.67-4.67,4.67s-4.67-2.09-4.67-4.67,2.09-4.67,4.67-4.67,4.67,2.09,4.67,4.67Z"/>
            <path class="cls-3" d="M443.84,146.16c0,2.34-1.9,4.24-4.24,4.24s-4.24-1.9-4.24-4.24,1.9-4.24,4.24-4.24,4.24,1.9,4.24,4.24Z"/>
            <path class="cls-3" d="M112.93,193.02c0,2.11-1.71,3.82-3.82,3.82s-3.82-1.71-3.82-3.82,1.71-3.82,3.82-3.82,3.82,1.71,3.82,3.82Z"/>
            <path class="cls-3" d="M194.94,237.84c0,2.11-1.71,3.82-3.82,3.82s-3.82-1.71-3.82-3.82,1.71-3.82,3.82-3.82,3.82,1.71,3.82,3.82Z"/>
          </g>
          <g>
            <path class="cls-3" d="M200.49,34.16v.02c.21,1.45-1.79,2.91-3.24,1.62l-1.65-1.35-5.7-4.67c-10.32-7.8-21.85-14.05-34.17-18.04-12.24-3.94-25.12-5.54-37.95-4.4-12.74,1.14-25.28,5.03-36.2,11.72-10.23,6.24-18.83,15.01-24.88,25.34-6.07,10.34-9.42,22.09-9.29,34.08.08,7.19,1.16,14.26,2.45,21.33,1.13,6.22,2.43,12.42,3.3,18.67.29,2.03.52,4.08.7,6.15.95,10.8.16,21.8-5.11,31.54-5.4,9.96-14.78,17.59-25.47,21.23-6,2.06-12.29,2.67-18.44,1.94-1.62-.19-3.24-.48-4.83-.86v-3.81c.46.11.94.22,1.4.33,2.16.49,4.35.78,6.53.87,8.78.38,17.51-2.38,24.8-7.42,9.64-6.69,15.74-17.01,17.31-28.6.51-3.81.6-7.62.41-11.43-.41-8.4-2.18-16.8-3.73-25.03-.16-.89-.32-1.76-.48-2.64-1.22-6.64-2.29-13.35-2.54-20.1-.24-6.18.32-12.35,1.75-18.37,2.76-11.64,8.59-22.47,16.42-31.46,8.18-9.4,18.59-16.51,30.12-21.17,11.93-4.81,24.98-6.88,37.81-6.37,12.97.49,25.69,3.7,37.57,8.88,11.89,5.19,22.82,12.4,32.54,20.98.27.24.44.51.52.78.02.08.05.16.06.24Z"/>
            <polygon class="cls-3" points="85.62 89.16 84.14 90.83 53.85 124.62 50.45 128.42 7.92 175.86 4.83 179.33 0 184.69 0 157.03 46.72 103.39 49.85 99.8 70.73 75.82 71.04 75.46 85.62 89.16"/>
            <polygon class="cls-3" points="94.24 80.83 113.48 93.69 104.57 103.59 85.62 89.17 94.24 80.83"/>
            <polygon class="cls-3" points="124.51 97.23 172.87 110.24 170.05 119.57 121.26 110.52 124.51 97.23"/>
            <path class="cls-3" d="M186.03,68.8l2.4-13.58,6.45-19.59c.52-1.57,2.13-2.49,3.74-2.13l.76.17c1.58.35,2.65,1.83,2.5,3.44l-1.99,20.65-3.25,14.57-10.61-3.54Z"/>
            <path class="cls-3" d="M188.43,55.23s4.99-2.72,12.09,3.32c-1.91,11.24-3.61,16.33-3.61,16.33l-12.52-4.45,4.03-15.2Z"/>
            <path class="cls-3" d="M181.05,73.67l1.63-4.96c.29-.89,1.24-1.39,2.14-1.13l12.47,3.67c.87.26,1.4,1.14,1.21,2.02l-1.18,5.64c-.21,1.02-1.27,1.62-2.25,1.29l-12.92-4.34c-.9-.3-1.39-1.28-1.1-2.19Z"/>
            <path class="cls-3" d="M177.84,78.91l1.32-4.36c.32-1.05,1.42-1.64,2.47-1.33l15.69,4.65c.98.29,1.58,1.27,1.39,2.28l-1.03,5.4c-.23,1.2-1.47,1.91-2.62,1.5l-15.97-5.69c-1-.36-1.54-1.43-1.23-2.45Z"/>
            <path class="cls-3" d="M199.44,88.25l-9.6,65.39-1.2,8.17-4.1,27.96c-.58,3.95-3.64,7.03-7.5,7.69-.32.05-.64.09-.97.11-2.79.17-6.49.03-11.32-.77-5.34-.9-9.16-2.29-11.86-3.7-.41-.22-.8-.46-1.16-.73-3.01-2.2-4.42-6.05-3.44-9.73l7.87-29.58,2.31-8.7,16.59-62.35c.67-2.51,3.27-3.99,5.76-3.27l15.3,4.37c2.24.64,3.66,2.84,3.32,5.15Z"/>
            <path class="cls-3" d="M174.01,152.95s14.99-63.64,19.23-63.64-6.22,66.47-6.22,66.47c0,0-5.66.85-13.01-2.83Z"/>
            <path class="cls-3" d="M189.84,153.64l-1.2,8.17c-14.49,1.03-28.28-6.3-32.49-8.76l2.31-8.7s.04.02.06.03c10.67,7.86,26.65,9.05,31.2,9.24.04,0,.08,0,.11.02Z"/>
            <path class="cls-3" d="M191.11,153.5c-.16,1.24-.45,3.33-.9,5.93-.08.5-.49.89-1,.95-.02,0-.02,0-.04,0-3.28.26-6.52.08-9.62-.38-11.44-1.68-21.04-7.11-23.7-8.72-.44-.26-.64-.78-.51-1.27l1.68-6.41c.21-.78,1.14-1.11,1.8-.63,6.57,4.84,15.17,7.15,21.86,8.26,4.17.69,7.6.92,9.35.98.13,0,.25.03.35.08.49.17.81.67.74,1.22Z"/>
            <path class="cls-3" d="M190.36,152.29l-1.16,8.09s-.02,0-.04,0c-3.28.26-6.52.08-9.62-.38,1.01-3,1.19-6.3,1.12-8.78,4.17.69,7.6.92,9.35.98.13,0,.25.03.35.08Z"/>
            <path class="cls-3" d="M177.04,197.46c-.32.05-.64.09-.97.11-2.79.17-6.49.03-11.32-.77-5.34-.9-9.16-2.29-11.86-3.7-.41-.22-.8-.46-1.16-.73,2.34-4.88,12.6-25.35,19.45-23.85,5.9,1.28,6.1,19.99,5.86,28.95Z"/>
            <polygon class="cls-3" points="170.82 150.97 169.9 155.43 174.92 156.77 175.99 152.38 170.82 150.97"/>
            <circle class="cls-3" cx="151.38" cy="63.85" r="4.53"/>
            <circle class="cls-3" cx="133.56" cy="144.46" r="4.53"/>
            <path class="cls-3" d="M204.55,160.87c0,2.5-2.03,4.53-4.53,4.53s-4.53-2.03-4.53-4.53,2.03-4.53,4.53-4.53,4.53,2.03,4.53,4.53Z"/>
            <path class="cls-3" d="M222.37,87.05c0,2.5-2.03,4.53-4.53,4.53s-4.53-2.03-4.53-4.53,2.03-4.53,4.53-4.53,4.53,2.03,4.53,4.53Z"/>
            <path class="cls-3" d="M201.03,120.78l-1.3,2.73-.75,1.56.02,1.76.03,3.02.21,26.58c.11-.03.22-.05.35-.06.14-.02.29-.02.44-.02h.11c.1,0,.21.02.3.02.08.02.17.02.27.05h.03l-.13-14.8v-.03l-.1-11.89-.02-3.02-.02-1.27.48-1,1.32-2.76,2.43-5.13s.02-.03.02-.06c.1-.38.21-.76.3-1.14.11-.43.22-.86.33-1.27.4-1.49.83-2.95,1.27-4.37.17-.59.35-1.18.54-1.75.03-.11.06-.24.11-.35l-6.26,13.21ZM201.03,120.78l-1.3,2.73-.75,1.56.02,1.76.03,3.02.21,26.58c.11-.03.22-.05.35-.06.14-.02.29-.02.44-.02h.11c.1,0,.21.02.3.02.08.02.17.02.27.05h.03l-.13-14.8v-.03l-.1-11.89-.02-3.02-.02-1.27.48-1,1.32-2.76,2.43-5.13s.02-.03.02-.06c.1-.38.21-.76.3-1.14.11-.43.22-.86.33-1.27.4-1.49.83-2.95,1.27-4.37.17-.59.35-1.18.54-1.75.03-.11.06-.24.11-.35l-6.26,13.21ZM201.03,120.78l-1.3,2.73-.75,1.56.02,1.76.03,3.02.21,26.58c.11-.03.22-.05.35-.06.14-.02.29-.02.44-.02h.11c.1,0,.21.02.3.02.08.02.17.02.27.05h.03l-.13-14.8v-.03l-.1-11.89-.02-3.02-.02-1.27.48-1,1.32-2.76,2.43-5.13s.02-.03.02-.06c.1-.38.21-.76.3-1.14.11-.43.22-.86.33-1.27.4-1.49.83-2.95,1.27-4.37.17-.59.35-1.18.54-1.75.03-.11.06-.24.11-.35l-6.26,13.21ZM201.03,120.78l-1.3,2.73-.75,1.56.02,1.76.03,3.02.21,26.58c.11-.03.22-.05.35-.06.14-.02.29-.02.44-.02h.11c.1,0,.21.02.3.02.08.02.17.02.27.05h.03l-.13-14.8v-.03l-.1-11.89-.02-3.02-.02-1.27.48-1,1.32-2.76,2.43-5.13s.02-.03.02-.06c.1-.38.21-.76.3-1.14.11-.43.22-.86.33-1.27.4-1.49.83-2.95,1.27-4.37.17-.59.35-1.18.54-1.75.03-.11.06-.24.11-.35l-6.26,13.21ZM201.03,120.78l-1.3,2.73-.75,1.56.02,1.76.03,3.02.21,26.58c.11-.03.22-.05.35-.06.14-.02.29-.02.44-.02h.11c.1,0,.21.02.3.02.08.02.17.02.27.05h.03l-.13-14.8v-.03l-.1-11.89-.02-3.02-.02-1.27.48-1,1.32-2.76,2.43-5.13s.02-.03.02-.06c.1-.38.21-.76.3-1.14.11-.43.22-.86.33-1.27.4-1.49.83-2.95,1.27-4.37.17-.59.35-1.18.54-1.75.03-.11.06-.24.11-.35l-6.26,13.21ZM201.03,120.78l-1.3,2.73-.75,1.56.02,1.76.03,3.02.21,26.58c.11-.03.22-.05.35-.06.14-.02.29-.02.44-.02h.11c.1,0,.21.02.3.02.08.02.17.02.27.05h.03l-.13-14.8v-.03l-.1-11.89-.02-3.02-.02-1.27.48-1,1.32-2.76,2.43-5.13s.02-.03.02-.06c.1-.38.21-.76.3-1.14.11-.43.22-.86.33-1.27.4-1.49.83-2.95,1.27-4.37.17-.59.35-1.18.54-1.75.03-.11.06-.24.11-.35l-6.26,13.21ZM201.03,120.78l-1.3,2.73-.75,1.56.02,1.76.03,3.02.21,26.58c.11-.03.22-.05.35-.06.14-.02.29-.02.44-.02h.11c.1,0,.21.02.3.02.08.02.17.02.27.05h.03l-.13-14.8v-.03l-.1-11.89-.02-3.02-.02-1.27.48-1,1.32-2.76,2.43-5.13s.02-.03.02-.06c.1-.38.21-.76.3-1.14.11-.43.22-.86.33-1.27.4-1.49.83-2.95,1.27-4.37.17-.59.35-1.18.54-1.75.03-.11.06-.24.11-.35l-6.26,13.21ZM201.03,120.78l-1.3,2.73-.75,1.56.02,1.76.03,3.02.21,26.58c.11-.03.22-.05.35-.06.14-.02.29-.02.44-.02h.11c.1,0,.21.02.3.02.08.02.17.02.27.05h.03l-.13-14.8v-.03l-.1-11.89-.02-3.02-.02-1.27.48-1,1.32-2.76,2.43-5.13s.02-.03.02-.06c.1-.38.21-.76.3-1.14.11-.43.22-.86.33-1.27.4-1.49.83-2.95,1.27-4.37.17-.59.35-1.18.54-1.75.03-.11.06-.24.11-.35l-6.26,13.21ZM201.03,120.78l-1.3,2.73-.75,1.56.02,1.76.03,3.02.21,26.58c.11-.03.22-.05.35-.06.14-.02.29-.02.44-.02h.11c.1,0,.21.02.3.02.08.02.17.02.27.05h.03l-.13-14.8v-.03l-.1-11.89-.02-3.02-.02-1.27.48-1,1.32-2.76,2.43-5.13s.02-.03.02-.06c.1-.38.21-.76.3-1.14.11-.43.22-.86.33-1.27.4-1.49.83-2.95,1.27-4.37.17-.59.35-1.18.54-1.75.03-.11.06-.24.11-.35l-6.26,13.21ZM201.03,120.78l-1.3,2.73-.75,1.56.02,1.76.03,3.02.21,26.58c.11-.03.22-.05.35-.06.14-.02.29-.02.44-.02h.11c.1,0,.21.02.3.02.08.02.17.02.27.05h.03l-.13-14.8v-.03l-.1-11.89-.02-3.02-.02-1.27.48-1,1.32-2.76,2.43-5.13s.02-.03.02-.06c.1-.38.21-.76.3-1.14.11-.43.22-.86.33-1.27.4-1.49.83-2.95,1.27-4.37.17-.59.35-1.18.54-1.75.03-.11.06-.24.11-.35l-6.26,13.21ZM201.03,120.78l-1.3,2.73-.75,1.56.02,1.76.03,3.02.21,26.58c.11-.03.22-.05.35-.06.14-.02.29-.02.44-.02h.11c.1,0,.21.02.3.02.08.02.17.02.27.05h.03l-.13-14.8v-.03l-.1-11.89-.02-3.02-.02-1.27.48-1,1.32-2.76,2.43-5.13s.02-.03.02-.06c.1-.38.21-.76.3-1.14.11-.43.22-.86.33-1.27.4-1.49.83-2.95,1.27-4.37.17-.59.35-1.18.54-1.75.03-.11.06-.24.11-.35l-6.26,13.21ZM201.03,120.78l-1.3,2.73-.75,1.56.02,1.76.03,3.02.21,26.58c.11-.03.22-.05.35-.06.14-.02.29-.02.44-.02h.11c.1,0,.21.02.3.02.08.02.17.02.27.05h.03l-.13-14.8v-.03l-.1-11.89-.02-3.02-.02-1.27.48-1,1.32-2.76,2.43-5.13s.02-.03.02-.06c.1-.38.21-.76.3-1.14.11-.43.22-.86.33-1.27.4-1.49.83-2.95,1.27-4.37.17-.59.35-1.18.54-1.75.03-.11.06-.24.11-.35l-6.26,13.21ZM201.03,120.78l-1.3,2.73-.75,1.56.02,1.76.03,3.02.21,26.58c.11-.03.22-.05.35-.06.14-.02.29-.02.44-.02h.11c.1,0,.21.02.3.02.08.02.17.02.27.05h.03l-.13-14.8v-.03l-.1-11.89-.02-3.02-.02-1.27.48-1,1.32-2.76,2.43-5.13s.02-.03.02-.06c.1-.38.21-.76.3-1.14.11-.43.22-.86.33-1.27.4-1.49.83-2.95,1.27-4.37.17-.59.35-1.18.54-1.75.03-.11.06-.24.11-.35l-6.26,13.21ZM217.37,86.45l-3.83,2.02-15.31,8.05h-.02l-4.11,2.16-6.61,3.48h-.02l-8.13,4.27-7.62-11.97-17.32-27.23v-.02l-3.83-6,.13,7.13.62,36.11.08,4.4.05,3.11.02.92-.16.25-1.56,2.6-.03.08-14.53,24.44-3.22,5.43,6.08-1.65h.02l22.07-5.99,13.91-3.76,3.57,3.81.02.02,10.37,11.05.02.02,2.13,2.29,6.27,6.67,3.99,4.26.38.4-.05-6.37-.13-14.8v-.03l-.1-11.89-.02-3.02-.02-1.27.48-1,1.32-2.76,2.43-5.13s.02-.03.02-.06l11.88-25.04,2.89-6.07-2.13,1.11ZM207.32,107.49s-.03.06-.03.08l-6.26,13.21-1.3,2.73-.75,1.56.02,1.76.03,3.02.21,26.58.02,2.52-1.73-1.84-7.08-7.56-2.13-2.27-.02-.02-10.23-10.89-3.54-3.78-13.94,3.78-22.91,6.21h-.02l-2.51.68,1.33-2.24,14.48-24.36.33-.57,1.19-2,.49-.83-.03-1.68-.05-3.02-.06-3.72-.64-36.54v-.02l-.03-1.79.97,1.52,18.07,28.41,7.62,11.96,8.03-4.22,7.15-3.75,3.95-2.08,16.28-8.56,1.32-.68.03-.02.6-.33-.94,2v.02l-7.94,16.72ZM201.03,120.78l-1.3,2.73-.75,1.56.02,1.76.03,3.02.21,26.58c.11-.03.22-.05.35-.06.14-.02.29-.02.44-.02h.11c.1,0,.21.02.3.02.08.02.17.02.27.05h.03l-.13-14.8v-.03l-.1-11.89-.02-3.02-.02-1.27.48-1,1.32-2.76,2.43-5.13s.02-.03.02-.06c.1-.38.21-.76.3-1.14.11-.43.22-.86.33-1.27.4-1.49.83-2.95,1.27-4.37.17-.59.35-1.18.54-1.75.03-.11.06-.24.11-.35l-6.26,13.21ZM201.03,120.78l-1.3,2.73-.75,1.56.02,1.76.03,3.02.21,26.58c.11-.03.22-.05.35-.06.14-.02.29-.02.44-.02h.11c.1,0,.21.02.3.02.08.02.17.02.27.05h.03l-.13-14.8v-.03l-.1-11.89-.02-3.02-.02-1.27.48-1,1.32-2.76,2.43-5.13s.02-.03.02-.06c.1-.38.21-.76.3-1.14.11-.43.22-.86.33-1.27.4-1.49.83-2.95,1.27-4.37.17-.59.35-1.18.54-1.75.03-.11.06-.24.11-.35l-6.26,13.21ZM201.03,120.78l-1.3,2.73-.75,1.56.02,1.76.03,3.02.21,26.58c.11-.03.22-.05.35-.06.14-.02.29-.02.44-.02h.11c.1,0,.21.02.3.02.08.02.17.02.27.05h.03l-.13-14.8v-.03l-.1-11.89-.02-3.02-.02-1.27.48-1,1.32-2.76,2.43-5.13s.02-.03.02-.06c.1-.38.21-.76.3-1.14.11-.43.22-.86.33-1.27.4-1.49.83-2.95,1.27-4.37.17-.59.35-1.18.54-1.75.03-.11.06-.24.11-.35l-6.26,13.21ZM201.03,120.78l-1.3,2.73-.75,1.56.02,1.76.03,3.02.21,26.58c.11-.03.22-.05.35-.06.14-.02.29-.02.44-.02h.11c.1,0,.21.02.3.02.08.02.17.02.27.05h.03l-.13-14.8v-.03l-.1-11.89-.02-3.02-.02-1.27.48-1,1.32-2.76,2.43-5.13s.02-.03.02-.06c.1-.38.21-.76.3-1.14.11-.43.22-.86.33-1.27.4-1.49.83-2.95,1.27-4.37.17-.59.35-1.18.54-1.75.03-.11.06-.24.11-.35l-6.26,13.21ZM201.03,120.78l-1.3,2.73-.75,1.56.02,1.76.03,3.02.21,26.58c.11-.03.22-.05.35-.06.14-.02.29-.02.44-.02h.11c.1,0,.21.02.3.02.08.02.17.02.27.05h.03l-.13-14.8v-.03l-.1-11.89-.02-3.02-.02-1.27.48-1,1.32-2.76,2.43-5.13s.02-.03.02-.06c.1-.38.21-.76.3-1.14.11-.43.22-.86.33-1.27.4-1.49.83-2.95,1.27-4.37.17-.59.35-1.18.54-1.75.03-.11.06-.24.11-.35l-6.26,13.21ZM201.03,120.78l-1.3,2.73-.75,1.56.02,1.76.03,3.02.21,26.58c.11-.03.22-.05.35-.06.14-.02.29-.02.44-.02h.11c.1,0,.21.02.3.02.08.02.17.02.27.05h.03l-.13-14.8v-.03l-.1-11.89-.02-3.02-.02-1.27.48-1,1.32-2.76,2.43-5.13s.02-.03.02-.06c.1-.38.21-.76.3-1.14.11-.43.22-.86.33-1.27.4-1.49.83-2.95,1.27-4.37.17-.59.35-1.18.54-1.75.03-.11.06-.24.11-.35l-6.26,13.21ZM201.03,120.78l-1.3,2.73-.75,1.56.02,1.76.03,3.02.21,26.58c.11-.03.22-.05.35-.06.14-.02.29-.02.44-.02h.11c.1,0,.21.02.3.02.08.02.17.02.27.05h.03l-.13-14.8v-.03l-.1-11.89-.02-3.02-.02-1.27.48-1,1.32-2.76,2.43-5.13s.02-.03.02-.06c.1-.38.21-.76.3-1.14.11-.43.22-.86.33-1.27.4-1.49.83-2.95,1.27-4.37.17-.59.35-1.18.54-1.75.03-.11.06-.24.11-.35l-6.26,13.21ZM201.03,120.78l-1.3,2.73-.75,1.56.02,1.76.03,3.02.21,26.58c.11-.03.22-.05.35-.06.14-.02.29-.02.44-.02h.11c.1,0,.21.02.3.02.08.02.17.02.27.05h.03l-.13-14.8v-.03l-.1-11.89-.02-3.02-.02-1.27.48-1,1.32-2.76,2.43-5.13s.02-.03.02-.06c.1-.38.21-.76.3-1.14.11-.43.22-.86.33-1.27.4-1.49.83-2.95,1.27-4.37.17-.59.35-1.18.54-1.75.03-.11.06-.24.11-.35l-6.26,13.21ZM201.03,120.78l-1.3,2.73-.75,1.56.02,1.76.03,3.02.21,26.58c.11-.03.22-.05.35-.06.14-.02.29-.02.44-.02h.11c.1,0,.21.02.3.02.08.02.17.02.27.05h.03l-.13-14.8v-.03l-.1-11.89-.02-3.02-.02-1.27.48-1,1.32-2.76,2.43-5.13s.02-.03.02-.06c.1-.38.21-.76.3-1.14.11-.43.22-.86.33-1.27.4-1.49.83-2.95,1.27-4.37.17-.59.35-1.18.54-1.75.03-.11.06-.24.11-.35l-6.26,13.21ZM201.03,120.78l-1.3,2.73-.75,1.56.02,1.76.03,3.02.21,26.58c.11-.03.22-.05.35-.06.14-.02.29-.02.44-.02h.11c.1,0,.21.02.3.02.08.02.17.02.27.05h.03l-.13-14.8v-.03l-.1-11.89-.02-3.02-.02-1.27.48-1,1.32-2.76,2.43-5.13s.02-.03.02-.06c.1-.38.21-.76.3-1.14.11-.43.22-.86.33-1.27.4-1.49.83-2.95,1.27-4.37.17-.59.35-1.18.54-1.75.03-.11.06-.24.11-.35l-6.26,13.21ZM201.03,120.78l-1.3,2.73-.75,1.56.02,1.76.03,3.02.21,26.58c.11-.03.22-.05.35-.06.14-.02.29-.02.44-.02h.11c.1,0,.21.02.3.02.08.02.17.02.27.05h.03l-.13-14.8v-.03l-.1-11.89-.02-3.02-.02-1.27.48-1,1.32-2.76,2.43-5.13s.02-.03.02-.06c.1-.38.21-.76.3-1.14.11-.43.22-.86.33-1.27.4-1.49.83-2.95,1.27-4.37.17-.59.35-1.18.54-1.75.03-.11.06-.24.11-.35l-6.26,13.21ZM201.03,120.78l-1.3,2.73-.75,1.56.02,1.76.03,3.02.21,26.58c.11-.03.22-.05.35-.06.14-.02.29-.02.44-.02h.11c.1,0,.21.02.3.02.08.02.17.02.27.05h.03l-.13-14.8v-.03l-.1-11.89-.02-3.02-.02-1.27.48-1,1.32-2.76,2.43-5.13s.02-.03.02-.06c.1-.38.21-.76.3-1.14.11-.43.22-.86.33-1.27.4-1.49.83-2.95,1.27-4.37.17-.59.35-1.18.54-1.75.03-.11.06-.24.11-.35l-6.26,13.21ZM201.03,120.78l-1.3,2.73-.75,1.56.02,1.76.03,3.02.21,26.58c.11-.03.22-.05.35-.06.14-.02.29-.02.44-.02h.11c.1,0,.21.02.3.02.08.02.17.02.27.05h.03l-.13-14.8v-.03l-.1-11.89-.02-3.02-.02-1.27.48-1,1.32-2.76,2.43-5.13s.02-.03.02-.06c.1-.38.21-.76.3-1.14.11-.43.22-.86.33-1.27.4-1.49.83-2.95,1.27-4.37.17-.59.35-1.18.54-1.75.03-.11.06-.24.11-.35l-6.26,13.21Z"/>
            <path class="cls-3" d="M203.37,122.52l-.02-.02c-.33-.29-.67-.57-1.06-.87-.4-.29-.81-.57-1.25-.86-1.56-.98-3.53-1.97-5.92-2.99l-.46,3.11c2.27.98,3.91,1.86,5.08,2.6.49.32.91.62,1.24.89,1,.78,1.32,1.32,1.29,1.57-.06.19-.57.49-1.75.7-.41.06-.91.11-1.51.16-1.27.08-2.97.06-5.21-.16-.78-.08-1.64-.17-2.56-.3-2.72-.38-6.03-.98-10.08-1.97-1.67-.4-3.46-.84-5.38-1.38-4.22-1.14-7.78-2.25-10.77-3.27-2.24-.78-4.16-1.49-5.78-2.18-.02,0-.02-.02-.02-.02-3.33-1.38-5.45-2.56-6.72-3.46-.52-.37-.91-.7-1.18-.97-.32-.35-.46-.6-.46-.78.05-.11.25-.25.6-.4.35-.13.83-.27,1.49-.37.73-.11,1.67-.17,2.86-.17,2.49,0,6.08.32,11.08,1.27l.76-2.89c-3.87-.76-7.3-1.21-10.16-1.33-1.78-.1-3.32-.05-4.59.11-.54.06-1.05.16-1.49.27-1.95.48-3.1,1.38-3.46,2.7-.43,1.56.43,2.97,1.81,4.19.05.03.06.05.1.1l.02.02c.35.29.7.57,1.1.83,1.16.83,2.52,1.56,3.73,2.14,2.51,1.25,5.73,2.54,9.54,3.84,3.19,1.1,6.8,2.19,10.75,3.27,1.65.44,3.48.92,5.4,1.4,3.37.79,7.02,1.56,10.45,2.03.86.11,1.7.22,2.52.3,1.43.14,2.81.22,4.08.22.54,0,1.08-.02,1.59-.03.52-.05,1.03-.1,1.49-.16.57-.1,1.1-.21,1.59-.35h.02c1.59-.48,2.68-1.3,3.02-2.57h.02c.37-1.38-.22-2.78-1.79-4.24Z"/>
            <ellipse class="cls-3" cx="222.2" cy="135.86" rx="57.91" ry="20.83" transform="translate(57.38 337.52) rotate(-82.18)"/>
            <ellipse class="cls-3" cx="225.17" cy="136.61" rx="57.91" ry="20.83" transform="translate(59.2 341.11) rotate(-82.18)"/>
            <ellipse class="cls-3" cx="226.4" cy="136.49" rx="50.43" ry="18.14" transform="translate(60.38 342.23) rotate(-82.18)"/>
            <circle class="cls-3" cx="114.47" cy="100.77" r="13.15" transform="translate(-9.75 189.24) rotate(-76.82)"/>
            <path class="cls-3" d="M125.17,100.76c0,.65-.06,1.29-.17,1.91-.9,5.01-5.27,8.81-10.53,8.81s-9.63-3.79-10.53-8.81c-.11-.62-.17-1.25-.17-1.91,0-5.91,4.79-10.71,10.71-10.71s10.71,4.79,10.71,10.71Z"/>
            <path class="cls-3" d="M125,102.67c-.9,5.01-5.27,8.81-10.53,8.81s-9.63-3.79-10.53-8.81c.9-5,5.27-8.8,10.53-8.8s9.63,3.79,10.53,8.8Z"/>
            <path class="cls-3" d="M91.21,90.63l-.03.03c-1.41,1.26-2.99,2.2-4.68,2.81l-18.02-20.13c.8-1.6,1.9-3.07,3.31-4.33l.03-.03c5.98-5.32,15.15-4.81,20.49,1.17,5.34,5.97,4.84,15.13-1.11,20.49Z"/>
            <rect class="cls-3" x="76.81" y="65.88" width="5.39" height="31.44" rx="1.1" ry="1.1" transform="translate(-34.16 73.83) rotate(-41.83)"/>
          </g>
          <g>
            <path class="cls-3" d="M542.06,106.57c0,1.11-.06,2.22-.17,3.3v58.53h-70.93v-100.91h70.93v35.78c.11,1.08.17,2.19.17,3.3Z"/>
            <path class="cls-1" d="M542.06,106.57c0,1.11-.06,2.22-.17,3.3v54.56h-67.77v-92.96h67.77v31.79c.11,1.08.17,2.19.17,3.3Z"/>
            <path class="cls-3" d="M541.88,103.26c-1.65-15.61-14.86-27.79-30.92-27.79-17.17,0-31.09,13.93-31.09,31.09s13.93,31.09,31.09,31.09c16.05,0,29.27-12.18,30.92-27.79.11-1.08.17-2.19.17-3.3s-.06-2.22-.17-3.3ZM510.97,102.34c2.32,0,4.21,1.89,4.21,4.22s-1.89,4.21-4.21,4.21-4.21-1.89-4.21-4.21,1.87-4.22,4.21-4.22Z"/>
            <path class="cls-3" d="M510.97,77.6c-15.99,0-28.96,12.96-28.96,28.96s12.97,28.96,28.96,28.96,28.96-12.97,28.96-28.96-12.97-28.96-28.96-28.96ZM514.84,107.15c-.03.19-.08.4-.13.57-.06.19-.13.37-.22.52-.05.13-.11.24-.17.35-.16.27-.35.51-.57.73-.08.1-.17.17-.29.27-.1.08-.19.16-.3.22-.17.13-.37.24-.57.32-.14.06-.29.13-.44.17-.19.06-.38.1-.59.13-.19.03-.38.05-.59.05-.54,0-1.06-.11-1.54-.32-.22-.1-.44-.21-.65-.35-.11-.08-.22-.16-.32-.24-.1-.08-.19-.16-.27-.25-.14-.13-.25-.27-.37-.43-.1-.13-.17-.25-.25-.38-.24-.41-.41-.87-.48-1.37-.03-.19-.05-.38-.05-.59s.02-.4.05-.59c.03-.21.06-.4.13-.57.05-.13.08-.25.14-.37.1-.24.21-.46.35-.67.11-.16.22-.3.35-.44.13-.14.27-.27.41-.4.14-.11.3-.22.46-.32.05-.03.08-.06.13-.08.03-.03.08-.05.13-.06.08-.05.16-.1.25-.13.48-.21.98-.32,1.52-.32.14,0,.27,0,.4.03.14,0,.27.03.4.06.22.05.43.11.64.19.08.03.16.06.24.1.03.02.06.03.1.05.14.08.29.16.41.25.13.06.24.14.33.24.11.08.21.17.29.27.4.4.7.86.87,1.4.06.13.1.25.13.38.03.13.06.27.08.41.03.17.05.37.05.56,0,.21-.02.4-.05.59Z"/>
            <path class="cls-1" d="M510.97,92.45c-7.8,0-14.12,6.32-14.12,14.12s6.32,14.12,14.12,14.12,14.12-6.32,14.12-14.12-6.32-14.12-14.12-14.12Z"/>
            <path class="cls-3" d="M514.89,106.57c0,2.18-1.75,3.92-3.92,3.92s-3.92-1.75-3.92-3.92,1.76-3.92,3.92-3.92,3.92,1.75,3.92,3.92Z"/>
            <path class="cls-1" d="M511.39,81.97v.51c12.93.22,23.39,10.67,23.66,23.58h.51c-.27-13.2-10.97-23.87-24.17-24.09ZM486.89,107.44h-.51c.46,13.13,11.26,23.69,24.5,23.72v-.51c-12.96-.03-23.55-10.35-23.99-23.22Z"/>
            <path class="cls-3" d="M511.39,85.1v.51c11.2.22,20.26,9.27,20.53,20.45h.51c-.27-11.46-9.58-20.74-21.04-20.96ZM490.02,107.44h-.51c.46,11.4,9.86,20.55,21.37,20.6v-.51c-11.23-.03-20.4-8.96-20.87-20.09Z"/>
            <path class="cls-1" d="M511.39,88.43v.49c9.35.22,16.94,7.78,17.2,17.13h.51c-.25-9.64-8.07-17.42-17.71-17.63ZM493.34,107.44h-.49c.46,9.58,8.37,17.23,18.04,17.28v-.51c-9.4-.05-17.07-7.46-17.55-16.77Z"/>
            <path class="cls-3" d="M539.19,154.65h-57.06c-.53,0-.95-.43-.95-.95h0c0-.53.43-.95.95-.95h57.06c.53,0,.95.43.95.95h0c0,.53-.43.95-.95.95Z"/>
            <path class="cls-3" d="M539.19,149.56h-57.06c-.53,0-.95-.43-.95-.95h0c0-.53.43-.95.95-.95h57.06c.53,0,.95.43.95.95h0c0,.53-.43.95-.95.95Z"/>
          </g>
          <g>
            <path class="cls-3" d="M541.88,207.99v-35.78h-70.93v100.9h70.93v-58.52c.11-1.08.17-2.19.17-3.3s-.06-2.22-.17-3.3ZM510.97,215.2c-.46,0-.92-.08-1.35-.22-.43-.14-.81-.37-1.14-.65-.1-.1-.19-.17-.27-.27-.1-.08-.19-.17-.27-.27-.56-.68-.91-1.54-.91-2.49s.35-1.83.91-2.51c.08-.1.17-.19.27-.27.13-.13.27-.25.43-.37.16-.11.32-.21.48-.3.16-.1.33-.17.52-.22.08-.05.16-.08.25-.1.13-.05.25-.08.4-.1.05-.02.1-.02.14-.02.17-.03.37-.05.56-.05.4,0,.79.06,1.16.17.37.11.71.29,1.03.49.19.13.38.3.57.48.7.7,1.14,1.68,1.14,2.78s-.44,2.06-1.14,2.76c-.19.17-.38.33-.59.48-.21.14-.43.27-.65.37t-.02,0c-.48.19-.98.3-1.52.3Z"/>
            <path class="cls-1" d="M541.88,207.99v-31.79h-67.77v92.94h67.77v-54.55c.11-1.08.17-2.19.17-3.3s-.06-2.22-.17-3.3ZM510.43,207.42c.17-.03.37-.05.56-.05.4,0,.79.06,1.16.17.37.11.71.29,1.03.49.19.13.38.3.57.48.7.7,1.14,1.68,1.14,2.78s-.44,2.06-1.14,2.76c-.19.17-.38.33-.59.48-.21.14-.43.27-.65.37t-.02,0c-.48.19-.98.3-1.52.3-.46,0-.92-.08-1.35-.22-.43-.14-.81-.37-1.14-.65-.1-.1-.19-.17-.27-.27-.1-.08-.19-.17-.27-.27-.56-.68-.91-1.54-.91-2.49s.35-1.83.91-2.51c.08-.1.17-.19.27-.27.13-.13.27-.25.43-.37.16-.11.32-.21.48-.3.16-.1.33-.17.52-.22.08-.05.16-.08.25-.1.13-.05.25-.08.4-.1.05-.02.1-.02.14-.02Z"/>
            <path class="cls-1" d="M541.88,207.99c-1.65-15.63-14.86-27.79-30.92-27.79-17.17,0-31.08,13.91-31.08,31.09s13.91,31.08,31.08,31.08c16.05,0,29.27-12.18,30.92-27.77.11-1.08.17-2.19.17-3.3s-.06-2.22-.17-3.3ZM515.17,211.29c0,2.32-1.87,4.21-4.21,4.21s-4.21-1.89-4.21-4.21,1.87-4.22,4.21-4.22,4.21,1.89,4.21,4.22Z"/>
            <path class="cls-3" d="M510.97,182.33c-16.01,0-28.96,12.96-28.96,28.96s12.96,28.95,28.96,28.95,28.96-12.97,28.96-28.95-12.97-28.96-28.96-28.96ZM510.97,215.2c-.46,0-.92-.08-1.35-.22-.43-.14-.81-.37-1.14-.65-.1-.1-.19-.17-.27-.27-.1-.08-.19-.17-.27-.27-.56-.68-.91-1.54-.91-2.49s.35-1.83.91-2.51c.08-.11.17-.21.27-.27.13-.13.27-.25.43-.37.16-.11.32-.21.48-.3.16-.1.33-.17.52-.22.08-.05.16-.08.25-.1.13-.05.25-.08.4-.1.08-.03.16-.05.25-.05s.17,0,.25-.02c.05-.02.11-.02.17-.02.4,0,.79.06,1.18.19.37.11.71.29,1.03.49.19.13.38.3.57.48.7.7,1.14,1.68,1.14,2.78s-.44,2.06-1.14,2.76c-.19.17-.38.33-.59.48-.21.14-.43.27-.65.37t-.02,0c-.48.19-.98.3-1.52.3Z"/>
            <path class="cls-1" d="M510.98,197.16c-7.81,0-14.13,6.34-14.13,14.13s6.32,14.12,14.13,14.12,14.12-6.34,14.12-14.12-6.34-14.13-14.12-14.13ZM513.16,214.53c-.21.14-.43.27-.65.37t-.02,0c-.46.21-.97.32-1.51.32-.48,0-.95-.08-1.37-.24-.43-.14-.81-.37-1.14-.65-.1-.1-.19-.17-.27-.27-.1-.08-.19-.17-.27-.27-.56-.68-.91-1.54-.91-2.49s.35-1.83.91-2.51c.08-.1.17-.19.27-.27.13-.13.27-.25.43-.37.16-.11.32-.21.48-.3.16-.1.33-.17.52-.22.08-.05.16-.08.25-.1.13-.05.25-.08.4-.1.05-.02.1-.02.14-.02.17-.03.37-.05.56-.05.4,0,.79.06,1.16.17.37.11.71.29,1.03.49.19.13.38.3.57.48.7.7,1.14,1.68,1.14,2.78s-.44,2.06-1.14,2.76c-.19.17-.38.33-.59.48Z"/>
            <path class="cls-3" d="M514.88,211.29c0,1.08-.44,2.06-1.14,2.76-.72.7-1.7,1.14-2.78,1.14-.93,0-1.8-.33-2.49-.88-.1-.08-.2-.16-.28-.26-.08-.08-.18-.18-.26-.28-.56-.67-.9-1.54-.9-2.49s.34-1.83.9-2.5c.08-.1.18-.2.26-.28.7-.7,1.68-1.14,2.78-1.14.41,0,.8.07,1.16.18.38.11.72.28,1.03.49.2.13.39.29.57.47.7.7,1.14,1.68,1.14,2.78Z"/>
            <path class="cls-1" d="M511.39,186.69v.51c12.93.21,23.39,10.66,23.66,23.58h.51c-.27-13.2-10.97-23.87-24.17-24.09ZM486.89,212.16h-.51c.46,13.13,11.26,23.68,24.5,23.72v-.51c-12.96-.03-23.55-10.37-23.99-23.22Z"/>
            <path class="cls-1" d="M511.39,189.82v.51c11.2.22,20.26,9.26,20.53,20.45h.51c-.27-11.48-9.58-20.74-21.04-20.96ZM490.02,212.16h-.51c.46,11.4,9.86,20.55,21.37,20.6v-.51c-11.23-.05-20.4-8.97-20.87-20.09Z"/>
            <path class="cls-3" d="M511.39,193.14v.51c9.35.22,16.94,7.78,17.2,17.13h.51c-.25-9.64-8.07-17.42-17.71-17.64ZM493.34,212.16h-.49c.46,9.56,8.37,17.23,18.04,17.26v-.49c-9.4-.05-17.07-7.48-17.55-16.77Z"/>
            <path class="cls-3" d="M539.19,259.37h-57.06c-.53,0-.95-.43-.95-.95h0c0-.53.43-.95.95-.95h57.06c.53,0,.95.43.95.95h0c0,.53-.43.95-.95.95Z"/>
            <path class="cls-3" d="M539.19,254.27h-57.06c-.53,0-.95-.43-.95-.95h0c0-.53.43-.95.95-.95h57.06c.53,0,.95.43.95.95h0c0,.53-.43.95-.95.95Z"/>
          </g>
        </g>
      </g>
      <g>
        <g>
          <path class="cls-3" d="M251.65,216.8l7.02.95c.54.07,1.1.02,1.62-.16l9.29-3.23,10.29,2.44,4.77,4.88,10.61,1.8,2.12-12.3-9.76-9.44-34.47,12.52-1.48,2.55Z"/>
          <path class="cls-3" d="M276.47,194.85l-12.94-.88-16.76,3.07c-1.45.06-2.27,1.68-1.47,2.89l.21.32c1.31,1.99,3.56,3.16,5.94,3.1l27.35-.65,16.55,7.53-7.74-11.24-11.14-4.14Z"/>
          <path class="cls-3" d="M260.23,202.54c-.27.04-.53.14-.75.31l-.33.24-13.85,10.36c-1.01.76-.78,2.34.4,2.78l.97.36c2.77,1.02,5.84.88,8.5-.4l11.09-5.32c.16-.07,4.16-1.89,4.34-1.92l19.83-1.18c1.16-.14,1.78-1.44,1.16-2.43l-3.43-5.49c-.33-.53-.94-.82-1.56-.74l-26.36,3.42Z"/>
          <path class="cls-3" d="M308.07,244.59l-6.22-8.62-6.6.7c-2.51.27-5-.71-6.66-2.61l-3.28-3.75-19.8-4.81.17-1.47c.38-3.43,3.43-5.94,6.87-5.66l16.99,1.39c1.65.14,3.23-.68,4.08-2.1.41-.68.61-1.45.61-2.22s-.2-1.51-.59-2.19l-6.91-11.8-21.22-10.68c-2.24-1.13-3.87-3.17-4.47-5.6l-.41-1.67c-.45-1.83,1.31-3.43,3.08-2.79l28.04,9.95c1.89.67,3.53,1.89,4.72,3.52l16.42,22.55,6.23,4.73s5.37,18.46-11.04,23.13Z"/>
          <path class="cls-3" d="M308.07,244.59l-6.22-8.62c10.32-2.48,17.26-14.5,17.26-14.5,0,0,5.37,18.46-11.04,23.13Z"/>
          <path class="cls-3" d="M358.78,326.05v.32h-34.12l-.38-.32-5.59-4.67s-.24-1.87-.57-4.59c-.7-5.88-1.83-15.77-1.98-19.39-.21-5.29-6.78-8.05-10.81-11.02-.65-.48-1.08-1.3-1.33-2.35-.3-1.18-.38-2.62-.33-4.19,0-.25.02-.51.03-.76,0-.17.02-.33.03-.51,0-.08,0-.14.02-.21.02-.35.05-.7.1-1.06.17-1.79.48-3.59.78-5.18.06-.33.13-.65.19-.95.03-.16.06-.32.1-.46.03-.16.06-.3.1-.46.1-.43.19-.83.27-1.19.14-.62.27-1.11.35-1.46.05-.13.08-.24.1-.32.03-.13.05-.21.05-.21l3.49-3.89,14.72-16.44s.02-.02.02-.03l16.34-18.25,1.71,2.32,8.15,11,1.27,1.71,4.57,6.18.21,5.75,1.94,53.55.62,17.07Z"/>
          <path class="cls-3" d="M342.01,256.47c-1.56,17.08-32.59,27.41-38.04,27.57-1.37-5.45,1.77-16.96,1.77-16.96l3.49-3.89c13.55-4.94,33.95-19.54,32.79-6.72Z"/>
          <path class="cls-3" d="M234.11,260.15s-9.05,7.64-11.46,13.29l1.27,4.81s-8.34,7.64-8.34,10.89l1.41,2.83s-5.23,5.37-5.23,8.49c2.97,3.11,6.36,8.34,9.33,9.05,2.97.71,23.48-27.15,23.48-27.15l-.57-14.85-9.9-7.35Z"/>
          <path class="cls-3" d="M264.16,273.02s5.3-15.06,11.24-15.7c5.94-.64,2.23,10.92,2.12,14.21-.11,3.29,1.91,17.61-3.08,17.18l-10.29-15.7Z"/>
          <path class="cls-3" d="M241.61,319.26s-22.06-6.51-22.34-12.45c-.28-5.94,20.72-45.47,43.27-38.75,9.33,4.81,13.29,24.32,13.29,24.32,0,0-21.21,27.15-34.22,26.87Z"/>
          <path class="cls-3" d="M288.56,298.06s-14.34,17.2-25.93,28c-.11.1-.24.21-.35.32h-20.23c-.08-.11-.16-.21-.24-.32-1.14-1.59-2.13-3.3-2.75-5.1-.24-.67-.22-1.51-.02-2.51,1.92-9.05,21.1-29.84,33.39-32.79.51-.11.98-.21,1.46-.25.57-.08,1.13-.1,1.65-.08.56.21,1.11.46,1.67.78,3.32,1.91,6.64,5.67,8.81,8.46,1.56,1.98,2.52,3.49,2.52,3.49Z"/>
          <path class="cls-3" d="M491.88,326.37h-145.33c-.02-.11-.02-.21,0-.32,0-5.75.03-11.64.1-17.5.29-23.77,1.11-47.02,3.14-58.74.48-2.81,1.03-4.97,1.65-6.3.11-.22.22-.43.33-.62,4.81-7.76,38.02-19.75,61.87-27.53h.02c8.96-2.94,16.58-5.26,20.88-6.56,1.4-.41,2.43-.71,3.06-.91.48-.14.71-.21.71-.21,0,0,.17.03.49.13,2.72.87,16.64,7.03,32.14,44.56.44,1.06.87,2.14,1.32,3.26.62,1.56,1.24,3.18,1.84,4.83,1.02,2.78,2.02,5.68,3,8.69.43,1.3.84,2.62,1.27,3.97,5.16,16.53,9.72,35.46,13.42,52.94.03.11.05.21.08.32Z"/>
          <path class="cls-3" d="M491.88,326.37h-145.33c-.02-.11-.02-.21,0-.32,0-5.75.03-11.64.1-17.5,4.02.35,7.86.49,11.51.43,1.78-.02,3.53-.1,5.22-.21,41.25-2.75,58.77-30.66,66.12-56.42,4.78-16.8,5.26-32.68,5.14-40-.02-1.65-.06-2.86-.11-3.56-.02-.46-.03-.7-.03-.7l3.1-.21.67-.03h.03l.51-.05c2.72.87,16.64,7.03,32.14,44.56.44,1.06.87,2.14,1.32,3.26.62,1.56,1.24,3.18,1.84,4.83,1.02,2.78,2.02,5.68,3,8.69.43,1.3.84,2.62,1.27,3.97,5.16,16.53,9.72,35.46,13.42,52.94.03.11.05.21.08.32Z"/>
          <path class="cls-3" d="M438.32,207.68c-1.27,9.89-73.32,39.41-74.45,39.87,0,0-.02,0-.02,0,0,0-11.24,15.48-13.58,5.94-2.33-9.55,3.61-29.06,3.61-29.06-2.97-19.1,22.49-33.73,39.67-44.12,1.13-.68,2.32-1.35,3.56-2,17.55-9.18,44.36-14.34,41.2-8.4-6.15,15.69,1.27,27.79,0,37.76Z"/>
          <path class="cls-3" d="M438.32,207.68c-1.27,9.89-73.32,39.41-74.45,39.87.92-.5,48.19-26.18,53.02-36.27-7.64,4.03-.64-8.91-.64-8.91,0,0-26.72,16.97-42.43,13.58,20.08-18.68,23.39-31.22,23.29-37.63,17.55-9.18,44.36-14.34,41.2-8.4-6.15,15.69,1.27,27.79,0,37.76Z"/>
          <path class="cls-3" d="M361.53,224.22s-2.55.43-5.24,4.1c1.41-10.89,2.97-17.25,10.04-25.46,7.07-8.2,39.17-30.12,57.56-31.11-13.29,15.41-17.18,18.1-17.18,18.1l-45.18,34.36Z"/>
          <path class="cls-3" d="M331.32,326.37h-80.05c.05-.11.08-.22.13-.32,2.21-5.59,4.6-11.07,6.59-15.02,0-.02.02-.02.02-.03,1.44-2.91,2.65-4.99,3.4-5.73.76-.76,3.11-2.06,6.34-3.57h.02c4.94-2.32,11.89-5.1,18.28-7.13h.02c8.08-2.57,15.23-3.94,16.09-1.6,1.97,5.38-.57,10.46,10.46,19.52,1.64,1.35,3.51,2.81,5.51,4.32,4.02,3.05,8.56,6.3,12.75,9.26.16.11.32.22.46.32Z"/>
          <path class="cls-3" d="M437.22,326.05c-.02.11-.02.21-.02.32h-78.43v-.05c.03-.1.05-.17.08-.27,1.14-4.35,2.78-10.65,4.53-17.28,2.45-9.27,5.05-19.13,6.64-25.15,3.67-13.86,18.66-51.75,47.51-44.97,5.14,1.21,9.05,6.22,11.97,13.7,2.24,5.75,3.91,12.96,5.11,21.04,2.35,15.72,2.92,34.74,2.6,52.66Z"/>
          <path class="cls-3" d="M262.54,268.07s-17.25-16.97-18.81-16.97-11.88,3.96-10.89,7.21c.99,3.25,9.48,22.2,9.48,22.2l20.22-12.45Z"/>
          <path class="cls-3" d="M342.44,235.89c0,15.48-3.61,37.34-33.94,42.01-.43-4.03-.64-8.49-.64-8.49,0,0-8.49-.57-11.11-4.5-.14-.19-.25-.38-.35-.59-2.12-4.46,3.21-22.12,7.24-25.93l.46.64,3.97,5.57h0c.35-.34,12.07-11.43,11.03-23.13,8.48,0,8.27,2.13,11.45,2.76,3.19.64,11.88-3.82,11.88,11.67Z"/>
          <path class="cls-3" d="M308.07,244.59s-8.06,9.33-10.29,14.43c.72-7.18,2.65-15.05,6.32-19.99l3.97,5.57Z"/>
          <path class="cls-3" d="M326.07,239.45c-7.18,28.38-18.21,29.95-18.21,29.95,0,0-8.49-.57-11.11-4.5,4.38-1.9,24.03-11.1,29.32-25.45Z"/>
          <path class="cls-3" d="M327.3,234.13c-.17,1.85-.6,3.62-1.23,5.33.43-1.68.83-3.46,1.23-5.33Z"/>
          <path class="cls-3" d="M437.22,326.05c-.02.11-.02.21-.02.32h-21.95c.05-.1.1-.21.14-.32,8.54-18.99,15.83-41.62,19.21-52.66,2.35,15.72,2.92,34.74,2.6,52.66Z"/>
        </g>
        <g>
          <path class="cls-3" d="M406.72,189.86c-11.25,16.76-45.18,34.36-45.18,34.36,0,0,.21-21.42-1.7-26.3-.56-1.43-1.4-3.17-2.31-4.9-2.16-4.14-4.7-8.25-4.7-8.25l23.97-34.79,19.91,3.2s1.14,8.22,3.1,17.05c1.74,7.82,4.12,16.14,6.91,19.62Z"/>
          <path class="cls-3" d="M399.81,170.24c-10.55,13.38-32.22,20.23-42.28,22.79-2.16-4.14-4.7-8.25-4.7-8.25l23.97-34.79,19.91,3.2s1.14,8.22,3.1,17.05Z"/>
          <path class="cls-3" d="M390.17,91.22s-1.5,9.1-3.36,21.15c-2.12,13.64-4.72,31.06-6.18,43.34-1.71,14.36-13.67,25.03-29.87,31.4-9.89,3.89-21.37,6.18-33.06,6.71-8.48-5.94-17.39-36.06-16.83-42.57-7.04-1.55-10.89-7.12-9.79-10.27.4-1.16,1.47-1.98,3.28-2.17,6.79-.71,12.52-10.61,11.81-23.4-2.68-13.51-.77-21.5-.77-21.5-2.9-4.31.56-14.78.56-14.78l37.33-6.57,46.88,18.67Z"/>
          <path class="cls-3" d="M386.81,112.37c-2.12,13.64-4.72,31.06-6.18,43.34-1.71,14.36-13.67,25.03-29.87,31.4,20.46-27.02-4.78-99.5-4.78-99.5l28.29,6.51,12.55,18.25Z"/>
          <path class="cls-3" d="M351.35,85.92s-4.03,18.67,10.18,20.79c12.09,2.12,12.94,21.43,12.94,21.43,0,0,2.33-21.64,14.85-17.61,12.52,4.03,15.49,16.12,3.18,26.52,5.09,14.64,5.3,19.52,5.3,19.52,0,0,22.91-27.15,18.46-45.18-4.45-18.03-32.67-30.55-32.67-30.55l-30.55-2.33-1.7,7.42Z"/>
          <path class="cls-3" d="M424.48,101.05s14.76,17.96-2.95,19.94c0,0-1.88,12.73-10.47,6.51-8.58-6.22-26.29-30.97-26.29-30.97,0,0-11.06,2.82-8.65-2.98-13.53,9.02-17.42-2.01-17.5-2.25h0s-26.82,6.93-25.34-9.62c-9.8,12.31-26.42,12.45-26.83,3.96,0,0-1.88,2.76-1.88,8.27-8.72.5-25.35-7.7-5.36-15.34-9.79-8.48-1.2-32.95,24.68-24.75,6.17-16.41,26.55-9.2,26.55-9.2,0,0,23.07-22.2,42.12,7.08,0,0,11.11-1.98,16.84,7.84,1.31,2.23,2.33,5.09,2.88,8.71,11,1.13,26.56,13.72,12.2,32.81Z"/>
          <path class="cls-3" d="M424.48,101.05s14.76,17.96-2.95,19.94c0,0-1.88,12.73-10.47,6.51-8.58-6.22-26.29-30.97-26.29-30.97,0,0-11.06,2.82-8.65-2.98-13.53,9.02-17.42-2.01-17.5-2.25.32.24,9.85,7.41,19.59-5.66,4.97,7.59,31.46-6.11,31.18-26.1,1.31,2.23,2.33,5.09,2.88,8.71,11,1.13,26.56,13.72,12.2,32.81Z"/>
          <g>
            <path class="cls-3" d="M435.49,61.29c-.12.92-.27,1.83-.44,2.72-3.76,20.11-17.92,34.07-17.92,34.07,0,0-1.09-.02-2.86-.33-3.51-.61-9.67-2.4-15.07-7.59-.14-.14-.27-.27-.41-.42-.73-.73-1.44-1.53-2.12-2.39,6.56-9.71,13.75-37.26,13.75-37.26,0,0,18.53-1.8,25.07,11.19Z"/>
            <path class="cls-1" d="M435.06,64.01c-3.76,20.11-17.92,34.07-17.92,34.07,0,0-1.09-.02-2.86-.33-3.6-.63-9.99-2.5-15.48-7.99,0,0,0,0,0-.01,4.47-8.11,8.97-22.89,11.1-30.37.82-2.86,3.52-4.79,6.49-4.57,5.5.42,13.99,2.25,18.68,9.19Z"/>
            <path class="cls-3" d="M413.88,97.46c-3.46-.62-9.51-2.43-14.79-7.62.83-2.62,3.91-11.21,8.84-10.85,5.7.41,15.25,5.22,5.96,18.47Z"/>
            <path class="cls-3" d="M416.14,135.19s0,.03-.02.04c-6.45,17.46-23.26,27.36-37.55,22.09-14.3-5.27-20.67-23.72-14.23-41.21.66-1.8,1.44-3.53,2.31-5.16,7.58-14.21,22.43-21.69,35.26-16.97,14.3,5.28,20.67,23.73,14.23,41.21Z"/>
            <path class="cls-2" d="M416.12,135.23c-6.45,17.46-23.26,27.36-37.55,22.09-14.3-5.27-20.67-23.72-14.23-41.21.66-1.8,1.44-3.53,2.31-5.16,4.86,10.37,19.48,33.78,49.47,24.29Z"/>
            <ellipse class="cls-3" cx="390.74" cy="125.84" rx="30.18" ry="24.14" transform="translate(137.56 448.97) rotate(-69.77)"/>
            <ellipse class="cls-3" cx="398.09" cy="118.18" rx="7.27" ry="11.58" transform="translate(133.7 438.41) rotate(-66.99)"/>
            <path class="cls-1" d="M413.4,134.18c-1.74,4.73-4.3,8.83-7.38,12.14-1.97,2.13-4.16,3.92-6.47,5.34-.92.57-1.88,1.07-2.84,1.52-5.3,2.44-11.06,2.95-16.4.98-8.64-3.18-13.92-12-14.46-22.3-.08-1.39-.06-2.8.04-4.24.23-3.28.94-6.65,2.16-9.98,0-.05.03-.1.05-.15,3.65-9.9,13.73-14.74,22.03-17.29l-.1-.05s7.73-2.66,13.08-14.97c1.26-2.91,4.66-4.24,7.54-2.91l1.76.81c2.73,1.26,3.99,4.43,2.87,7.22-1.42,3.52-3.47,8.33-5.6,12.41-1.01,2.79,1.29,8.87,1.29,8.87,0,0,5.59,14.05,2.43,22.61Z"/>
            <path class="cls-3" d="M406.02,146.32c-1.97,2.12-4.16,3.92-6.47,5.34-.93.57-1.87,1.08-2.84,1.52-5.3,2.45-11.06,2.95-16.4.98-8.64-3.18-13.92-12-14.46-22.3-.08-1.39-.06-2.8.04-4.24.23-3.28.94-6.65,2.16-9.99-2.78,13.03,3.03,47.21,37.97,28.69Z"/>
            <path class="cls-3" d="M403.54,145.98c-1.34,2.09-2.72,4.02-4,5.68-.93.57-1.87,1.08-2.84,1.52,5.31-6.53,14.77-19.98,12.72-30.71-.97-5.07-4.45-9-10.34-11.7-7.23-3.31-13.62-3.48-19.01-.53-6.58,3.6-10.55,11.27-12.73,17.08-.59,1.59-1.09,3.12-1.5,4.54-.08-1.39-.06-2.8.04-4.24.08-.24.17-.48.26-.73,2.25-6.01,6.39-13.98,13.31-17.77,5.76-3.15,12.54-2.99,20.15.49,6.29,2.88,10.01,7.13,11.07,12.62,1.24,6.46-1.17,14.45-7.14,23.75Z"/>
            <path class="cls-3" d="M403.06,129.55l-5.73,10.87c-1.07,2.04-3.61,2.82-5.64,1.75l-13.51-7.12c-2.04-1.07-2.82-3.6-1.74-5.64l5.73-10.87c.96-1.83,3.07-2.64,4.97-2.04.23.08.45.17.67.29l13.5,7.12c.95.5,1.63,1.31,1.98,2.25.39,1.07.35,2.3-.23,3.39Z"/>
            <path class="cls-3" d="M403.28,126.16c-2.38.32-5.23-.09-8.04-1.28-4.46-1.89-7.57-5.25-8.11-8.38.23.08.45.17.67.29l13.5,7.12c.95.5,1.63,1.31,1.98,2.25Z"/>
          </g>
          <path class="cls-3" d="M300.86,151.25c-7.04-1.55-10.89-7.12-9.79-10.27,2.36.06,10.04.47,13.61,3.06,4.24,3.08-3.82,7.21-3.82,7.21Z"/>
        </g>
        <g>
          <ellipse class="cls-3" cx="322.07" cy="125.59" rx="4.81" ry="8.2"/>
          <path class="cls-1" d="M322.22,176c-2.55.96-5.12-.11-7.46-2.07-3.41-2.88-6.36-7.69-8.14-11h0c-1.13-2.12-1.8-3.61-1.8-3.61,0,0,13.13-4.02,21.43-8.38.78-.41,1.52-.82,2.19-1.23,1.11,5.72,1.77,10.1,1.91,13.49.33,7.86-2.11,10.54-8.13,12.81Z"/>
          <path class="cls-3" d="M326.03,155.78c-6.94,5.52-16.42,6.85-19.42,7.14-1.13-2.11-1.8-3.61-1.8-3.61,0,0,13.13-4.02,21.43-8.38.06,1.15.02,2.72-.21,4.85Z"/>
          <path class="cls-3" d="M322.22,176c-2.55.96-5.12-.11-7.46-2.07,2.48-3.74,9.02-12.4,15.59-10.74.33,7.86-2.11,10.54-8.13,12.81Z"/>
          <path class="cls-3" d="M312.39,106.79s-1.21,3.96,2.06,5.5c5.83-3.4,16.25-6.79,19.96-1.1.13-3.79-3.5-9.57-9.45-8.72-5.96.85-12.57,4.33-12.57,4.33Z"/>
        </g>
      </g>
    </g>
  </g>
</svg>